<?xml version="1.0" encoding="UTF-8" standalone="no"?>
<!-- Created with Inkscape (http://www.inkscape.org/) -->

<svg
   xmlns:dc="http://purl.org/dc/elements/1.1/"
   xmlns:cc="http://creativecommons.org/ns#"
   xmlns:rdf="http://www.w3.org/1999/02/22-rdf-syntax-ns#"
   xmlns:svg="http://www.w3.org/2000/svg"
   xmlns="http://www.w3.org/2000/svg"
   xmlns:sodipodi="http://sodipodi.sourceforge.net/DTD/sodipodi-0.dtd"
   xmlns:inkscape="http://www.inkscape.org/namespaces/inkscape"
   width="100"
   height="100"
   id="svg3865"
   version="1.1"
   inkscape:version="0.48.5 r10040"
   sodipodi:docname="favicon.svg"
   inkscape:export-filename="/home/outskirts/src/outskirtslabs/portfolio/assets/icons/favicon.png"
   inkscape:export-xdpi="360"
   inkscape:export-ydpi="360">
  <defs
     id="defs3867">
    <linearGradient
       id="linearGradient3770">
      <stop
         style="stop-color:#6da68b;stop-opacity:1;"
         offset="0"
         id="stop3772" />
      <stop
         id="stop3786"
         offset="1"
         style="stop-color:#47af92;stop-opacity:1;" />
    </linearGradient>
  </defs>
  <sodipodi:namedview
     id="base"
     pagecolor="#ffffff"
     bordercolor="#666666"
     borderopacity="1.0"
     inkscape:pageopacity="0.0"
     inkscape:pageshadow="2"
     inkscape:zoom="2.8"
     inkscape:cx="46.656323"
     inkscape:cy="32.235404"
     inkscape:document-units="px"
     inkscape:current-layer="layer1"
     showgrid="false"
     fit-margin-top="0"
     fit-margin-left="0"
     fit-margin-right="0"
     fit-margin-bottom="0"
     inkscape:window-width="1600"
     inkscape:window-height="831"
     inkscape:window-x="-2"
     inkscape:window-y="-3"
     inkscape:window-maximized="1" />
  <metadata
     id="metadata3870">
    <rdf:RDF>
      <cc:Work
         rdf:about="">
        <dc:format>image/svg+xml</dc:format>
        <dc:type
           rdf:resource="http://purl.org/dc/dcmitype/StillImage" />
        <dc:title></dc:title>
      </cc:Work>
    </rdf:RDF>
  </metadata>
  <g
     inkscape:label="Layer 1"
     inkscape:groupmode="layer"
     id="layer1"
     transform="translate(-284.28307,-660.70048)">
    <rect
       style="fill:#f2dec4;fill-opacity:1"
       id="rect3000"
       width="100"
       height="100"
       x="661.05762"
       y="-384.99734"
       ry="13.139374"
       transform="matrix(0,1,-1,0,0,0)"
       inkscape:export-filename="/home/outskirts/src/outskirtslabs/portfolio/src/assets/icons/favicon-bg-color.png"
       inkscape:export-xdpi="270"
       inkscape:export-ydpi="270" />
    <path
       inkscape:connector-curvature="0"
       style="fill:#e76227;fill-opacity:1"
       d="m 352.21824,735.73097 c -1.43401,-0.47308 -2.20442,-1.55156 -2.20994,-3.09364 -0.007,-1.88057 1.29487,-3.1693 3.20405,-3.17234 0.9433,-0.002 1.48123,0.20124 2.21964,0.83657 0.71784,0.61764 1.0104,1.46683 0.92355,2.68074 -0.0739,1.03328 -0.49656,1.77867 -1.34762,2.37681 -0.43821,0.30799 -0.69386,0.38071 -1.49592,0.4255 -0.53206,0.0297 -1.11425,0.006 -1.29376,-0.0536 z"
       id="path3107-4" />
    <g
       id="g2996"
       style="fill:#201e1d">
      <path
         sodipodi:nodetypes="cssscsccssssscccsssscccscsssscccsscsssssscssssscsssssccscsssssscscsscsssscsscccssssscssscccssccsssssssscc"
         id="path3109-6"
         d="m 330.93391,756.12954 c -3.90654,-0.7159 -5.60926,-1.22729 -8.14764,-2.44706 -2.78379,-1.3377 -4.91296,-2.86833 -7.29135,-5.24164 -2.99872,-2.99233 -4.7492,-5.68985 -6.25812,-9.64389 -1.15777,-3.03387 -1.44548,-4.85643 -1.44417,-9.14854 0.001,-3.06992 0.0668,-4.09428 0.33848,-5.26378 0.18552,-0.79863 0.34836,-1.61543 0.36186,-1.81509 0.0135,-0.19966 0.0737,-0.40385 0.1339,-0.45377 0.0602,-0.0499 0.25469,-0.53999 0.43231,-1.08906 0.31374,-0.96987 2.21562,-5.08144 2.43486,-5.26377 0.06,-0.0499 0.41332,-0.53999 0.78511,-1.08905 0.69234,-1.02244 0.90514,-1.28838 2.54417,-3.17952 1.57118,-1.81285 4.60202,-4.09739 7.26201,-5.47386 l 1.5882,-0.82186 0,-8.83126 0,-8.83127 -0.88446,-0.40575 c -1.08785,-0.49907 -1.90364,-1.30478 -2.52749,-2.49627 -0.40755,-0.77839 -0.47627,-1.14005 -0.48284,-2.54113 -0.009,-1.98981 0.40216,-2.95038 1.81659,-4.24069 1.52267,-1.38904 1.97468,-1.47879 7.44233,-1.47775 l 4.72884,0.001 -0.007,0.95292 c -0.004,0.52411 0.0537,1.17373 0.12786,1.44361 l 0.1349,0.49068 -4.79844,0.0538 c -4.51779,0.0507 -4.82774,0.0757 -5.29927,0.42808 -1.29366,0.96667 -1.62404,2.20282 -0.94297,3.52821 0.50021,0.97343 1.39481,1.48093 2.81859,1.59901 l 0.95905,0.0795 0,11.1145 0,11.11449 -1.62696,0.67437 c -2.99976,1.24338 -5.91996,3.27384 -8.1753,5.68439 -4.12343,4.40722 -6.34914,10.0604 -6.35133,16.13204 -3.4e-4,1.1106 0.048,2.26296 0.10757,2.56078 0.10728,0.53645 0.12207,0.54249 1.5882,0.64821 1.45637,0.10503 3.51341,0.67132 5.17643,1.42508 0.88564,0.40141 1.78449,0.81706 5.92774,2.74112 2.61737,1.21546 3.88723,1.62922 4.18243,1.44678 0.0966,-0.0597 0.16688,0.55501 0.16688,1.45863 l 0,1.56177 -0.68066,-0.12366 c -1.569,-0.28503 -2.70887,-0.85123 -6.03254,-2.66324 -0.59898,-0.32655 -1.57913,-0.85826 -2.17811,-1.18158 -0.59898,-0.32331 -1.74249,-0.94053 -2.54113,-1.37159 -1.80558,-0.97455 -3.0285,-1.45717 -4.25905,-1.68083 l -0.95359,-0.17332 0.11875,0.7426 c 0.16416,1.02662 0.92572,3.24802 1.59769,4.66032 2.00063,4.20476 5.58486,8.11293 9.55078,10.41396 2.06477,1.19798 2.2647,1.24722 3.44682,0.84899 0.56736,-0.19112 1.83995,-0.51265 2.82799,-0.71449 0.98804,-0.20184 1.36151,-0.56151 1.94574,-0.60235 l 9.36852,0.49514 c 0.473,0.0643 1.62709,0.31531 2.56465,0.55787 l 1.70466,0.44101 1.19949,-0.65698 c 1.88423,-1.03202 3.42711,-2.18979 5.16166,-3.87328 1.54139,-1.49601 3.57047,-3.93611 3.57047,-4.29371 0,-0.0947 -0.95973,-0.35802 -2.13274,-0.58519 -1.173,-0.22716 -3.07204,-0.61292 -4.22008,-0.85723 -2.5771,-0.54844 -4.53444,-0.5758 -6.3651,-0.089 -0.74198,0.19731 -1.41031,0.36067 -1.48518,0.36302 -0.0749,0.003 -0.13613,-0.51002 -0.13613,-1.13859 l 0,-1.14287 1.27393,-0.21845 c 3.05843,-0.52446 4.83853,-0.22089 10.75818,1.8347 l 2.86589,0.99518 0.63212,-1.25526 c 1.97073,-3.9134 2.85467,-8.47736 2.44118,-12.60431 -0.42016,-4.19358 -1.64552,-7.65847 -3.97582,-11.24223 -1.05695,-1.62547 -4.6344,-5.21251 -6.28134,-6.29815 -1.5823,-1.04305 -3.73507,-2.15472 -3.93426,-2.03162 -0.0823,0.0509 -0.14969,0.0149 -0.14969,-0.08 0,-0.0949 -0.2042,-0.2238 -0.45378,-0.28644 l -0.45377,-0.11389 0,-11.30656 0,-11.30656 0.90782,-0.23267 c 1.32657,-0.33998 2.17809,-1.37123 2.17716,-2.63664 -0.001,-1.22173 -0.49588,-2.01897 -1.54038,-2.481 -0.74803,-0.33089 -0.7929,-0.38898 -0.63044,-0.81626 0.0962,-0.25302 0.17489,-0.91043 0.17489,-1.46093 l 0,-1.00091 0.58991,0.12754 c 2.93102,0.6337 4.90209,3.68554 4.31329,6.67833 -0.2744,1.3948 -1.21265,2.84338 -2.27915,3.51883 l -0.7957,0.50395 -0.003,9.16622 -0.003,9.16622 1.43002,0.76126 c 2.12105,1.12914 4.39853,2.82775 6.2584,4.66771 0.90876,0.89904 1.69994,1.62217 1.75818,1.60696 0.0582,-0.0152 0.10671,0.0699 0.10773,0.18915 0.002,0.18934 1.59008,2.60564 1.87271,2.84869 0.35612,0.30624 2.21266,4.37908 2.689,5.89905 0.95803,3.0571 1.19909,4.72187 1.19584,8.25867 -0.003,3.37195 -0.19617,4.73924 -1.10208,7.8049 -0.39894,1.35005 -2.47926,5.88257 -2.75715,6.17132 -0.0141,0.0146 -1.29514,1.80032 -1.29514,1.8995 0,0.158 -1.59866,1.89035 -3.0209,3.27352 -3.4415,3.34694 -8.06586,5.80861 -12.95192,6.89463 -1.32302,0.29407 -7.62986,0.54491 -8.71244,0.34651 z"
         style="fill:#201e1d;fill-opacity:1"
         inkscape:connector-curvature="0" />
      <path
         sodipodi:nodetypes="ccsscsssccsccsccssscsscc"
         id="path5906"
         d="m 339.05828,750.3011 0,-12.44006 6.83583,0.16899 c 1.72596,0.0426 3.14812,-0.82962 3.14812,-1.85989 l 0,-0.16899 0,-13.92098 c 0,-1.05732 -1.40345,-1.91625 -3.09734,-1.91625 -1.69592,0 -3.04657,0.85893 -3.04657,1.91625 l 0,12.23017 -3.73857,0 0,-22.7851 c 0,-1.88919 -2.19759,-3.3816 -4.92528,-3.3816 l 9e-5,0 c -2.72364,0 -4.92528,1.49241 -4.92528,3.3816 l 0,13.52647 -3.14259,0 0,-5.24151 c 0,-0.71916 -0.92819,-1.29629 -2.08182,-1.29629 -1.14957,0 -2.08182,0.57713 -2.08182,1.29629 l 0,6.48143 0,0.11272 c 0,0.74171 1.06021,1.35265 2.3357,1.35265 l 4.97053,0 0,22.5441"
         style="fill:#201e1d;fill-opacity:1;fill-rule:nonzero;stroke:none"
         inkscape:connector-curvature="0" />
    </g>
    <path
       inkscape:connector-curvature="0"
       style="fill:#e76227;fill-opacity:1"
       d="m 333.5573,692.93537 c -1.69577,-0.6437 -2.59094,-2.03473 -2.59094,-4.0261 0,-2.52417 1.65751,-4.17285 4.17464,-4.1524 1.93718,0.0158 3.02169,0.63593 3.88468,2.22154 0.46792,0.8597 0.50617,1.06013 0.40007,2.09584 -0.1958,1.91107 -0.8066,2.93349 -2.19732,3.67812 -0.86965,0.46564 -2.6878,0.55627 -3.67113,0.183 z"
       id="path3105-8" />
    <path
       inkscape:connector-curvature="0"
       style="fill:#e76227;fill-opacity:1"
       d="m 337.12782,679.93895 c -1.3937,-0.73606 -1.88128,-1.99298 -1.52639,-3.93483 0.14742,-0.80665 0.97621,-1.72137 1.86626,-2.05978 0.59627,-0.22669 1.91159,-0.21464 2.54272,0.0233 2.435,0.91804 2.76007,4.57946 0.52296,5.89049 -0.97062,0.56882 -2.41659,0.60314 -3.40555,0.0808 z"
       id="path3103-0" />
    <path
       inkscape:connector-curvature="0"
       style="fill:#e76227;fill-opacity:1"
       d="m 331.55739,670.16312 c -1.73528,-0.85546 -1.76137,-3.86255 -0.041,-4.73304 0.24659,-0.12477 0.90438,-0.22806 1.46177,-0.22953 0.88749,-0.003 1.09955,0.0718 1.7064,0.59634 0.61596,0.53246 0.70226,0.71119 0.77667,1.60854 0.0602,0.72574 -0.006,1.19769 -0.23392,1.6789 -0.57467,1.21103 -2.34562,1.73162 -3.66986,1.07879 z"
       id="path3099-6" />
  </g>
</svg>
