<?xml version="1.0" encoding="UTF-8" standalone="no"?>
<!-- Created with Inkscape (http://www.inkscape.org/) -->

<svg
   xmlns:dc="http://purl.org/dc/elements/1.1/"
   xmlns:cc="http://creativecommons.org/ns#"
   xmlns:rdf="http://www.w3.org/1999/02/22-rdf-syntax-ns#"
   xmlns:svg="http://www.w3.org/2000/svg"
   xmlns="http://www.w3.org/2000/svg"
   xmlns:sodipodi="http://sodipodi.sourceforge.net/DTD/sodipodi-0.dtd"
   xmlns:inkscape="http://www.inkscape.org/namespaces/inkscape"
   width="100"
   height="100"
   id="svg69133"
   version="1.1"
   inkscape:version="0.91 r13725"
   sodipodi:docname="flask2.svg">
  <defs
     id="defs69135" />
  <sodipodi:namedview
     id="base"
     pagecolor="#ffffff"
     bordercolor="#666666"
     borderopacity="1.0"
     inkscape:pageopacity="0.0"
     inkscape:pageshadow="2"
     inkscape:zoom="2.8"
     inkscape:cx="-68.331408"
     inkscape:cy="72.425491"
     inkscape:document-units="px"
     inkscape:current-layer="layer1"
     showgrid="false"
     fit-margin-top="0"
     fit-margin-left="0"
     fit-margin-right="0"
     fit-margin-bottom="0"
     inkscape:window-width="1600"
     inkscape:window-height="831"
     inkscape:window-x="-3"
     inkscape:window-y="-3"
     inkscape:window-maximized="1" />
  <metadata
     id="metadata69138">
    <rdf:RDF>
      <cc:Work
         rdf:about="">
        <dc:format>image/svg+xml</dc:format>
        <dc:type
           rdf:resource="http://purl.org/dc/dcmitype/StillImage" />
        <dc:title />
      </cc:Work>
    </rdf:RDF>
  </metadata>
  <g
     inkscape:label="Layer 1"
     inkscape:groupmode="layer"
     id="layer1"
     transform="translate(-323.56879,-520.70047)">
    <path
       inkscape:connector-curvature="0"
       style="fill:#201e1d;fill-opacity:1"
       d="m 369.88839,620.62251 c -4.2929,-0.7867 -6.16401,-1.34866 -8.95345,-2.68907 -3.0591,-1.47 -5.39885,-3.15201 -8.01247,-5.76005 -3.2953,-3.28827 -5.2189,-6.25258 -6.87705,-10.59768 -1.27228,-3.33393 -1.58844,-5.33674 -1.587,-10.05334 0.001,-3.37354 0.0734,-4.49921 0.37195,-5.78437 0.20388,-0.87762 0.38282,-1.7752 0.39765,-1.99461 0.0148,-0.2194 0.0811,-0.4438 0.14715,-0.49865 0.0661,-0.0548 0.27988,-0.59339 0.47506,-1.19677 0.34476,-1.06579 2.43475,-5.584 2.67567,-5.78436 0.066,-0.0548 0.4542,-0.59339 0.86276,-1.19676 0.76081,-1.12356 0.99465,-1.4158 2.79579,-3.49398 1.72658,-1.99214 5.05717,-4.50263 7.98023,-6.01523 l 1.74528,-0.90314 0,-9.70468 0,-9.70469 -0.97194,-0.44589 c -1.19544,-0.54842 -2.09191,-1.43382 -2.77746,-2.74315 -0.44785,-0.85537 -0.52337,-1.25279 -0.53059,-2.79245 -0.0103,-2.1866 0.44193,-3.24217 1.99625,-4.66009 1.67327,-1.52642 2.16998,-1.62505 8.17839,-1.62391 l 5.19653,10e-4 -0.008,1.04717 c -0.005,0.57594 0.059,1.28981 0.14051,1.58638 l 0.14824,0.53921 -5.27301,0.0592 c -4.9646,0.0557 -5.30521,0.0832 -5.82337,0.47042 -1.42161,1.06228 -1.78467,2.42069 -1.03624,3.87716 0.54969,1.0697 1.53276,1.6274 3.09735,1.75716 l 1.05391,0.0874 0,12.21373 0,12.21373 -1.78787,0.74106 c -3.29644,1.36636 -6.50545,3.59763 -8.98385,6.24659 -4.53124,4.8431 -6.97707,11.05539 -6.97948,17.72751 -3.7e-4,1.22045 0.0528,2.48677 0.11821,2.81405 0.11789,0.58951 0.13414,0.59614 1.74528,0.71232 1.60041,0.11541 3.86089,0.73772 5.68838,1.56602 0.97323,0.44111 1.96098,0.89787 6.514,3.01222 2.87623,1.33567 4.27168,1.79035 4.59608,1.58986 0.1061,-0.0656 0.18337,0.60991 0.18337,1.6029 l 0,1.71623 -0.74797,-0.13589 c -1.72417,-0.31322 -2.97678,-0.93542 -6.62916,-2.92664 -0.65822,-0.35885 -1.73531,-0.94314 -2.39353,-1.29844 -0.65822,-0.35529 -1.91482,-1.03355 -2.79246,-1.50724 -1.98415,-1.07093 -3.32801,-1.60129 -4.68026,-1.84707 l -1.0479,-0.19046 0.13048,0.81605 c 0.1804,1.12815 1.01729,3.56925 1.75571,5.12123 2.19849,4.62061 6.13721,8.9153 10.49536,11.44391 2.26899,1.31646 2.48869,1.37057 3.78772,0.93296 0.62347,-0.21003 2.02192,-0.56335 3.10768,-0.78516 1.08575,-0.2218 1.49617,-0.61704 2.13817,-0.66192 l 10.29508,0.54411 c 0.51978,0.0706 1.78801,0.34649 2.8183,0.61304 l 1.87325,0.48463 1.31813,-0.72196 c 2.07057,-1.13409 3.76604,-2.40635 5.67215,-4.25635 1.69383,-1.64397 3.92359,-4.32539 3.92359,-4.71836 0,-0.10406 -1.05464,-0.39343 -2.34367,-0.64307 -1.28901,-0.24962 -3.37586,-0.67353 -4.63745,-0.94201 -2.83197,-0.60268 -4.9829,-0.63274 -6.99462,-0.0978 -0.81535,0.21683 -1.54979,0.39634 -1.63206,0.39892 -0.0823,0.003 -0.1496,-0.56046 -0.1496,-1.25119 l 0,-1.2559 1.39993,-0.24006 c 3.36091,-0.57633 5.31706,-0.24273 11.82217,2.01616 l 3.14933,1.09359 0.69465,-1.3794 c 2.16562,-4.30044 3.13699,-9.31577 2.68261,-13.85089 -0.46172,-4.60833 -1.80827,-8.4159 -4.36904,-12.3541 -1.16148,-1.78623 -5.09275,-5.72803 -6.90256,-6.92104 -1.7388,-1.14621 -4.10449,-2.36782 -4.32337,-2.23255 -0.0905,0.0559 -0.1645,0.0164 -0.1645,-0.0879 0,-0.10428 -0.22439,-0.24593 -0.49865,-0.31476 l -0.49865,-0.12515 0,-12.4248 0,-12.42479 0.9976,-0.25568 c 1.45776,-0.37361 2.39351,-1.50684 2.39248,-2.89741 -10e-4,-1.34256 -0.54492,-2.21865 -1.69272,-2.72637 -0.82201,-0.36362 -0.87132,-0.42745 -0.69279,-0.89699 0.1057,-0.27804 0.19219,-1.00048 0.19219,-1.60542 l 0,-1.0999 0.64825,0.14015 c 3.22089,0.69638 5.38691,4.05005 4.73988,7.33883 -0.30155,1.53274 -1.33259,3.12459 -2.50456,3.86684 l -0.8744,0.55379 -0.003,10.07277 -0.003,10.07278 1.57145,0.83654 c 2.33083,1.24082 4.83355,3.10743 6.87736,5.12936 0.99864,0.98795 1.86807,1.78261 1.93206,1.76589 0.064,-0.0167 0.11728,0.0768 0.11839,0.20785 0.002,0.20807 1.74734,2.86335 2.05793,3.13043 0.39134,0.33653 2.43149,4.81217 2.95494,6.48248 1.05279,3.35944 1.31768,5.18887 1.31411,9.07546 -0.003,3.70543 -0.21557,5.20795 -1.21108,8.57681 -0.43839,1.48357 -2.72446,6.46436 -3.02983,6.78167 -0.0154,0.016 -1.42323,1.97837 -1.42323,2.08736 0,0.17363 -1.75677,2.07731 -3.31968,3.59727 -3.78186,3.67797 -8.86358,6.3831 -14.23288,7.57653 -1.45386,0.32315 -8.38446,0.59879 -9.57411,0.38078 z"
       id="path3109-6"
       sodipodi:nodetypes="cssscsccssssscccsssscccscsssscccsscsssssscssssscsssssccscsssssscscsscsssscsscccssssscssscccssccsssssssscc"
       class="flask" />
    <path
       inkscape:connector-curvature="0"
       style="fill:#201e1d;fill-opacity:1;fill-rule:nonzero;stroke:none"
       d="m 378.81627,614.21763 0,-13.67039 7.51191,0.1857 c 1.89665,0.0469 3.45947,-0.91167 3.45947,-2.04383 l 0,-0.1857 0,-15.29779 c 0,-1.16189 -1.54226,-2.10577 -3.40367,-2.10577 -1.86365,0 -3.34788,0.94388 -3.34788,2.10577 l 0,13.43975 -4.10832,0 0,-25.03857 c 0,-2.07604 -2.41493,-3.71605 -5.4124,-3.71605 l 1e-4,0 c -2.99301,0 -5.4124,1.64001 -5.4124,3.71605 l 0,14.86425 -3.45339,0 0,-5.7599 c 0,-0.79028 -1.01998,-1.42449 -2.28771,-1.42449 -1.26327,0 -2.28771,0.63421 -2.28771,1.42449 l 0,7.12245 0,0.12387 c 0,0.81506 1.16506,1.48643 2.5667,1.48643 l 5.46211,0 0,24.77373"
       id="path5906"
       sodipodi:nodetypes="ccsscsssccsccsccssscsscc"
       class="cactus" />
    <g
       id="bubbles"
       style="fill:#201e1d">
      <path
         id="path3107-4"
         d="m 393.27777,598.2065 c -1.57583,-0.51986 -2.42244,-1.70501 -2.42851,-3.39961 -0.007,-2.06655 1.42293,-3.48274 3.52094,-3.48608 1.03659,-0.002 1.62773,0.22115 2.43916,0.91931 0.78884,0.67872 1.11033,1.6119 1.01489,2.94587 -0.0813,1.13546 -0.54567,1.95457 -1.4809,2.61188 -0.48155,0.33844 -0.76248,0.41836 -1.64386,0.46757 -0.58469,0.0327 -1.22446,0.006 -1.42172,-0.0589 z"
         style="fill:#201e1d;fill-opacity:1"
         inkscape:connector-curvature="0"
         class="bubble1" />
      <path
         id="path3105-8"
         d="m 372.77124,551.17837 c -1.86348,-0.70737 -2.84719,-2.23597 -2.84719,-4.42428 0,-2.77382 1.82145,-4.58556 4.58752,-4.56309 2.12877,0.0173 3.32054,0.69883 4.26888,2.44125 0.5142,0.94474 0.55623,1.16498 0.43963,2.30313 -0.21516,2.10007 -0.88636,3.22361 -2.41463,4.04189 -0.95566,0.51169 -2.95362,0.61128 -4.03421,0.2011 z"
         style="fill:#201e1d;fill-opacity:1"
         inkscape:connector-curvature="0"
         class="bubble2" />
      <path
         id="path3103-0"
         d="m 376.69489,536.89659 c -1.53154,-0.80885 -2.06735,-2.19008 -1.67735,-4.324 0.16199,-0.88642 1.07276,-1.89161 2.05084,-2.26348 0.65523,-0.24912 2.10064,-0.23588 2.79419,0.0256 2.67582,1.00883 3.03304,5.03237 0.57468,6.47306 -1.06661,0.62508 -2.65559,0.66279 -3.74236,0.0888 z"
         style="fill:#201e1d;fill-opacity:1"
         inkscape:connector-curvature="0"
         class="bubble3" />
      <path
         id="path3099-6"
         d="m 370.57354,526.15392 c -1.9069,-0.94007 -1.93557,-4.24457 -0.0451,-5.20115 0.27097,-0.13711 0.99382,-0.25061 1.60634,-0.25223 0.97527,-0.003 1.2083,0.0789 1.87516,0.65533 0.67689,0.58512 0.77171,0.78151 0.85349,1.76762 0.0661,0.79751 -0.006,1.31615 -0.25706,1.84495 -0.63151,1.3308 -2.5776,1.90287 -4.03281,1.18548 z"
         style="fill:#201e1d;fill-opacity:1"
         inkscape:connector-curvature="0"
         class="bubble4" />
    </g>
  </g>
</svg>
