<?xml version="1.0" encoding="UTF-8" standalone="no"?>
<!-- Created with Inkscape (http://www.inkscape.org/) -->

<svg
   xmlns:dc="http://purl.org/dc/elements/1.1/"
   xmlns:cc="http://creativecommons.org/ns#"
   xmlns:rdf="http://www.w3.org/1999/02/22-rdf-syntax-ns#"
   xmlns:svg="http://www.w3.org/2000/svg"
   xmlns="http://www.w3.org/2000/svg"
   xmlns:sodipodi="http://sodipodi.sourceforge.net/DTD/sodipodi-0.dtd"
   xmlns:inkscape="http://www.inkscape.org/namespaces/inkscape"
   width="100"
   height="100"
   id="svg3101"
   version="1.1"
   inkscape:version="0.48.5 r10040"
   sodipodi:docname="mobile2.svg">
  <defs
     id="defs3103" />
  <sodipodi:namedview
     id="base"
     pagecolor="#ffffff"
     bordercolor="#666666"
     borderopacity="1.0"
     inkscape:pageopacity="0.0"
     inkscape:pageshadow="2"
     inkscape:zoom="3.959798"
     inkscape:cx="92.33181"
     inkscape:cy="70.066168"
     inkscape:document-units="px"
     inkscape:current-layer="layer1"
     showgrid="false"
     fit-margin-top="0"
     fit-margin-left="0"
     fit-margin-right="0"
     fit-margin-bottom="0"
     inkscape:window-width="1600"
     inkscape:window-height="831"
     inkscape:window-x="-2"
     inkscape:window-y="-3"
     inkscape:window-maximized="1" />
  <metadata
     id="metadata3106">
    <rdf:RDF>
      <cc:Work
         rdf:about="">
        <dc:format>image/svg+xml</dc:format>
        <dc:type
           rdf:resource="http://purl.org/dc/dcmitype/StillImage" />
      </cc:Work>
    </rdf:RDF>
  </metadata>
  <g
     inkscape:label="Layer 1"
     inkscape:groupmode="layer"
     id="layer1"
     transform="translate(-421.31891,-507.47635)">
    <g
       transform="matrix(0.85305554,0,0,0.85305554,443.7239,515.34052)"
       id="mobile-tablet"
       style="fill:#201e1d">
      <g
         id="g103"
         style="fill:#201e1d">
        <path
           inkscape:connector-curvature="0"
           d="M 83.732,2 H 15.36 C 14.609,2 14,2.61 14,3.361 v 92.067 c 0,0.752 0.61,1.36 1.361,1.36 h 68.374 c 0.75,0 1.359,-0.608 1.359,-1.36 V 3.361 C 85.094,2.61 84.484,2 83.732,2 z M 49.546,5.511 c 0.601,0 1.088,0.487 1.088,1.088 0,0.601 -0.488,1.088 -1.088,1.088 -0.6,0 -1.087,-0.487 -1.087,-1.088 0,-0.601 0.487,-1.088 1.087,-1.088 z m 0,87.77 c -1.148,0 -2.08,-0.932 -2.08,-2.078 0,-1.148 0.931,-2.081 2.08,-2.081 1.149,0 2.079,0.933 2.079,2.081 0,1.147 -0.93,2.078 -2.079,2.078 z m 31.416,-9.129 c 0,0.752 -0.608,1.359 -1.36,1.359 h -60.11 c -0.751,0 -1.36,-0.607 -1.36,-1.359 V 12.717 c 0,-0.751 0.608,-1.36 1.36,-1.36 h 60.109 c 0.752,0 1.36,0.609 1.36,1.36 v 71.435 l 0.001,0 z"
           id="path105"
           style="fill:#201e1d"
           class="mobile-tablet" />
      </g>
    </g>
    <g
       transform="matrix(0.50069744,0,0,0.50069744,414.5486,547.88288)"
       id="mobile-phone"
       style="fill:#201e1d"
       inkscape:transform-center-y="-25.01159">
      <path
         inkscape:connector-curvature="0"
         d="M 68.171,0 H 31.786 c -4.559,0 -8.268,3.708 -8.268,8.267 v 83.372 c 0,4.56 3.708,8.268 8.268,8.268 h 36.385 c 4.559,0 8.268,-3.708 8.268,-8.268 V 8.267 C 76.438,3.708 72.729,0 68.171,0 z M 45.362,2.277 h 9.233 c 0.404,0 0.733,0.328 0.733,0.734 0,0.405 -0.329,0.734 -0.733,0.734 h -9.233 c -0.406,0 -0.734,-0.329 -0.734,-0.734 0,-0.406 0.328,-0.734 0.734,-0.734 z m 10.235,92.908 c 0,0.898 -0.728,1.626 -1.626,1.626 h -7.985 c -0.898,0 -1.627,-0.728 -1.627,-1.626 v -0.757 c 0,-0.898 0.729,-1.626 1.627,-1.626 h 7.985 c 0.898,0 1.626,0.728 1.626,1.626 v 0.757 z M 73.411,91.26 H 26.545 V 8.884 H 73.411 V 91.26 z"
         id="path114"
         style="fill:#201e1d"
         class="mobile-phone" />
    </g>
  </g>
</svg>
