<?xml version="1.0" encoding="UTF-8" standalone="no"?>
<svg
   xmlns:dc="http://purl.org/dc/elements/1.1/"
   xmlns:cc="http://creativecommons.org/ns#"
   xmlns:rdf="http://www.w3.org/1999/02/22-rdf-syntax-ns#"
   xmlns:svg="http://www.w3.org/2000/svg"
   xmlns="http://www.w3.org/2000/svg"
   xmlns:sodipodi="http://sodipodi.sourceforge.net/DTD/sodipodi-0.dtd"
   xmlns:inkscape="http://www.inkscape.org/namespaces/inkscape"
   version="1.1"
   id="Layer_1"
   x="0px"
   y="0px"
   width="100px"
   height="100px"
   viewBox="5.0 -10.0 100.0 135.0"
   enable-background="new 0 0 100 100"
   xml:space="preserve"
   inkscape:version="0.48.5 r10040"
   sodipodi:docname="target.svg"><metadata
     id="metadata31"><rdf:RDF><cc:Work
         rdf:about=""><dc:format>image/svg+xml</dc:format><dc:type
           rdf:resource="http://purl.org/dc/dcmitype/StillImage" /></cc:Work></rdf:RDF></metadata><defs
     id="defs29" /><sodipodi:namedview
     pagecolor="#ffffff"
     bordercolor="#666666"
     borderopacity="1"
     objecttolerance="10"
     gridtolerance="10"
     guidetolerance="10"
     inkscape:pageopacity="0"
     inkscape:pageshadow="2"
     inkscape:window-width="1600"
     inkscape:window-height="831"
     id="namedview27"
     showgrid="false"
     inkscape:zoom="2.36"
     inkscape:cx="27.542373"
     inkscape:cy="47.983941"
     inkscape:window-x="-2"
     inkscape:window-y="-3"
     inkscape:window-maximized="1"
     inkscape:current-layer="Layer_1" /><g
     id="g3798"
     style="fill:#f9f9f9;fill-opacity:1"><path
       id="path3"
       d="m 73.091875,50.155312 7.561,-4.21 c -1.311,-2.171999 -2.838,-4.25 -4.594,-6.197 l -6.191,6.053 c 1.214,1.378 2.288,2.835 3.224,4.354 z"
       inkscape:connector-curvature="0"
       style="fill:#f9f9f9;fill-opacity:1" /><path
       id="path5"
       d="m 68.487875,89.391313 c -12.447,12.447997 -32.625,12.447997 -45.072,0.001 -12.446,-12.446 -12.446,-32.625 0,-45.071001 9.582,-9.581999 23.743,-11.778 35.434,-6.608 l 3.869,-7.742 c -14.932,-6.784 -33.133,-4.042 -45.414,8.239 -15.821,15.822 -15.821,41.472001 0,57.293001 15.821,15.819997 41.472,15.820997 57.294,0 12.456,-12.456 15.098,-31.004 7.939,-46.052001 l -7.647,4.041001 c 5.44,11.778 3.305,26.191 -6.403,35.899 z"
       inkscape:connector-curvature="0"
       style="fill:#f9f9f9;fill-opacity:1" /><path
       id="path7"
       d="m 67.196875,43.104312 6.05,-6.18 c -2.181,-1.991 -4.525,-3.699 -6.989,-5.128 l -4.036,7.65 c 1.745,1.038 3.412,2.257 4.975,3.658 z"
       inkscape:connector-curvature="0"
       style="fill:#f9f9f9;fill-opacity:1" /><path
       id="path9"
       d="m 56.646875,77.553313 c -5.907,5.905 -15.482,5.905 -21.389,0 -5.907,-5.907 -5.907,-15.482001 0,-21.390001 4.35,-4.35 10.687,-5.485 16.086,-3.427 l 3.875,-7.756 c -8.65,-3.66 -19.023,-1.979 -26.073,5.071 -9.282,9.282 -9.282,24.331 0,33.612001 9.282,9.281999 24.33,9.281999 33.612,0 7.131,-7.132001 8.761,-17.658 4.935,-26.367001 l -7.661,4.048 c 2.12,5.425 0.997,11.826 -3.385,16.209001 z"
       inkscape:connector-curvature="0"
       style="fill:#f9f9f9;fill-opacity:1" /><path
       id="path11"
       d="m 57.855875,57.544312 c 0.199,0.254 0.391,0.512 0.571,0.776 l 7.569,-4.214999 c -0.578,-0.908 -1.228,-1.781 -1.942,-2.621 l -6.198,6.06 z"
       inkscape:connector-curvature="0"
       style="fill:#f9f9f9;fill-opacity:1" /><path
       id="path13"
       d="m 61.504875,48.918312 c -0.979,-0.851 -2.008,-1.607999 -3.082,-2.271 l -4.04,7.658 c 0.367,0.247 0.727,0.508001 1.076,0.791 l 6.046,-6.178 z"
       inkscape:connector-curvature="0"
       style="fill:#f9f9f9;fill-opacity:1" /><path
       id="path15"
       d="m 44.764875,66.971312 c -0.054,-0.093 -0.095,-0.188 -0.121,-0.289 -0.108,-0.431 0.099,-0.75 0.123,-0.785 l 2.732,-5.467999 c -1.987,-0.37 -4.117,0.212 -5.654,1.75 -2.479,2.478 -2.479,6.497 0,8.975 2.479,2.479 6.497,2.479 8.976,0 1.586,-1.587001 2.152,-3.805 1.707,-5.845 l -5.572,2.943 c -0.007,0.006 -0.206,0.126 -0.496,0.126 -0.242,0 -0.56,-0.087 -0.876,-0.409001 -0.11,-0.079 -0.219,-0.17 -0.329,-0.278999 -0.239,-0.242001 -0.398,-0.481001 -0.49,-0.719001 z"
       inkscape:connector-curvature="0"
       style="fill:#f9f9f9;fill-opacity:1" /><path
       id="path17"
       d="m 50.383875,60.280312 21.794,-41.316 0.242,0.015 c 0,0 10e-4,0 0.002,0 0.5,0 4.445,-0.203 7.146,-6.797999 -0.469,-0.267001 -1.044,-0.401 -1.714,-0.401 -1.81,0 -3.679,0.974 -3.697,0.983 l -0.523,0.276 -0.026,-0.591 c -0.001,-0.038 -0.187,-3.6400005 -2.543,-4.8170005 -4.052,6.3210005 -1.574,9.9359995 -1.548,9.9719995 l 0.131,0.184 -0.102,0.202 -23.199,46.415001 4.037,-4.124001 z"
       inkscape:connector-curvature="0"
       style="fill:#f9f9f9;fill-opacity:1" /><path
       id="path19"
       d="m 48.729875,66.467313 45.9,-24.251001 0.191,0.146 c 0.011,0.008 1.072,0.799 3.057,0.799 2.041,0 4.287995,-0.8 6.682995,-2.379 -1.02899,-2.114 -4.759995,-2.567 -4.798995,-2.571 l -0.588,-0.068 0.312,-0.503 c 0.02,-0.032 1.900005,-3.111 0.619995,-5.411 -6.911995,2.933 -6.905995,7.316 -6.904995,7.36 l 0.005,0.225 -39.981,22.258 -4.495,4.395 z"
       inkscape:connector-curvature="0"
       style="fill:#f9f9f9;fill-opacity:1" /><path
       id="path21"
       d="m 45.525875,66.310313 c -0.037,0.033 -0.104,0.097 -0.107,0.211 -0.005,0.169 0.125,0.396 0.367,0.637999 0.243,0.242001 0.475,0.375 0.653,0.375 0.126,0 0.197,-0.067 0.204,-0.075 l 38.853,-37.986 0.226,0.085 c 0.005,0.002 0.486,0.181 1.299,0.181 1.443,0 4.325,-0.587 7.591,-4.463 -1.566,-1.71 -5.315,-1.105 -5.331,-1.102 l -0.582,0.101 0.156,-0.57 c 0.01,-0.036 0.938,-3.523 -0.944,-5.365 -5.794,4.775 -4.544,8.976 -4.53,9.018 l 0.068,0.215 -0.158,0.161 -37.765,38.576001 z"
       inkscape:connector-curvature="0"
       style="fill:#f9f9f9;fill-opacity:1" /></g></svg>