<svg width="300" height="57" viewBox="0 0 300 57" xmlns="http://www.w3.org/2000/svg"><title>cropster_4c_ohne</title><g fill="none" fill-rule="evenodd"><path d="M61.886 25.662c0 8.206 4.33 11.89 10.208 11.89 2.714 0 5.362-.647 7.624-2.26l1.81 4.78c-3.296 2.26-6.978 3.294-11.76 3.294-8.852 0-15.895-5.75-15.895-16.928 0-9.305 7.3-16.605 17.252-16.605 4.135 0 7.107.58 10.015 1.744l-1.874 5.234c-2.067-.97-4.716-1.615-7.43-1.615-6.268 0-9.95 4.07-9.95 10.467M103.818 9.833c1.68 0 2.714.128 3.748.646l-2.39 8.075c-1.164-.387-2.134-.58-3.49-.58-2.52 0-4.78 1.16-6.655 4.134-.193 2.26-.322 5.168-.322 9.044 0 3.36.064 7.43.323 11.502h-8.27c.323-6.01.388-9.757.388-15.895 0-6.59-.065-9.885-.387-16.152h7.108l.904 6.655c2.133-5.04 5.816-7.43 9.046-7.43M125.88 14.937c-5.62 0-8.85 4.78-8.85 11.695 0 6.85 3.23 11.694 8.85 11.694 5.687 0 8.917-4.78 8.917-11.694 0-6.914-3.295-11.695-8.916-11.695zm0-5.104c10.403 0 17.06 6.784 17.06 16.41 0 9.5-6.98 17.123-17.06 17.123-10.466 0-16.927-6.655-16.927-16.346 0-9.628 6.85-17.187 16.928-17.187zM165.1 15.906c-3.36 0-5.75 1.615-7.496 4.458-.13 2.003-.193 4.653-.193 7.173 0 3.876.065 8.205.194 9.82 1.68.775 3.23 1.035 5.687 1.035 5.75 0 9.692-4.2 9.692-11.63 0-7.496-3.037-10.856-7.883-10.856zM149.462 57c.324-9.693.39-14.41.39-24.424 0-9.175-.066-12.858-.39-21.968h7.366l.71 5.233c2.52-4.134 6.59-6.007 10.79-6.007 6.85 0 12.6 5.17 12.6 15.184 0 10.466-7.043 18.35-18.157 18.35-2.067 0-4.134-.26-5.49-.517 0 4.263.192 9.368.45 14.15h-8.27zM208 16.552c-2.39-.904-5.038-1.42-8.01-1.42-4.846 0-6.462 1.355-6.462 3.23 0 1.55.84 2.713 4.46 3.94l3.94 1.55c6.267 2.327 8.53 5.17 8.53 9.887 0 5.75-5.364 9.626-12.73 9.626-5.75 0-9.304-.905-12.405-2.52l1.55-5.17c2.908 1.552 6.526 2.456 10.015 2.456 4.46 0 6.267-1.55 6.267-3.683 0-1.938-.904-3.102-5.427-4.782l-3.94-1.485c-4.976-1.745-7.56-4.46-7.56-9.11 0-5.17 4.846-9.24 13.31-9.24 4.07 0 6.978.388 10.014 1.486l-1.55 5.232M227.126 15.906c0 6.203-.258 12.73.13 17.122.258 3.102 2.455 4.523 4.716 4.523 2.26 0 3.877-.386 5.492-1.42l1.615 4.522c-2.39 1.745-5.88 2.714-9.757 2.714-5.62 0-9.82-3.812-9.82-10.854 0-4.846.258-11.243.258-16.606h-5.298v-5.298h5.363c0-3.102 0-5.233-.13-8.14L227.773.72c-.387 3.424-.517 6.85-.517 9.886h10.08v5.298h-10.21M249.676 22.95h15.377c-.517-5.75-2.972-8.272-7.56-8.272-4.587 0-7.43 3.23-7.817 8.27zm10.983 14.6c3.81 0 7.494-1.226 10.014-3.165l1.81 4.975c-3.554 2.714-7.69 4.006-13.44 4.006-9.628 0-16.993-6.138-16.993-17.187 0-9.887 6.527-16.347 16.024-16.347 8.4 0 14.41 5.298 14.41 15.12 0 .968 0 1.743-.065 2.713h-22.68c.517 6.783 4.652 9.885 10.92 9.885zM296.066 9.833c1.68 0 2.715.128 3.747.646l-2.39 8.075c-1.162-.387-2.132-.58-3.488-.58-2.52 0-4.782 1.16-6.655 4.134-.195 2.26-.323 5.168-.323 9.044 0 3.36.064 7.43.323 11.502h-8.27c.322-6.01.386-9.757.386-15.895 0-6.59-.064-9.885-.387-16.152h7.107l.904 6.655c2.133-5.04 5.816-7.43 9.046-7.43" fill="#FFF"/><path d="M39.44 26.835c-5.148.436-18.966 1.322-18.966 1.322s.46-1.19.468-2.616c.012-2.024-.05-17.148-.05-17.148s-.2-2.03.752-3.846h-9.356s-9.475.03-10.032 8.346C1.693 21.286 0 44.7 0 44.7s1.864-.875 3.46-1.25c.262-.06.798-.116 2.087-.14 6.228-.107 23.722.03 25.708.008 1.713-.02 10.03-.117 10.656-9.84.136-2.09.275-4.817.412-7.784-.707.598-1.64 1.036-2.88 1.14" fill="#79BB42"/><path d="M44.9 3c-.004 2.032.166 11.657-.046 13.81-.082.825-.01 4.847-4.073 5.11-4.192.274-15.267 1.065-15.267 1.065s.297-.513.336-1.94c.04-1.49 0-13.968 0-13.968s-.532-4.976 4.887-5.355C36.833 1.296 45.33.6 45.33.6S44.9 2.268 44.9 3" fill="#009A48"/></g></svg>