<svg xmlns="http://www.w3.org/2000/svg" xmlns:xlink="http://www.w3.org/1999/xlink" width="100" height="1100" viewBox="0 0 100 1100"><svg width="100" height="100" viewBox="0 0 100 100" id="blueprint" y="0"><g transform="translate(-.226 -.116)" fill="#f9f9f9"><path d="M45.866 67.892L27.25 47.67c-.262-.282-.657-.38-1.01-.248-.36.126-.604.454-.625.832L24.51 67.36c-.025.448.266.84.68.96.065.02.136.03.206.032l19.723 1.12c.38.022.74-.19.904-.536.164-.35.1-.76-.158-1.044zm-8.27-.49c-.143.5-.665.788-1.165.647-.498-.145-.788-.665-.643-1.166l.546-1.9-4.27-1.222-.547 1.9c-.145.5-.665.79-1.163.647-.5-.143-.79-.664-.645-1.163l.543-1.903-3.043-.87c-.5-.143-.79-.664-.645-1.164.142-.5.663-.79 1.163-.646l3.046.87 1.2-4.18c.143-.5.665-.788 1.163-.646.5.144.79.665.646 1.166l-1.2 4.18 4.27 1.22.2-.69c.143-.5.663-.79 1.164-.647.5.142.788.663.646 1.164l-1.263 4.402z"/><path d="M55.656 43.492l1.267-4.41-4.274-1.223-1.265 4.41z"/><path d="M54.434 31.632l4.273 1.222-1.264 4.416-4.272-1.223z"/><path d="M53.872 49.715l1.266-4.41-4.272-1.222-1.267 4.41z"/><path d="M50.136 23.673l4.272 1.222-1.263 4.412-4.27-1.222z"/><path d="M48.353 29.894l4.267 1.22-1.263 4.416-4.267-1.22z"/><path d="M59.23 31.045l1.263-4.413-4.272-1.22-1.266 4.41z"/><path d="M65.308 32.784l1.267-4.413-4.272-1.22-1.267 4.412z"/><path d="M60.516 33.372l4.272 1.22-1.26 4.416-4.274-1.22z"/><path d="M58.73 39.597l4.274 1.22-1.26 4.412-4.273-1.222z"/><path d="M59.953 51.454l1.267-4.412-4.27-1.22-1.268 4.41z"/><path d="M45.278 33.792l1.267-4.415-4.272-1.22-1.267 4.413z"/><path d="M31.895 18.453l4.27 1.22-1.262 4.414-4.27-1.22z"/><path d="M25.812 16.717l4.274 1.222-1.262 4.413-4.274-1.222z"/><path d="M87.384 13.7c-6.757-1.933-10.802-.774-10.974-.724-.307.093-.546.334-.635.645l-3.24 11.292-50.132-14.335c-.5-.143-1.02.147-1.163.647L18.666 20.2l-2.756-2.993c-.258-.28-.657-.38-1.01-.246-.357.126-.6.455-.623.833L12.99 39.98 4.32 70.214c-.143.5.146 1.02.645 1.165l6.108 1.745-.342 5.92c-.025.45.267.842.677.96.067.02.138.03.21.034l29.488 1.672 24.74 7.075C76.6 91.86 78.18 86.347 79.03 83.382l14.75-51.414 2.172-7.577c1.074-3.743-1.838-8.765-8.568-10.69zm-63.12 1.592c.144-.5.665-.79 1.165-.646L68 26.818c.497.145.788.666.644 1.165L59.147 61.1c-.145.5-.666.79-1.167.647-.498-.145-.787-.666-.645-1.165l2.1-7.317-4.272-1.22-1.062 3.7c-.144.5-.663.79-1.162.646-.5-.142-.79-.663-.647-1.163l1.063-3.7-5.177-1.48c-.5-.144-.79-.664-.645-1.165l1.526-5.318-4.272-1.22-.743 2.59c-.143.5-.665.79-1.165.646-.5-.143-.787-.663-.644-1.163l.743-2.592-5.174-1.48c-.5-.143-.79-.665-.647-1.163l1.525-5.318-4.273-1.223-.48 1.676c-.143.5-.664.79-1.164.648-.5-.143-.788-.665-.644-1.165l2.265-7.902-4.268-1.22-1.232 4.293c-.143.5-.664.792-1.165.65-.5-.146-.79-.667-.645-1.166l1.23-4.295-4.993-1.43c-.067-.003-.13.004-.193-.014-.5-.143-.79-.665-.647-1.165l1.798-6.258zM11.062 68.148c-.14.5-.662.788-1.162.646-.5-.144-.79-.665-.646-1.166l1.026-3.574c.143-.498.665-.79 1.163-.646.502.142.79.663.647 1.164l-1.026 3.576zm1.605 10.063l3.364-58.09 7.123 7.74-2.105 1.88c-.39.346-.423.94-.077 1.33.124.14.277.23.443.277.3.086.638.02.887-.202l2.13-1.9 2.41 2.618-2.118 1.89c-.39.347-.423.942-.077 1.33.124.14.277.23.442.278.3.087.64.02.887-.2l2.14-1.912 2.413 2.62-2.13 1.9c-.388.346-.42.942-.076 1.33.126.138.28.23.443.278.3.086.638.02.888-.203l2.15-1.92 2.412 2.62-2.14 1.91c-.39.344-.422.94-.075 1.328.122.14.276.232.44.28.302.086.637.02.888-.203l2.16-1.93 2.413 2.62-2.15 1.918c-.388.345-.423.942-.078 1.33.123.138.278.23.442.276.3.086.638.022.888-.2l2.17-1.94 2.413 2.622-2.16 1.927c-.39.346-.422.94-.077 1.33.124.138.277.23.44.277.302.086.64.02.888-.202l2.182-1.948 2.412 2.618-2.17 1.938c-.388.346-.422.94-.077 1.33.124.14.28.23.443.277.3.085.638.02.887-.202l2.194-1.957 2.41 2.62-2.178 1.945c-.39.347-.422.942-.077 1.33.122.137.277.23.44.278.3.085.638.02.887-.204l2.202-1.964 2.41 2.618-2.192 1.954c-.388.347-.424.942-.077 1.33.124.14.277.232.442.278.3.085.637.02.888-.202l2.214-1.977 2.41 2.62-2.2 1.965c-.39.347-.422.94-.076 1.328.122.14.277.23.44.28.302.086.64.02.888-.205l2.224-1.983 2.558 2.78-1.304 4.55c-.096.33-.004.684.24.924.24.243.596.333.928.237.025-.006 1.93-.51 5.23-.178l7.383 8.018-59.97-3.402zm65.78.395c-1.243-2.46-3.916-4.753-7.98-5.915-4.364-1.247-7.598-1.207-9.386-1.008l16.35-57.005c1.193-.21 4.537-.567 9.435.832 6.168 1.764 7.97 5.953 7.277 8.363L78.445 78.605z"/><path d="M36.188 26.417l4.272 1.22-1.263 4.418-4.272-1.222z"/><path d="M40.985 25.827l1.264-4.41-4.274-1.223-1.266 4.41z"/><path d="M47.064 27.567l1.266-4.413-4.272-1.22-1.266 4.41z"/><path d="M49.574 41.753l1.266-4.412-4.27-1.22-1.267 4.412z"/><path d="M40.485 34.383l4.272 1.222-1.262 4.412-4.27-1.22z"/></g></svg><svg width="100" height="100" viewBox="0 0 100 100" id="blueprint2" y="100"><path d="M93.546 63.687L77.48 24.9c-.963-2.613-3.484-4.368-6.273-4.368h-1.063l3.87 11.03c-.81.525-1.773.832-2.807.832H28.792c-1.032 0-1.994-.307-2.804-.83l3.87-11.032H28.79c-2.785 0-5.306 1.755-6.26 4.34L6.454 63.687C5.504 65.292 5 67.132 5 69.005c0 5.77 4.693 10.463 10.46 10.463h69.08c5.768 0 10.46-4.693 10.46-10.463 0-1.873-.5-3.71-1.454-5.318zm-9.006 14.27H15.46c-4.937 0-8.952-4.013-8.952-8.952 0-1.62.44-3.208 1.27-4.59v-.005c1.61-2.684 4.553-4.356 7.682-4.356h.534l9.482-27.035c.978.56 2.11.883 3.316.883h42.414c1.207 0 2.34-.324 3.315-.884l9.485 27.034h.534c3.175 0 6.05 1.63 7.682 4.358.83 1.384 1.268 2.973 1.268 4.593 0 4.94-4.015 8.953-8.95 8.953z" class="blueprint-paper" fill="#3f1f10"/><path d="M64.46 36.4c-4.306 0-7.48 2.75-7.085 6.142.307 2.673 3.058 4.94 6.687 5.782l.82 4.448-6.877.006c-1.53-2.38-5.043-4.09-8.988-4.086-3.946.004-7.416 1.718-8.89 4.103l-13.207.013-1.963 8.562c-4.256.85-7.848 3.125-8.645 5.802-1.012 3.398 3.363 6.148 9.777 6.136 6.41-.01 11.862-2.773 12.172-6.168.244-2.674-2.463-4.94-6.39-5.78l.718-4.46 7.185-.01c1.192 2.387 4.89 4.094 9.388 4.088 4.498-.007 8.152-1.72 9.29-4.106l13.796-.016-2.166-8.537c3.254-.848 5.013-3.115 4.15-5.785-1.094-3.388-5.47-6.134-9.775-6.134zM33.383 67.147c-.26 1.886-3.294 3.423-6.764 3.43-3.47.004-5.907-1.523-5.432-3.41.476-1.886 3.508-3.424 6.764-3.43 3.253-.003 5.692 1.528 5.433 3.41zm15.745-8.898c-3.08.003-5.516-1.525-5.43-3.41.085-1.882 2.484-3.414 5.348-3.418 2.865-.002 5.303 1.527 5.43 3.41.133 1.88-2.268 3.414-5.348 3.418zM66.552 45.95c-2.692.002-5.127-1.53-5.43-3.41-.306-1.88 1.46-3.41 3.934-3.41 2.475 0 4.913 1.527 5.432 3.407.52 1.88-1.246 3.41-3.936 3.413z" class="blueprint-design" fill="#21b899"/></svg><svg width="100" height="100" id="flask" y="200"><g transform="matrix(.515 0 0 .515 -328.205 -400.795)" fill="#f9f9ff"><path d="M727.783 963.42c-7.584-1.39-10.89-2.383-15.818-4.75-5.405-2.598-9.54-5.57-14.156-10.178-5.824-5.81-9.222-11.047-12.152-18.723-2.247-5.892-2.806-9.43-2.803-17.763.002-5.96.13-7.95.657-10.22.36-1.55.676-3.136.702-3.524.026-.388.143-.784.26-.88.117-.098.495-1.05.84-2.115.61-1.883 4.3-9.866 4.727-10.22.117-.097.803-1.048 1.525-2.114 1.344-1.985 1.757-2.502 4.94-6.173 3.05-3.52 8.934-7.954 14.1-10.627l3.082-1.595v-34.292l-1.717-.788c-2.112-.97-3.696-2.533-4.907-4.847-.79-1.51-.925-2.212-.937-4.932-.02-3.863.78-5.728 3.526-8.233 2.957-2.697 3.834-2.872 14.45-2.87l9.18.002-.013 1.85c-.01 1.018.103 2.28.247 2.803l.262.953-9.317.105c-8.77.098-9.373.147-10.288.83-2.512 1.877-3.154 4.277-1.83 6.85.97 1.89 2.707 2.876 5.47 3.105l1.863.155v43.158l-3.16 1.308c-5.823 2.414-11.492 6.357-15.87 11.037-8.007 8.557-12.328 19.533-12.332 31.32 0 2.157.093 4.395.21 4.973.207 1.04.236 1.053 3.082 1.258 2.828.205 6.82 1.305 10.05 2.768 1.72.78 3.465 1.586 11.51 5.322 5.08 2.36 7.546 3.163 8.12 2.81.187-.117.323 1.076.323 2.83v3.033l-1.32-.24c-3.047-.553-5.26-1.653-11.713-5.17-1.162-.635-3.065-1.667-4.228-2.295l-4.935-2.663c-3.505-1.892-5.88-2.83-8.27-3.263l-1.85-.337.23 1.442c.32 1.993 1.798 6.306 3.102 9.048 3.884 8.164 10.843 15.75 18.543 20.22 4.01 2.325 4.397 2.42 6.692 1.647 1.102-.37 3.572-.995 5.49-1.387 1.92-.392 2.644-1.09 3.778-1.17l18.19.962c.918.125 3.158.612 4.978 1.083l3.31.856 2.33-1.275c3.657-2.003 6.653-4.25 10.02-7.52 2.993-2.904 6.932-7.64 6.932-8.335 0-.184-1.863-.696-4.14-1.137-2.278-.44-5.965-1.19-8.194-1.664-5.003-1.065-8.803-1.118-12.358-.173-1.44.384-2.738.702-2.883.706-.145.005-.264-.99-.264-2.21v-2.22l2.474-.423c5.938-1.02 9.394-.43 20.887 3.562l5.565 1.932 1.227-2.437c3.827-7.598 5.543-16.46 4.74-24.472-.816-8.14-3.195-14.87-7.72-21.826-2.05-3.156-8.997-10.12-12.194-12.228-3.072-2.025-7.252-4.184-7.64-3.945-.16.098-.29.028-.29-.156s-.396-.435-.88-.556l-.88-.22v-43.905l1.76-.45c2.577-.66 4.23-2.664 4.228-5.12-.002-2.372-.963-3.92-2.99-4.817-1.453-.643-1.54-.756-1.224-1.585.186-.49.34-1.767.34-2.835v-1.944l1.144.25c5.69 1.23 9.518 7.154 8.375 12.965-.532 2.708-2.354 5.52-4.424 6.832l-1.545.978-.005 17.796-.006 17.798 2.775 1.478c4.118 2.192 8.54 5.49 12.15 9.062 1.765 1.745 3.3 3.15 3.414 3.12.112-.03.207.136.21.367.002.368 3.086 5.06 3.634 5.53.692.595 4.296 8.503 5.22 11.454 1.86 5.934 2.33 9.166 2.323 16.033-.006 6.547-.38 9.2-2.14 15.153-.774 2.62-4.813 11.42-5.353 11.982-.027.028-2.514 3.495-2.514 3.688 0 .306-3.104 3.67-5.865 6.355-6.682 6.5-15.66 11.28-25.147 13.387-2.568.57-14.813 1.058-16.915.673z"/><path d="M769.107 923.816c-2.784-.918-4.28-3.012-4.29-6.006-.014-3.65 2.513-6.153 6.22-6.16 1.83-.002 2.876.39 4.31 1.625 1.393 1.2 1.96 2.848 1.792 5.205-.144 2.006-.965 3.453-2.617 4.614-.85.598-1.347.74-2.904.826-1.034.058-2.165.01-2.513-.104z"/><path d="M743.557 952.104v-24.152l13.272.328c3.35.082 6.11-1.61 6.11-3.61v-27.357c0-2.053-2.724-3.72-6.013-3.72-3.292 0-5.915 1.667-5.915 3.72v23.745h-7.258V876.82c0-3.667-4.267-6.565-9.563-6.565h.002c-5.288 0-9.563 2.898-9.563 6.566v26.262h-6.102v-10.176c0-1.396-1.802-2.517-4.042-2.517-2.232 0-4.042 1.12-4.042 2.516v12.802c0 1.44 2.058 2.627 4.535 2.627h9.65v43.77"/><path d="M732.877 840.728c-3.293-1.25-5.03-3.95-5.03-7.816 0-4.9 3.217-8.102 8.104-8.062 3.762.03 5.868 1.234 7.543 4.313.91 1.67.983 2.058.777 4.07-.38 3.71-1.566 5.694-4.266 7.14-1.688.904-5.218 1.08-7.127.355z"/><path d="M739.81 815.496c-2.707-1.43-3.654-3.87-2.965-7.64.287-1.566 1.896-3.342 3.624-4 1.156-.44 3.71-.415 4.935.046 4.728 1.783 5.36 8.89 1.016 11.437-1.884 1.103-4.69 1.17-6.61.156z"/><path d="M728.994 796.516c-3.37-1.66-3.42-7.5-.08-9.19.48-.24 1.756-.442 2.838-.445 1.723-.004 2.135.14 3.313 1.16 1.196 1.033 1.364 1.38 1.508 3.122.117 1.41-.01 2.325-.454 3.26-1.117 2.35-4.555 3.36-7.126 2.094z"/></g></svg><svg width="100" height="100" id="flask2" y="300"><g transform="translate(-323.569 -520.7)" fill="#201e1d"><path d="M369.888 620.623c-4.293-.787-6.164-1.35-8.953-2.69-3.06-1.47-5.4-3.152-8.013-5.76-3.295-3.288-5.218-6.252-6.877-10.597-1.272-3.334-1.588-5.337-1.587-10.054 0-3.373.074-4.5.372-5.784.204-.878.383-1.775.398-1.995.015-.22.08-.443.147-.498.066-.055.28-.594.475-1.197.345-1.066 2.435-5.584 2.676-5.784.066-.055.454-.594.863-1.197.76-1.124.993-1.416 2.794-3.494 1.727-1.992 5.058-4.503 7.98-6.015l1.746-.903v-19.41l-.972-.446c-1.195-.55-2.092-1.435-2.777-2.744-.447-.855-.523-1.253-.53-2.792-.01-2.187.442-3.243 1.996-4.66 1.673-1.527 2.17-1.626 8.18-1.624H373l-.007 1.048c-.005.576.06 1.29.14 1.586l.15.54-5.274.06c-4.966.054-5.306.082-5.824.47-1.422 1.06-1.785 2.42-1.037 3.876.55 1.07 1.532 1.628 3.097 1.757l1.054.088v24.427l-1.787.74c-3.297 1.368-6.506 3.6-8.984 6.248-4.532 4.843-6.978 11.055-6.98 17.727 0 1.22.052 2.487.118 2.814.117.59.134.598 1.745.714 1.6.115 3.86.737 5.688 1.566.974.44 1.962.898 6.515 3.012 2.876 1.336 4.272 1.79 4.596 1.59.107-.066.185.61.185 1.603v1.716l-.748-.135c-1.724-.313-2.977-.935-6.63-2.927-.658-.358-1.735-.943-2.393-1.298l-2.792-1.507c-1.985-1.07-3.328-1.602-4.68-1.847l-1.05-.19.132.815c.18 1.13 1.017 3.57 1.756 5.122 2.198 4.62 6.137 8.916 10.495 11.444 2.27 1.317 2.49 1.37 3.788.933.623-.21 2.022-.564 3.107-.786 1.086-.222 1.496-.617 2.138-.662l10.296.544c.52.07 1.788.347 2.818.613l1.873.484 1.318-.722c2.07-1.134 3.766-2.406 5.672-4.256 1.694-1.644 3.924-4.326 3.924-4.72 0-.103-1.056-.392-2.345-.642-1.29-.25-3.376-.673-4.637-.942-2.832-.602-4.983-.632-6.995-.097-.815.216-1.55.396-1.632.398-.08.003-.148-.56-.148-1.25v-1.257l1.4-.24c3.36-.576 5.317-.242 11.822 2.016l3.15 1.094.694-1.38c2.165-4.3 3.137-9.315 2.682-13.85-.46-4.61-1.808-8.416-4.37-12.354-1.16-1.787-5.092-5.728-6.9-6.92-1.74-1.148-4.106-2.37-4.325-2.234-.09.056-.164.016-.164-.088s-.224-.246-.498-.315l-.498-.125V542.43l.997-.255c1.46-.374 2.395-1.507 2.394-2.897 0-1.343-.545-2.22-1.693-2.727-.82-.362-.87-.426-.692-.896.106-.278.192-1 .192-1.605v-1.1l.65.14c3.22.695 5.385 4.05 4.738 7.338-.3 1.533-1.332 3.124-2.504 3.867l-.875.554-.004 10.07-.003 10.074 1.572.837c2.33 1.24 4.833 3.108 6.877 5.13 1 .988 1.868 1.783 1.932 1.766.064-.017.118.077.12.208 0 .208 1.746 2.863 2.057 3.13.392.337 2.432 4.812 2.956 6.483 1.052 3.36 1.317 5.188 1.314 9.075-.003 3.705-.216 5.208-1.21 8.577-.44 1.482-2.726 6.463-3.03 6.78-.017.017-1.424 1.98-1.424 2.088 0 .174-1.757 2.077-3.32 3.597-3.782 3.678-8.864 6.383-14.233 7.577-1.454.323-8.384.598-9.574.38z" class="flask"/><path d="M378.816 614.218v-13.67l7.512.185c1.897.047 3.46-.912 3.46-2.044v-15.484c0-1.162-1.543-2.106-3.404-2.106-1.864 0-3.348.944-3.348 2.106v13.44h-4.108v-25.04c0-2.075-2.415-3.715-5.413-3.715-2.993 0-5.412 1.64-5.412 3.717v14.864h-3.453v-5.76c0-.79-1.02-1.423-2.288-1.423-1.263 0-2.288.634-2.288 1.424v7.247c0 .816 1.165 1.487 2.567 1.487h5.463v24.774"/><g><path d="M393.278 598.207c-1.576-.52-2.423-1.706-2.43-3.4-.006-2.067 1.424-3.483 3.522-3.486 1.037 0 1.628.222 2.44.92.788.68 1.11 1.612 1.014 2.946-.08 1.135-.545 1.955-1.48 2.612-.482.338-.763.418-1.645.467-.585.033-1.225.006-1.422-.058z" class="bubble1"/><path d="M372.77 551.178c-1.862-.707-2.846-2.236-2.846-4.424 0-2.774 1.82-4.585 4.588-4.563 2.128.018 3.32.7 4.268 2.442.515.945.557 1.165.44 2.303-.215 2.1-.886 3.224-2.415 4.042-.955.512-2.953.612-4.034.2z" class="bubble2"/><path d="M376.695 536.897c-1.532-.81-2.067-2.19-1.677-4.324.162-.887 1.072-1.892 2.05-2.264.656-.25 2.1-.237 2.795.025 2.675 1.01 3.033 5.032.574 6.473-1.066.625-2.655.663-3.742.09z" class="bubble3"/><path d="M370.574 526.154c-1.907-.94-1.936-4.245-.046-5.2.27-.138.994-.252 1.607-.253.975-.002 1.208.08 1.875.656.677.585.772.78.853 1.767.067.798-.006 1.317-.257 1.845-.63 1.33-2.577 1.903-4.032 1.186z" class="bubble4"/></g></g></svg><svg width="100" height="100" viewBox="5 -10 100 135" id="global" y="400"><g transform="matrix(1.35 0 0 1.35 3.25 -50.5)" fill="#201e1d"><path d="M38.333 88.414c-2.646-4.637-5.29-9.276-7.938-13.915 0 0-12.247 2.33-10.28 10.012l5.748 22.47c.617 2.414 2.79 4.102 5.278 4.102h14.384c2.49 0 4.66-1.688 5.277-4.1 1.92-7.49 3.833-14.98 5.748-22.472C58.516 76.83 46.268 74.5 46.268 74.5l-7.935 13.914z"/><path d="M26.013 56.52c-.3-.244-.598-.493-.896-.74-.77-.64-1.733-.992-2.733-1.006l-3.642-.043c-1.027-.012-2.028.34-2.824.995-.22.18-.443.362-.664.546-1.09.897-1.68 2.264-1.58 3.67.256 3.732.516 7.464.773 11.195.076 1.113.58 2.153 1.398 2.91l1.827 1.68c1.65 1.516 4.18 1.536 5.853.044l1.907-1.695c.858-.764 1.382-1.836 1.454-2.98l.57-9.032-.25-3.968c-.282-.633-.66-1.13-1.193-1.574z"/><path d="M49.42 58.19l-.24 3.45.6 9.454c.073 1.145.597 2.217 1.454 2.98.636.565 1.27 1.13 1.907 1.694 1.673 1.492 4.202 1.472 5.852-.045l1.828-1.68c.82-.756 1.323-1.796 1.4-2.91.256-3.73.516-7.462.773-11.195.098-1.405-.492-2.77-1.582-3.668-.22-.184-.44-.365-.662-.546-.797-.655-1.797-1.007-2.822-.994-1.215.015-2.43.03-3.644.043-1 .014-1.963.367-2.733 1.007-.298.246-.596.495-.896.74-.562.47-.953.994-1.234 1.67z"/><path d="M62.494 75.527s9.955 1.897 8.355 8.14c-1.56 6.09-3.116 12.176-4.676 18.267-.5 1.962-2.266 3.332-4.29 3.332H54.053c1.713-6.693 3.424-13.386 5.136-20.08.136-.53.23-1.072.273-1.618.04-.547.034-1.095-.028-1.64-.03-.253-.07-.51-.126-.764l-.01-.04c1.066-1.866 2.13-3.728 3.194-5.597z"/><path d="M17.364 81.122c-.118.544-.178 1.1-.187 1.65-.01.813.096 1.624.298 2.413l5.135 20.08H14.78c-2.023 0-3.79-1.37-4.29-3.332-1.56-6.09-3.116-12.177-4.674-18.266-1.598-6.243 8.356-8.14 8.356-8.14l3.192 5.595z"/><path d="M38.333 35c-24.854 0-45 20.145-45 45 0 24.85 20.146 45 45 45s45-20.15 45-45c0-24.855-20.146-45-45-45zM80.55 81.486c-.004.048-.004.097-.007.144-.017.384-.035.77-.06 1.15-.207 3.118-.74 6.122-1.62 9.12-.882 3-2.057 5.813-3.568 8.55-.376.676-.77 1.344-1.182 2-.204.326-.414.648-.628.97-.006.012-.015.068-.04.06-.022-.01-.046-.017-.068-.026-.042-.02-.09-.037-.133-.057-.09-.035-.182-.068-.27-.106l-.542-.21c-1.443-.565-2.897-1.087-4.364-1.576-.073.285-.15.572-.222.858-.158.623-.4 1.185-.74 1.73.998.33 1.984.676 2.968 1.042.49.184.977.365 1.464.557l.184.072c.025.012.076.015.048.05-.02.025-.042.052-.06.077-.08.105-.164.212-.247.312-.164.21-.332.418-.5.625-1.342 1.628-2.784 3.138-4.355 4.55-3.178 2.87-6.597 5.126-10.478 6.93-1.913.89-3.868 1.624-5.894 2.22-.498.147-1 .287-1.503.416l-.19.044c-.032.008-.063.017-.094.02-.018.005-.032.01-.05.014-.022.007.02-.017.027-.024.103-.082.202-.17.303-.256.196-.178.396-.353.588-.53.77-.73 1.486-1.494 2.165-2.31 2.665-3.2 4.702-7.072 6.213-10.91h-2.978c-1.407 3.356-3.28 6.767-5.693 9.545-2.373 2.73-5.542 5.146-9.354 5.62v-9.35h-2.68v9.35c-3.81-.475-6.98-2.892-9.35-5.617-2.415-2.78-4.288-6.19-5.695-9.547h-2.98c1.51 3.838 3.547 7.71 6.214 10.91.677.815 1.39 1.58 2.165 2.306.193.18.388.356.586.533l.303.255c.01.01.055.034.03.026l-.048-.01-.095-.023c-.063-.013-.125-.03-.19-.044-.502-.13-1.003-.267-1.503-.415-2.025-.594-3.977-1.328-5.89-2.22-3.885-1.802-7.303-4.062-10.484-6.93-1.57-1.413-3.01-2.922-4.35-4.55-.172-.206-.338-.415-.503-.626-.083-.1-.163-.207-.247-.313l-.06-.08c-.027-.033.023-.037.047-.05.062-.023.122-.044.182-.07.486-.19.975-.373 1.464-.557.984-.366 1.973-.713 2.968-1.043-.34-.545-.58-1.106-.74-1.73-.072-.285-.146-.572-.22-.857-1.468.49-2.924 1.01-4.366 1.575l-.542.212c-.088.038-.18.07-.267.106-.048.02-.094.038-.138.058-.022.01-.047.017-.068.025-.024.008-.033-.05-.04-.06-.214-.322-.42-.645-.627-.974-.413-.653-.805-1.32-1.18-1.998-1.51-2.736-2.688-5.55-3.57-8.55-.88-2.998-1.413-6.005-1.62-9.12-.023-.382-.043-.77-.06-1.15 0-.048-.003-.097-.004-.144.004-.042-.03-.104.04-.104H3.992c.06-.382.155-.755.284-1.12.13-.37.3-.73.497-1.07.113-.196.237-.39.368-.57h-8.985c-.08 0-.04-.075-.038-.122.016-.433.038-.86.066-1.292.233-3.52.88-6.876 1.964-10.23 1.088-3.355 2.536-6.455 4.41-9.44l.35-.546c.06-.09.12-.184.18-.272l.09-.136c.006-.013.023-.07.045-.062.025.013.05.02.075.033.406.16.81.32 1.216.477.814.31 1.63.614 2.455.91 1.644.576 3.297 1.11 4.972 1.6.016-.965.228-1.815.67-2.68-2.147-.628-4.264-1.335-6.36-2.122-.255-.097-.512-.194-.768-.294-.128-.05-.256-.1-.383-.147-.064-.023-.128-.048-.192-.074-.044-.018-.003-.047.016-.07.02-.026.042-.056.064-.082.34-.44.694-.874 1.053-1.3.73-.862 1.488-1.692 2.283-2.496 3.21-3.24 6.715-5.802 10.776-7.88 2-1.024 4.048-1.874 6.185-2.567.528-.173 1.06-.33 1.596-.485.27-.075.536-.146.802-.216.136-.036.27-.07.403-.103.034-.01.067-.018.1-.025.023-.006.11-.043.073-.01-.056.044-.11.09-.162.136-.857.733-1.647 1.525-2.394 2.37-2.933 3.32-5.132 7.45-6.734 11.52l2.964.034c1.406-3.364 3.278-6.782 5.695-9.565 2.372-2.735 5.547-5.16 9.365-5.64v9.393l2.68-.03v-9.362c3.817.478 6.99 2.902 9.362 5.637 2.42 2.784 4.294 6.205 5.697 9.57l2.966-.036c-1.6-4.07-3.8-8.2-6.73-11.518-.75-.846-1.54-1.638-2.397-2.37-.054-.048-.107-.093-.162-.137-.037-.034.05.003.073.01l.102.024c.133.032.267.066.402.103.267.07.534.14.8.216.536.154 1.067.313 1.596.485 2.14.694 4.19 1.543 6.19 2.568 4.064 2.08 7.566 4.64 10.777 7.884.792.8 1.552 1.632 2.278 2.493.358.427.713.86 1.056 1.3l.064.083c.012.014.022.03.032.042.014.018-.01.02-.02.026-.064.026-.127.05-.19.077-.13.048-.256.097-.384.147l-.77.293c-2.094.786-4.212 1.493-6.357 2.122.44.863.654 1.714.67 2.68 1.676-.49 3.33-1.024 4.974-1.602.82-.295 1.64-.6 2.45-.91.408-.156.81-.316 1.217-.476.023-.012.05-.02.075-.033.025-.008.04.05.046.063l.09.136c.062.088.12.182.18.27.12.184.232.364.35.548 1.875 2.984 3.32 6.084 4.41 9.438 1.084 3.355 1.73 6.712 1.963 10.23.03.433.052.86.07 1.293 0 .046.044.12-.04.12h-8.984c.133.183.254.375.367.57.198.342.367.702.5 1.072.128.364.22.737.28 1.12h7.844c.07-.002.032.063.032.104z"/><path d="M46.888 55.322c-.32 4.59-.637 9.18-.954 13.77-.096 1.372-.71 2.65-1.722 3.583l-2.25 2.065c-2.027 1.864-5.14 1.892-7.197.057-.78-.696-1.563-1.392-2.347-2.085-1.054-.94-1.697-2.258-1.788-3.67-.283-4.483-.566-8.97-.853-13.454-.108-1.713.61-3.375 1.93-4.47.366-.306.734-.61 1.102-.914.945-.785 2.134-1.222 3.362-1.236 1.49-.02 2.984-.036 4.478-.054 1.266-.015 2.498.418 3.472 1.22.274.226.547.452.82.674 1.338 1.103 2.064 2.785 1.946 4.514z"/></g></svg><svg width="100" height="100" viewBox="0 0 99.999999 99.999999" enable-background="new 0 0 60 56" id="mobile" y="500"><path d="M94.346 8.89H36.342c-.636 0-1.153.527-1.153 1.178v25.795l-1.353-.45s-.862-.283-3.4-1.122c-5.278-1.745-10.26-2.817-12.102 2.745L4.885 77.683c-1.692 5.118 2.502 8.158 6.38 9.44l4.92 1.63 4.924 1.628c3.877 1.284 9.055 1.346 10.75-3.774.292-.887 1.616-4.886 3.33-10.065v13.212c0 .647.516 1.177 1.154 1.177h58.003c.636 0 1.153-.526 1.153-1.178V10.068c0-.65-.52-1.178-1.154-1.178zm-28.284 3.133c.847 0 1.536.702 1.536 1.567s-.69 1.568-1.536 1.568c-.847 0-1.532-.703-1.532-1.568 0-.866.686-1.567 1.532-1.567zm-36.97 24.22l7.99 2.644c.188.062.294.267.232.456-.063.19-.27.294-.396.252l-7.995-2.646c-.247-.082-.353-.288-.29-.48.062-.187.27-.29.458-.226zM20.28 86.616c-.073.223-.493 1.153-1.446.84l-1.998-.662-1.996-.66c-.956-.316-.74-1.313-.664-1.537.124-.372.525-.337 1.296-.08l1.91.63 1.91.635c.767.255 1.11.463.988.835zm9.846-.313l-23.668-7.83 13.88-41.945 23.668 7.83-13.88 41.945zm35.217 1.59c-.974 0-1.764-.805-1.764-1.8 0-.99.786-1.797 1.763-1.797.977 0 1.764.807 1.764 1.798 0 .994-.788 1.8-1.764 1.8zm26.652-7.904c0 .65-.514 1.177-1.153 1.177H39.847c-.637 0-1.152-.523-1.152-1.177V65.944l6.612-19.986c1.667-5.04-1.985-7.245-6.612-8.914v-18.88c0-.65.515-1.176 1.152-1.176H90.84c.638 0 1.153.527 1.153 1.177v61.823z" fill="#f9f9f9"/></svg><svg width="100" height="100" id="mobile2" y="600"><g transform="translate(-421.319 -507.476)" fill="#201e1d"><path d="M515.152 517.047h-58.325c-.64 0-1.16.52-1.16 1.16v78.54c0 .64.52 1.16 1.16 1.16h58.328c.64 0 1.16-.52 1.16-1.16v-78.54c0-.64-.522-1.16-1.163-1.16zM-376.85-510.052c.512 0 .928.416.928.928 0 .513-.417.928-.93.928-.51 0-.926-.414-.926-.927 0-.512.416-.928.927-.928zM44.522 80.9c-.98 0-1.774-.796-1.774-1.774s.794-1.774 1.774-1.774 1.774.796 1.774 1.775c0 .98-.794 1.774-1.774 1.774zm26.8 5.108c0 .642-.52 1.16-1.16 1.16H23.907c-.64 0-1.16-.518-1.16-1.16V24.555c0-.64.52-1.16 1.16-1.16h51.277c.64 0 1.16.52 1.16 1.16v60.938z" class="mobile-tablet"/><path d="M448.682 547.883h-18.218c-2.283 0-4.14 1.856-4.14 4.14v41.743c0 2.283 1.857 4.14 4.14 4.14h18.218c2.282 0 4.14-1.857 4.14-4.14v-41.744c0-2.283-1.858-4.14-4.14-4.14zm-391.93-546.743h4.622c.202 0 .367.164.367.368 0 .202-.164.367-.366.367H56.75c-.203 0-.367-.165-.367-.367 0-.204.164-.368.368-.368zm-6.265 47.656c0 .45-.365.814-.814.814h-4c-.448 0-.813-.365-.813-.814v-.38c0-.45.365-.813.814-.813h4c.448 0 .813.364.813.814v.38zm14.03 44.424H41.05V51.974h23.466V93.22z" class="mobile-phone"/></g></svg><svg width="100" height="100" viewBox="0 0 100 100" id="open" y="700"><g transform="matrix(.934 0 0 .934 5.192 2.09)" fill="#f9f9f9"><path d="M68.313 23.438v5.937l9.374 4.5-29.48 16.844c3.094 2.5 2.594-1.57.05-.045l-.082.025L18.25 33.875l9.28-4.47V23.5l-16.25 7.813c-.005.002-.023-.003-.03 0-.102.05-.185.094-.28.156-.017.01-.048.02-.064.03-.08.057-.145.122-.22.188l-.06.062c-.084.076-.177.13-.25.22-.008.008.006.02 0 .03-.063.075-.134.167-.188.25-.02.028-.015.066-.032.094-.017.027-.047.034-.062.062-.026.05-.04.108-.063.157-.01.022-.05.038-.06.062-.046.103-.064.208-.095.313l-.03.062c-.027.095-.048.186-.064.28-.002.024.004.04 0 .064-.014.114-.03.26-.03.375v43.905c0 .972.527 1.872 1.375 2.344l35.563 19.686c.09.052.18.116.28.156.02.008.045-.006.063 0 .08.03.138.07.22.094.027.008.066.025.094.03.076.02.17.02.25.033.027.003.036-.004.062 0 .103.01.207.03.313.03.105 0 .21-.02.31-.03.027-.004.068.003.095 0 .08-.013.143-.013.22-.032.026-.007.066-.024.093-.032.082-.023.14-.066.218-.094.02-.006.045.008.063 0 .1-.04.187-.104.28-.156h.03L84.813 79.97c.85-.473 1.376-1.373 1.376-2.345V33.72c0-.118-.017-.26-.032-.376-.003-.022.004-.042 0-.063-.016-.098-.035-.183-.062-.28-.006-.018-.026-.046-.03-.063-.033-.106-.078-.208-.126-.312-.01-.022.01-.04 0-.063-.024-.05-.066-.106-.094-.156-.016-.028-.045-.034-.063-.062-.014-.028-.01-.066-.03-.094-.056-.083-.124-.175-.188-.25-.074-.087-.166-.174-.25-.25-.018-.017-.042-.046-.062-.063-.07-.062-.14-.102-.22-.156-.02-.013-.04-.048-.06-.06-.093-.062-.182-.11-.282-.157-.01-.004-.025.003-.032 0zm12.53 14.718v.032l-5.03 2.78zm-65.75.094L45.314 55v37.75l-30.22-16.656zm65.75 0v37.813L50.657 92.78V55.095l15.094-8.47z"/><path d="M63.027 22.34c-1.163 0-2.104.95-2.104 2.12 0 1.163.942 2.113 2.104 2.113 1.153 0 2.094-.95 2.094-2.114 0-1.17-.94-2.12-2.093-2.12z"/><path d="M32.875 22.34c-1.16 0-2.1.95-2.1 2.12 0 1.163.94 2.113 2.1 2.113 1.157 0 2.097-.95 2.097-2.114 0-1.17-.94-2.12-2.097-2.12z"/><path d="M56.782 18.486c-1.72 0-3.118 1.413-3.118 3.15 0 1.742 1.4 3.155 3.118 3.155 1.725 0 3.128-1.412 3.128-3.155 0-1.736-1.403-3.15-3.128-3.15z"/><path d="M66.468 37.654h-3.552v-6.61c0-1.136-.33-2.192-.864-3.11.312-.092.632-.162.975-.162 1.896 0 3.44 1.568 3.44 3.487v6.394z"/><path d="M39.11 18.486c-1.718 0-3.117 1.413-3.117 3.15 0 1.742 1.4 3.155 3.117 3.155 1.718 0 3.12-1.412 3.12-3.155 0-1.736-1.4-3.15-3.12-3.15z"/><path d="M32.875 27.772c.34 0 .656.07.973.162-.54.918-.865 1.974-.865 3.11v6.61h-3.555v-6.396c0-1.918 1.552-3.486 3.447-3.486z"/><path d="M47.946 12.185c-2.54 0-4.61 2.093-4.61 4.657 0 2.573 2.07 4.664 4.61 4.664 2.542 0 4.618-2.09 4.618-4.664 0-2.564-2.077-4.657-4.618-4.657z"/><path d="M61.77 40.117h-5.45V30.06c0-1.39-.358-2.677-.94-3.824.443-.137.912-.23 1.402-.23 2.75 0 4.988 2.257 4.988 5.038v9.073z"/><path d="M39.57 30.06v10.057h-5.445v-9.073c0-2.78 2.236-5.04 4.986-5.04.494 0 .96.096 1.403.233-.583 1.146-.944 2.433-.944 3.822z"/><path d="M40.71 43.027h14.472V30.06c0-4.038-3.246-7.313-7.236-7.313-3.996 0-7.235 3.275-7.235 7.312v12.967z"/><path d="M79.152 2.58h-16.35c-2.606 0-4.725 1.652-4.725 3.685v6.04c0 2.034 2.12 3.688 4.724 3.688h1.672v4.827l6.187-4.827h8.492c2.605 0 4.724-1.654 4.724-3.69V6.266c0-2.033-2.12-3.685-4.724-3.685zm3.028 9.724c0 1.306-1.36 2.368-3.028 2.368H69.96l-3.792 2.96v-2.96H62.8c-1.667 0-3.027-1.062-3.027-2.368v-6.04c0-1.303 1.36-2.365 3.028-2.365h16.352c1.668 0 3.028 1.06 3.028 2.365v6.04z"/></g></svg><svg width="100" height="100" viewBox="0 0 100 100" id="privacy" y="800"><g fill="#f9f9f9"><path d="M62.7 22.2V25c13.1 5 22.5 17.7 22.5 32.6 0 19.1-15.6 34.7-34.7 34.7-19.2 0-34.7-15.6-34.7-34.7 0-14.7 9.2-27.3 22.2-32.4v-2.9c-14.5 5.2-24.9 19-24.9 35.2C13.1 78.2 29.9 95 50.5 95s37.4-16.8 37.4-37.4c0-16.4-10.5-30.3-25.2-35.4z"/><path d="M59.6 58.9"/><path d="M61.4 48.2c0-6-4.8-10.8-10.8-10.8-5.9 0-10.7 4.8-10.8 10.6 0 .3-.1 2.8-.1 2.8s-.1.6-.3.8l-.5.6c-.2.2-.3.5-.3.9 0 0 0 .6.1 1.3 0 0 .4 2.8 1.5 3.7 0 0 1.8 1.1 2.1 1.5.3.4.6 1.1.6 2.3 0 0 .4 4.4-1.6 6.2-.5.4-1 .7-1.3.8l-11 5.2-2.1 1c-.5.3-.9.8-.9 1.5v.4c0 .1 0 .2.1.3.1.1.2.4.4.7.5.6 1.7 2 4.1 3.9h.1c5.3 4.2 12 6.8 19.3 6.8h1c7.3 0 14-2.5 19.3-6.8h.1c2.4-1.9 3.6-3.3 4.1-3.9.2-.3.3-.5.4-.7 0-.1.1-.2.1-.3v-.4c0-.6-.4-1.2-.9-1.5l-2.1-1-11-5.2c-.3-.1-.8-.4-1.3-.8-2-1.8-1.6-6.2-1.6-6.2 0-1.1.3-1.8.6-2.3.3-.4 2.1-1.5 2.1-1.5 1.1-.9 1.5-3.7 1.5-3.7.1-.8.1-1.3.1-1.3 0-.4-.1-.8-.3-.9l-.5-.6c-.2-.2-.3-.8-.3-.8"/><path d="M57.5 30.3c1.4 0 2.6-1.1 2.6-2.6v-10c0-1.4-1.1-2.5-2.4-2.5v-2.9c0-4-3.3-7.3-7.3-7.3s-7.3 3.3-7.3 7.3v2.9c-1.3.1-2.4 1.2-2.4 2.5v10c0 1.4 1.1 2.6 2.6 2.6h14.2zm-5.1-6c0 1.1-.9 2.1-2 2.1s-2-.9-2-2.1v-3.2c0-1.1.9-2.1 2-2.1s2 .9 2 2.1v3.2zm.8-12v2.8h-5.6v-2.8c0-.6 0-1.2.2-1.7 0-.1 0-.1.1-.2 0-.1 0-.2.1-.2.1-.2.1-.3.2-.4v-.1c.5-.8 1.3-1.4 2.3-1.4 1 .1 1.8.6 2.3 1.4v.1c.1.1.1.3.2.4 0 .1 0 .2.1.2 0 .1 0 .1.1.2-.1.5 0 1.1 0 1.7z"/></g></svg><svg width="100" height="100" viewBox="5.0 -10.0 100.0 135.0" id="target" y="900"><g fill="#f9f9f9"><path d="M73.092 50.155l7.56-4.21c-1.31-2.172-2.837-4.25-4.593-6.197L69.867 45.8c1.214 1.38 2.288 2.836 3.224 4.355z"/><path d="M68.488 89.39c-12.447 12.45-32.625 12.45-45.072.002-12.446-12.446-12.446-32.625 0-45.07 9.582-9.583 23.743-11.78 35.434-6.61l3.87-7.74c-14.933-6.785-33.134-4.043-45.415 8.238-15.82 15.822-15.82 41.472 0 57.293 15.82 15.82 41.472 15.82 57.294 0C87.054 83.047 89.696 64.5 82.537 49.45l-7.647 4.042c5.44 11.778 3.306 26.19-6.402 35.9z"/><path d="M67.197 43.104l6.05-6.18c-2.18-1.99-4.525-3.7-6.99-5.128l-4.035 7.65c1.745 1.038 3.412 2.257 4.975 3.658z"/><path d="M56.647 77.553c-5.907 5.905-15.482 5.905-21.39 0-5.906-5.907-5.906-15.482 0-21.39 4.35-4.35 10.688-5.485 16.087-3.427l3.875-7.756c-8.65-3.66-19.024-1.98-26.074 5.07-9.282 9.283-9.282 24.332 0 33.613 9.282 9.282 24.33 9.282 33.612 0 7.13-7.132 8.76-17.658 4.935-26.367l-7.66 4.048c2.12 5.425.996 11.826-3.386 16.21z"/><path d="M57.856 57.544c.2.254.39.512.57.776l7.57-4.215c-.578-.908-1.228-1.78-1.942-2.62l-6.198 6.06z"/><path d="M61.505 48.918c-.98-.85-2.008-1.608-3.082-2.27l-4.04 7.657c.367.247.727.508 1.076.79l6.045-6.177z"/><path d="M44.765 66.97c-.054-.092-.095-.187-.12-.288-.11-.43.098-.75.122-.785L47.5 60.43c-1.988-.37-4.118.21-5.655 1.75-2.48 2.477-2.48 6.496 0 8.974 2.48 2.48 6.497 2.48 8.976 0 1.587-1.587 2.153-3.805 1.708-5.845l-5.572 2.942c-.007.006-.206.126-.496.126-.242 0-.56-.087-.876-.41-.11-.078-.22-.17-.33-.278-.238-.242-.397-.48-.49-.72z"/><path d="M50.384 60.28l21.794-41.316.242.015h.002c.5 0 4.445-.204 7.146-6.8-.47-.266-1.044-.4-1.714-.4-1.81 0-3.68.974-3.697.983l-.523.276-.026-.592c0-.038-.187-3.64-2.543-4.817-4.052 6.322-1.574 9.937-1.548 9.973l.13.184-.1.202-23.2 46.414 4.037-4.124z"/><path d="M48.73 66.467l45.9-24.25.19.145c.012.008 1.073.8 3.058.8 2.04 0 4.288-.8 6.683-2.38-1.028-2.114-4.76-2.567-4.798-2.57l-.588-.07.312-.502c.02-.032 1.9-3.11.62-5.41-6.912 2.932-6.906 7.315-6.905 7.36l.006.224-39.98 22.258-4.496 4.395z"/><path d="M45.526 66.31c-.037.033-.104.097-.107.21-.006.17.124.397.366.64.243.24.475.374.653.374.125 0 .196-.067.203-.075l38.853-37.987.226.085c.005.002.486.18 1.3.18 1.442 0 4.324-.586 7.59-4.462-1.566-1.71-5.315-1.105-5.33-1.102l-.583.1.155-.57c.01-.035.938-3.522-.944-5.364-5.793 4.775-4.543 8.976-4.53 9.018l.07.215-.16.16L45.527 66.31z"/></g></svg><svg width="100" height="100" viewBox="0 0 100 100" id="tools" y="1000"><g transform="matrix(.92 0 0 .92 4.5 4.008)" fill="#f9f9f9"><path d="M78.092 77.636c3.224-3.208 2.955-8.666-.596-12.2l-34.87-34.665c-3.554-3.53-9.046-3.795-12.27-.59-3.224 3.206-2.96 8.666.594 12.198l34.872 34.665c3.553 3.53 9.043 3.798 12.27.593z"/><path d="M21.046 36.94L79.43 94.98c4.448 4.424 11.662 4.424 16.11 0 4.447-4.42 4.447-11.59 0-16.015l-58.383-58.04c.712-5.508-1.04-11.27-5.296-15.5C26.755.347 19.428-1.16 12.99.875c3.75 3.728 6.65 6.68 7.564 7.586 3.262 3.245 4.035 7.734 1.728 10.027l-3.684 3.663c-2.307 2.293-6.823 1.525-10.085-1.718-.91-.907-3.88-3.79-7.63-7.52-2.048 6.4-.533 13.684 4.575 18.762 4.255 4.23 10.05 5.974 15.588 5.267zm72.26 55.82c-3.544 3.522-9.284 3.522-12.83 0-3.54-3.52-3.54-9.23 0-12.752 3.546-3.522 9.286-3.522 12.83 0 3.542 3.518 3.542 9.23 0 12.753zM29.163 42.34c-3.707-3.687-3.707-9.662 0-13.348 3.707-3.687 9.718-3.687 13.425 0l36.4 36.183c3.704 3.686 3.704 9.66 0 13.347-3.712 3.685-9.72 3.685-13.43 0L29.16 42.34z"/><path d="M20.896 98.602L50.34 69.33l-3.844-3.822-27.49 27.33c-.652.648-1.796.558-2.557-.195-.76-.76-.85-1.897-.2-2.543l27.49-27.33-4.404-4.38-27.49 27.33c-.65.646-1.794.558-2.556-.197-.76-.756-.85-1.896-.198-2.54l27.49-27.33-3.844-3.822L3.295 81.104c-2.85 2.832-1.22 9.046 3.64 13.877 4.86 4.833 11.11 6.455 13.96 3.622z"/><path d="M57.35 37.373l7.536 7.49 9.892-9.837 8.224-2.19 15.926-22.572-6.775-6.738L69.45 19.36l-2.206 8.177z"/></g></svg></svg>