<?xml version="1.0" encoding="UTF-8" standalone="no"?>
<svg
   xmlns:dc="http://purl.org/dc/elements/1.1/"
   xmlns:cc="http://creativecommons.org/ns#"
   xmlns:rdf="http://www.w3.org/1999/02/22-rdf-syntax-ns#"
   xmlns:svg="http://www.w3.org/2000/svg"
   xmlns="http://www.w3.org/2000/svg"
   version="1.1"
   id="svg4304"
   viewBox="0 0 100 100"
   height="100"
   width="100">
  <metadata
     id="metadata4312">
    <rdf:RDF>
      <cc:Work
         rdf:about="">
        <dc:format>image/svg+xml</dc:format>
        <dc:type
           rdf:resource="http://purl.org/dc/dcmitype/StillImage" />
        <dc:title />
      </cc:Work>
    </rdf:RDF>
  </metadata>
  <defs
     id="defs4310" />
  <path
     fill="#3f1f10"
     class="blueprint-paper"
     d="M93.546 63.687L77.48 24.9c-.963-2.613-3.484-4.368-6.273-4.368h-1.063l3.87 11.03c-.81.525-1.773.832-2.807.832H28.792c-1.032 0-1.994-.307-2.804-.83l3.87-11.032H28.79c-2.785 0-5.306 1.755-6.26 4.34L6.454 63.687C5.504 65.292 5 67.132 5 69.005c0 5.77 4.693 10.463 10.46 10.463h69.08c5.768 0 10.46-4.693 10.46-10.463 0-1.873-.5-3.71-1.454-5.318zm-9.006 14.27H15.46c-4.937 0-8.952-4.013-8.952-8.952 0-1.62.44-3.208 1.27-4.59v-.005c1.61-2.684 4.553-4.356 7.682-4.356h.534l9.482-27.035c.978.56 2.11.883 3.316.883h42.414c1.207 0 2.34-.324 3.315-.884l9.485 27.034h.534c3.175 0 6.05 1.63 7.682 4.358.83 1.384 1.268 2.973 1.268 4.593 0 4.94-4.015 8.953-8.95 8.953z"
     id="blueprint-paper" />
  <path
     id="design-line"
     d="m 29.413839,64.94665 1.559795,-9.566739 38.032986,-0.05199 -0.701908,-8.240914"
     style="fill:none;fill-rule:evenodd;stroke:#21b899;stroke-width:5;stroke-linecap:butt;stroke-linejoin:miter;stroke-miterlimit:4;stroke-opacity:1"
     class="design-line" />
  <path
     class="design-node design-node2"
     id="circle2"
     d="m 49.095718,59.723232 c -3.024,0.0036 -5.415709,-1.842491 -5.331273,-4.119931 0.08345,-2.273815 2.438837,-4.124764 5.250764,-4.129596 2.812909,-0.0024 5.206582,1.844907 5.331273,4.11993 0.130582,2.271399 -2.226763,4.124764 -5.250764,4.129597 z"
     style="fill:#ffffff;stroke:#21b899;stroke-width:3;stroke-miterlimit:4;stroke-dasharray:none" />
  <path
     class="design-node design-node3"
     id="circle3"
     d="m 69.465816,48.098214 c -2.618473,0.529098 -5.312386,-0.609656 -6.006005,-2.53262 -0.696538,-1.922375 0.696918,-3.881291 3.103744,-4.36556 2.4078,-0.484466 5.103559,0.648381 6.007314,2.529064 0.904728,1.880486 -0.488729,3.839402 -3.105053,4.369116 z"
     style="fill:#ffffff;stroke:#21b899;stroke-width:3;stroke-miterlimit:4;stroke-dasharray:none" />
  <ellipse
     ry="4.8126693"
     rx="6.5023146"
     cy="66.1334"
     cx="28.992119"
     class="design-node design-node1"
     id="circle1"
     style="color:#000000;display:inline;overflow:visible;visibility:visible;opacity:1;fill:#ffffff;fill-opacity:1;fill-rule:nonzero;stroke:#21b899;stroke-width:3;stroke-linecap:butt;stroke-linejoin:miter;stroke-miterlimit:4;stroke-dasharray:none;stroke-dashoffset:0;stroke-opacity:1;marker:none;enable-background:accumulate" />
</svg>
