<?xml version="1.0" encoding="UTF-8" standalone="no"?>
<svg
   xmlns:dc="http://purl.org/dc/elements/1.1/"
   xmlns:cc="http://creativecommons.org/ns#"
   xmlns:rdf="http://www.w3.org/1999/02/22-rdf-syntax-ns#"
   xmlns:svg="http://www.w3.org/2000/svg"
   xmlns="http://www.w3.org/2000/svg"
   xml:space="preserve"
   enable-background="new 0 0 100 100"
   viewBox="5.0 -10.0 100.0 135.0"
   height="100px"
   width="100px"
   y="0px"
   x="0px"
   id="Layer_1"
   version="1.1"><metadata
     id="metadata31"><rdf:RDF><cc:Work
         rdf:about=""><dc:format>image/svg+xml</dc:format><dc:type
           rdf:resource="http://purl.org/dc/dcmitype/StillImage" /></cc:Work></rdf:RDF></metadata><defs
     id="defs29" /><rect
     class="bug-line bug-line1"
     id="rect3"
     height="4.526"
     width="27.158001"
     y="24.483"
     x="33.078999" /><polygon
     style="fill:#d9564a"
     class="bug-x bug-x1"
     id="polygon5"
     points="26.175,32.613 28.735,30.053 25.489,26.807 28.735,23.56 26.175,21 22.929,24.246 19.683,21 17.123,23.56 20.369,26.807 17.122,30.054 19.682,32.614 22.929,29.367 " /><polygon
     style="fill:#21b899"
     class="bug-check bug-check3"
     id="polygon9"
     points="27.08,60.961 21.447,66.594 18.777,63.924 16.217,66.484 21.447,71.714 29.64,63.521 " /><path
     class="bug-list-frame"
     id="path11"
     d="m 11.806,84.684 0,-72.422 58.842,0 0,25.835 c 1.333,-1.014 2.947,-1.57 4.649,-1.57 0.735,0 1.453,0.107 2.141,0.305 l 0,-26.833 c 0,-2.49 -2.039,-4.526 -4.526,-4.526 l -63.37,0 c -2.491,0 -4.526,2.036 -4.526,4.526 l 0,76.947 c 0,2.487 2.035,4.526 4.526,4.526 l 28.837,0 c -0.531,-2.35 0.046,-4.892 1.726,-6.789 l -28.299,0 z" /><path
     class="bug-line bug-line3"
     id="path13"
     d="m 33.079,68.841 4.625,0 c 1.413,-1.688 3.521,-2.765 5.876,-2.765 l 1.156,0 c 0.03,-0.081 0.061,-0.164 0.091,-0.245 l -1.613,-1.517 -10.135,0 0,4.527 z" /><path
     class="bug-line bug-line2"
     id="path15"
     d="m 54.458,47.144 c -0.357,-0.878 -0.525,-1.811 -0.544,-2.745 l -20.835,0 0,4.526 20.304,0 c 0.323,-0.613 0.675,-1.212 1.075,-1.781 z" /><g
     class="bug"
     id="g4159"><path
       d="m 47.644,55.563 c -0.662,-0.662 -1.734,-0.645 -2.397,0.017 -0.663,0.662 -0.665,1.744 -0.003,2.406 l 4.058,3.816 c 0.318,0.318 0.75,0.244 1.2,0.244 l 3.301,0 c -2.351,2.948 -3.895,6.489 -4.466,10.029 l -5.757,0 c -0.937,0 -1.695,0.833 -1.695,1.77 0,0.937 0.758,1.771 1.695,1.771 l 5.507,0 c 0.029,2.949 0.776,5.899 2.078,8.259 l -1.229,0 c -0.45,0 -0.882,0.258 -1.2,0.577 l -4.058,4.109 c -0.661,0.663 -0.66,1.755 0.002,2.416 0.332,0.329 0.764,0.504 1.197,0.504 0.434,0 0.869,-0.164 1.199,-0.497 l 3.562,-3.568 2.736,0 c 3.333,4.13 8.568,6.811 13.878,7.111 l 0,-35.43 -16.05,0 -3.558,-3.534 z"
       id="path17" /><path
       d="m 93.29,72.076 -5.877,0 c -0.731,-3.54 -2.616,-7.081 -4.824,-10.029 l 3.779,0 c 0.45,0 0.882,0.079 1.2,-0.239 l 4.059,-3.94 c 0.66,-0.663 0.658,-1.671 -0.004,-2.331 -0.664,-0.662 -1.735,-0.668 -2.397,-0.005 l -3.562,3.565 -16.05,0 0,35.419 c 5.311,-0.346 10.451,-3.56 13.784,-7.1 l 2.831,0 3.562,3.573 c 0.331,0.334 0.765,0.501 1.199,0.501 0.434,0 0.866,-0.166 1.197,-0.494 0.663,-0.66 0.664,-1.733 0.003,-2.396 l -4.058,-4.148 c -0.318,-0.319 -0.75,-0.577 -1.2,-0.577 l -1.298,0 c 1.318,-2.359 2.075,-5.31 2.104,-8.259 l 5.55,0 c 0.936,0 1.694,-0.834 1.694,-1.771 0,-0.937 -0.756,-1.769 -1.692,-1.769 z"
       id="path19" /><path
       d="m 57.473,56.736 21.923,0 c 0,-4.13 -2.049,-7.236 -5.125,-9.177 l 2.213,-2.168 c 0.662,-0.662 0.662,-1.712 0,-2.374 -0.662,-0.661 -1.734,-0.65 -2.396,0.011 l -3.2,3.207 c -0.79,-0.181 -1.608,-0.283 -2.453,-0.283 -0.845,0 -1.664,0.106 -2.454,0.287 l -3.2,-3.199 c -0.662,-0.662 -1.734,-0.662 -2.396,0 -0.662,0.661 -0.662,1.735 0,2.397 l 2.212,2.122 c -3.075,1.942 -5.124,5.047 -5.124,9.177 z"
       id="path21" /></g><polygon
     class="bug-check bug-check1"
     id="polygon7-3"
     points="27.08,41.027 21.447,46.66 18.777,43.99 16.216,46.55 21.447,51.781 29.64,43.587 "
     transform="translate(-0.40808431,-17.94044)" /><polygon
     style="fill:#d9564a"
     class="bug-x bug-x2"
     id="polygon5-0"
     points="26.175,21 22.929,24.246 19.683,21 17.123,23.56 20.369,26.807 17.122,30.054 19.682,32.614 22.929,29.367 26.175,32.613 28.735,30.053 25.489,26.807 28.735,23.56 "
     transform="translate(-2.9979335e-4,17.457271)" /><polygon
     class="bug-check bug-check2"
     id="polygon7"
     points="29.64,43.587 27.08,41.027 21.447,46.66 18.777,43.99 16.216,46.55 21.447,51.781 " /></svg>