<svg xmlns="http://www.w3.org/2000/svg" xmlns:xlink="http://www.w3.org/1999/xlink" version="1.1" id="Layer_1" x="0px" y="0px" width="100px" height="100px" viewBox="5.0 -10.0 100.0 135.0" enable-background="new 0 0 100 100" xml:space="preserve">
<path d="M50,58.414c-2.646-4.637-5.291-9.276-7.938-13.915c0,0-12.247,2.33-10.28,10.013c1.916,7.493,3.832,14.982,5.748,22.471  c0.617,2.413,2.789,4.101,5.278,4.101c2.398,0,4.794,0,7.191,0s4.793,0,7.192,0c2.49,0,4.661-1.688,5.277-4.101  c1.918-7.488,3.832-14.978,5.747-22.471c1.968-7.683-10.279-10.013-10.279-10.013C55.291,49.138,52.646,53.777,50,58.414z"/>
<path d="M37.68,26.521c-0.3-0.245-0.598-0.494-0.896-0.74c-0.77-0.64-1.733-0.993-2.733-1.007c-1.214-0.014-2.428-0.028-3.642-0.043  c-1.027-0.013-2.028,0.339-2.824,0.994c-0.221,0.181-0.443,0.362-0.664,0.546c-1.089,0.896-1.679,2.263-1.581,3.668  c0.257,3.733,0.517,7.465,0.774,11.196c0.076,1.113,0.579,2.153,1.398,2.91c0.61,0.56,1.218,1.12,1.827,1.679  c1.65,1.517,4.179,1.537,5.853,0.045c0.636-0.563,1.271-1.129,1.907-1.694c0.858-0.764,1.382-1.836,1.454-2.98  c0.191-3.011,0.381-6.022,0.571-9.032c-0.084-1.322-0.167-2.645-0.25-3.968C38.591,27.462,38.212,26.966,37.68,26.521z"/>
<path d="M61.087,28.189c-0.08,1.15-0.16,2.3-0.24,3.45c0.201,3.149,0.401,6.301,0.6,9.455c0.073,1.145,0.597,2.217,1.454,2.98  c0.636,0.565,1.27,1.131,1.907,1.694c1.672,1.492,4.201,1.472,5.851-0.045c0.61-0.559,1.221-1.119,1.828-1.679  c0.82-0.757,1.323-1.797,1.4-2.91c0.256-3.731,0.516-7.463,0.773-11.196c0.098-1.405-0.492-2.771-1.582-3.668  c-0.222-0.184-0.442-0.365-0.663-0.546c-0.797-0.655-1.797-1.007-2.822-0.994c-1.215,0.015-2.429,0.029-3.644,0.043  c-1.001,0.014-1.963,0.367-2.733,1.007c-0.297,0.246-0.595,0.495-0.895,0.74C61.759,26.99,61.368,27.514,61.087,28.189z"/>
<path d="M74.161,45.527c0,0,9.955,1.897,8.355,8.141c-1.558,6.089-3.115,12.175-4.675,18.266c-0.499,1.962-2.266,3.332-4.29,3.332  c-1.948,0-3.895,0-5.845,0c-0.661,0-1.323,0-1.985,0c1.713-6.693,3.424-13.386,5.136-20.08c0.136-0.531,0.23-1.072,0.273-1.618  c0.04-0.547,0.034-1.095-0.028-1.641c-0.029-0.252-0.07-0.51-0.126-0.763c-0.003-0.016-0.006-0.027-0.009-0.04  C72.033,49.258,73.096,47.396,74.161,45.527z"/>
<path d="M29.031,51.122c-0.118,0.544-0.178,1.099-0.187,1.65c-0.01,0.813,0.096,1.624,0.298,2.413  c1.712,6.694,3.424,13.387,5.135,20.08c-0.66,0-1.324,0-1.986,0c-1.948,0-3.896,0-5.845,0c-2.022,0-3.789-1.37-4.289-3.332  c-1.559-6.091-3.116-12.177-4.674-18.266c-1.598-6.243,8.356-8.141,8.356-8.141C26.905,47.396,27.966,49.258,29.031,51.122z"/>
<path d="M50,5C25.146,5,5,25.145,5,50c0,24.851,20.146,45,45,45s45-20.149,45-45C95,25.145,74.854,5,50,5z M92.216,51.486  c-0.003,0.048-0.003,0.097-0.006,0.144c-0.017,0.384-0.035,0.771-0.06,1.151c-0.207,3.117-0.74,6.121-1.621,9.12  c-0.881,2.998-2.056,5.812-3.567,8.548c-0.376,0.677-0.77,1.345-1.182,2.001c-0.204,0.326-0.414,0.648-0.628,0.97  c-0.006,0.012-0.015,0.068-0.041,0.06c-0.021-0.011-0.045-0.017-0.067-0.026c-0.042-0.019-0.09-0.037-0.133-0.057  c-0.09-0.035-0.182-0.068-0.271-0.106c-0.178-0.071-0.361-0.141-0.541-0.212c-1.443-0.564-2.897-1.086-4.364-1.575  c-0.073,0.285-0.149,0.572-0.222,0.858c-0.158,0.623-0.399,1.185-0.739,1.729c0.997,0.33,1.983,0.677,2.967,1.043  c0.491,0.184,0.977,0.365,1.464,0.557c0.063,0.023,0.123,0.047,0.184,0.071c0.025,0.012,0.076,0.015,0.048,0.05  c-0.02,0.025-0.042,0.052-0.061,0.077c-0.08,0.106-0.163,0.213-0.246,0.313c-0.164,0.209-0.332,0.418-0.501,0.625  c-1.341,1.628-2.783,3.138-4.354,4.551c-3.178,2.868-6.597,5.125-10.478,6.93c-1.913,0.889-3.868,1.623-5.894,2.22  c-0.498,0.146-1.001,0.286-1.503,0.415c-0.063,0.014-0.126,0.031-0.191,0.044c-0.031,0.008-0.062,0.017-0.093,0.021  c-0.017,0.004-0.031,0.009-0.048,0.013c-0.023,0.006,0.02-0.018,0.026-0.025c0.103-0.082,0.202-0.171,0.303-0.256  c0.196-0.178,0.396-0.353,0.588-0.531c0.77-0.728,1.486-1.493,2.165-2.308c2.665-3.201,4.702-7.073,6.213-10.91  c-0.992,0-1.987,0-2.978,0c-1.407,3.355-3.28,6.766-5.693,9.544c-2.373,2.729-5.542,5.146-9.354,5.621c0-3.117,0-6.232,0-9.352  c-0.894,0-1.787,0-2.68,0c0,3.119,0,6.234,0,9.352c-3.811-0.476-6.98-2.893-9.35-5.618c-2.416-2.779-4.289-6.189-5.696-9.547  c-0.991,0-1.985,0-2.979,0c1.51,3.837,3.546,7.709,6.213,10.91c0.678,0.814,1.392,1.58,2.166,2.305  c0.193,0.181,0.388,0.356,0.586,0.533c0.1,0.086,0.201,0.172,0.302,0.256c0.01,0.009,0.055,0.034,0.03,0.026  c-0.017-0.004-0.033-0.007-0.048-0.012c-0.031-0.006-0.064-0.014-0.095-0.022c-0.063-0.013-0.125-0.03-0.189-0.044  c-0.503-0.129-1.004-0.267-1.504-0.415c-2.025-0.594-3.977-1.328-5.891-2.22c-3.884-1.802-7.302-4.062-10.483-6.93  c-1.569-1.413-3.009-2.922-4.351-4.551c-0.171-0.205-0.337-0.414-0.502-0.625c-0.083-0.101-0.163-0.207-0.247-0.313  c-0.02-0.026-0.04-0.053-0.059-0.078c-0.028-0.034,0.022-0.038,0.046-0.05c0.062-0.024,0.122-0.045,0.182-0.071  c0.486-0.191,0.975-0.373,1.464-0.557c0.984-0.366,1.973-0.713,2.968-1.043c-0.339-0.545-0.58-1.106-0.74-1.729  c-0.072-0.286-0.146-0.573-0.221-0.858c-1.467,0.489-2.923,1.011-4.365,1.575c-0.18,0.071-0.361,0.141-0.542,0.212  c-0.088,0.038-0.179,0.071-0.267,0.106c-0.047,0.02-0.093,0.038-0.137,0.058c-0.022,0.009-0.047,0.017-0.068,0.025  c-0.024,0.009-0.033-0.048-0.039-0.06c-0.215-0.321-0.422-0.644-0.628-0.973c-0.413-0.653-0.805-1.321-1.18-1.998  c-1.511-2.736-2.688-5.551-3.569-8.551c-0.881-2.997-1.414-6.004-1.62-9.12c-0.024-0.381-0.044-0.768-0.061-1.148  c-0.001-0.049-0.003-0.098-0.004-0.145C7.784,51.442,7.75,51.38,7.82,51.38c0.095,0,0.194,0,0.291,0c0.193,0,0.387,0,0.581,0  c0.776,0,1.55,0,2.327,0c1.547,0,3.093,0,4.64,0c0.061-0.382,0.155-0.755,0.284-1.119c0.131-0.37,0.299-0.73,0.497-1.071  c0.113-0.196,0.237-0.389,0.368-0.571c-1.741,0-3.481,0-5.223,0c-0.871,0-1.744,0-2.617,0c-0.217,0-0.436,0-0.655,0  c-0.106,0-0.216,0-0.327,0c-0.054,0-0.109,0-0.164,0c-0.081,0-0.039-0.074-0.038-0.121c0.016-0.433,0.038-0.86,0.066-1.292  c0.233-3.52,0.88-6.876,1.964-10.231c1.088-3.354,2.536-6.454,4.411-9.438c0.116-0.184,0.232-0.364,0.35-0.547  c0.059-0.09,0.118-0.184,0.179-0.272c0.03-0.046,0.059-0.09,0.089-0.136c0.007-0.013,0.024-0.07,0.046-0.062  c0.025,0.013,0.05,0.021,0.075,0.033c0.406,0.159,0.811,0.319,1.216,0.477c0.814,0.311,1.631,0.614,2.455,0.909  c1.644,0.577,3.297,1.11,4.972,1.601c0.016-0.965,0.228-1.815,0.67-2.679c-2.147-0.629-4.264-1.336-6.361-2.123  c-0.254-0.097-0.511-0.194-0.767-0.294c-0.128-0.05-0.256-0.099-0.383-0.147c-0.063-0.023-0.127-0.048-0.191-0.074  c-0.044-0.018-0.003-0.047,0.016-0.069c0.021-0.027,0.042-0.057,0.064-0.083c0.341-0.441,0.694-0.875,1.053-1.302  c0.729-0.861,1.487-1.691,2.282-2.495c3.209-3.24,6.715-5.802,10.776-7.879c2-1.025,4.049-1.875,6.186-2.568  c0.528-0.173,1.06-0.331,1.596-0.485c0.268-0.075,0.535-0.146,0.801-0.216c0.136-0.036,0.271-0.07,0.403-0.103  c0.034-0.009,0.067-0.018,0.1-0.025c0.023-0.006,0.109-0.043,0.073-0.01c-0.056,0.044-0.109,0.089-0.162,0.136  c-0.857,0.733-1.647,1.525-2.394,2.371c-2.933,3.318-5.132,7.448-6.734,11.518c0.989,0.013,1.976,0.023,2.964,0.035  c1.406-3.364,3.278-6.782,5.695-9.565c2.372-2.735,5.547-5.161,9.365-5.64c0,3.134,0,6.263,0,9.393  c0.893-0.009,1.786-0.021,2.68-0.03c0-3.12,0-6.24,0-9.362c3.817,0.478,6.989,2.902,9.362,5.637  c2.419,2.783,4.294,6.204,5.697,9.568c0.989-0.012,1.976-0.022,2.965-0.035c-1.6-4.069-3.8-8.199-6.731-11.518  c-0.748-0.846-1.54-1.638-2.396-2.371c-0.053-0.047-0.106-0.092-0.161-0.136c-0.037-0.033,0.049,0.004,0.073,0.01  c0.033,0.008,0.067,0.017,0.101,0.025c0.133,0.032,0.267,0.066,0.402,0.103c0.267,0.069,0.534,0.141,0.801,0.216  c0.535,0.154,1.066,0.313,1.595,0.485c2.139,0.694,4.191,1.543,6.191,2.568c4.063,2.079,7.565,4.641,10.776,7.884  c0.792,0.801,1.552,1.632,2.278,2.493c0.358,0.427,0.713,0.859,1.056,1.3c0.021,0.028,0.042,0.057,0.063,0.083  c0.012,0.014,0.022,0.03,0.032,0.042c0.014,0.018-0.009,0.021-0.021,0.026c-0.063,0.026-0.126,0.051-0.19,0.077  c-0.129,0.047-0.255,0.096-0.383,0.146c-0.258,0.098-0.514,0.195-0.769,0.293c-2.095,0.786-4.213,1.493-6.358,2.122  c0.441,0.863,0.654,1.714,0.67,2.679c1.676-0.49,3.331-1.023,4.974-1.601c0.822-0.295,1.641-0.599,2.452-0.909  c0.407-0.157,0.81-0.317,1.216-0.477c0.023-0.012,0.05-0.021,0.075-0.033c0.025-0.009,0.04,0.049,0.046,0.062  c0.031,0.046,0.06,0.09,0.089,0.136c0.063,0.089,0.12,0.183,0.18,0.272c0.12,0.183,0.233,0.363,0.351,0.547  c1.875,2.984,3.32,6.084,4.41,9.438c1.084,3.355,1.73,6.712,1.963,10.231c0.03,0.432,0.051,0.859,0.068,1.292  c0,0.047,0.045,0.121-0.038,0.121c-0.055,0-0.11,0-0.163,0c-0.111,0-0.22,0-0.327,0c-0.218,0-0.44,0-0.656,0  c-0.872,0-1.744,0-2.616,0c-1.742,0-3.481,0-5.223,0c0.133,0.183,0.254,0.375,0.367,0.571c0.198,0.341,0.367,0.701,0.499,1.071  c0.129,0.364,0.222,0.737,0.282,1.119c1.546,0,3.094,0,4.641,0c0.776,0,1.551,0,2.328,0c0.195,0,0.388,0,0.584,0  c0.095,0,0.192,0,0.29,0C92.254,51.38,92.216,51.445,92.216,51.486z"/>
<path d="M58.555,25.322c-0.32,4.591-0.637,9.181-0.954,13.771c-0.096,1.371-0.71,2.65-1.722,3.582  c-0.749,0.688-1.5,1.376-2.249,2.065c-2.028,1.864-5.14,1.892-7.198,0.057c-0.781-0.696-1.563-1.392-2.347-2.085  c-1.054-0.941-1.697-2.258-1.788-3.67c-0.283-4.483-0.566-8.97-0.853-13.454c-0.108-1.713,0.609-3.375,1.929-4.471  c0.367-0.305,0.735-0.608,1.103-0.913c0.946-0.785,2.135-1.222,3.363-1.236c1.49-0.019,2.984-0.036,4.478-0.054  c1.266-0.015,2.498,0.418,3.472,1.22c0.274,0.226,0.547,0.452,0.82,0.674C57.947,21.911,58.673,23.593,58.555,25.322z"/>
<text x="0.0" y="117.5" font-size="5.0" font-weight="bold" font-family="Helvetica Neue, Helvetica, Arial-Unicode, Arial, Sans-serif" fill="#000000">Created by Martin Vanco</text><text x="0.0" y="122.5" font-size="5.0" font-weight="bold" font-family="Helvetica Neue, Helvetica, Arial-Unicode, Arial, Sans-serif" fill="#000000">from the Noun Project</text></svg>