<svg xmlns:dc="http://purl.org/dc/elements/1.1/" xmlns:cc="http://creativecommons.org/ns#" xmlns:rdf="http://www.w3.org/1999/02/22-rdf-syntax-ns#" xmlns:svg="http://www.w3.org/2000/svg" xmlns="http://www.w3.org/2000/svg" xmlns:sodipodi="http://sodipodi.sourceforge.net/DTD/sodipodi-0.dtd" xmlns:inkscape="http://www.inkscape.org/namespaces/inkscape"><symbol viewBox="0 0 100 100" id="shape-blueprint"><title>blueprint</title><g id="svgstoree6c2970bb7d600dac854c4a5d80ec860g3034" fill="#f9f9f9"><path id="svgstoree6c2970bb7d600dac854c4a5d80ec860path2986" d="M45.64 67.776L27.023 47.553c-.26-.28-.656-.378-1.01-.247-.358.126-.603.454-.624.832l-1.107 19.106c-.024.448.267.84.68.96.066.02.137.03.207.032l19.723 1.12c.382.022.74-.19.905-.536.164-.35.1-.76-.158-1.044zm-8.043-.374c-.144.5-.666.788-1.166.647-.498-.145-.788-.665-.643-1.166l.546-1.9-4.27-1.222-.547 1.9c-.145.5-.665.79-1.163.647-.5-.143-.79-.664-.645-1.163l.543-1.903-3.043-.87c-.5-.143-.79-.664-.645-1.164.142-.5.663-.79 1.163-.646l3.046.87 1.2-4.18c.143-.5.665-.788 1.163-.646.5.144.79.665.646 1.166l-1.2 4.18 4.27 1.22.2-.69c.143-.5.663-.79 1.164-.647.5.142.788.663.646 1.164l-1.263 4.402z"/><path id="svgstoree6c2970bb7d600dac854c4a5d80ec860polygon2988" d="M55.43 43.376l1.267-4.41-4.274-1.223-1.264 4.412z"/><path id="svgstoree6c2970bb7d600dac854c4a5d80ec860rect2990" d="M54.19 31.498l4.27 1.222-1.263 4.414-4.27-1.222z"/><path id="svgstoree6c2970bb7d600dac854c4a5d80ec860polygon2992" d="M53.646 49.6l1.266-4.412-4.272-1.22-1.267 4.41z"/><path id="svgstoree6c2970bb7d600dac854c4a5d80ec860rect2994" d="M49.893 23.542l4.27 1.222-1.262 4.41-4.27-1.222z"/><path id="svgstoree6c2970bb7d600dac854c4a5d80ec860rect2996" d="M48.11 29.762l4.267 1.22-1.263 4.414-4.266-1.22z"/><path id="svgstoree6c2970bb7d600dac854c4a5d80ec860polygon2998" d="M59.003 30.93l1.264-4.414-4.272-1.22-1.267 4.41z"/><path id="svgstoree6c2970bb7d600dac854c4a5d80ec860polygon3000" d="M65.082 32.668l1.267-4.413-4.273-1.222-1.267 4.413z"/><path id="svgstoree6c2970bb7d600dac854c4a5d80ec860rect3002" d="M60.313 33.284l4.275 1.223-1.263 4.417-4.275-1.222z"/><path id="svgstoree6c2970bb7d600dac854c4a5d80ec860rect3004" d="M58.526 39.512l4.276 1.222-1.262 4.414-4.275-1.222z"/><path id="svgstoree6c2970bb7d600dac854c4a5d80ec860polygon3006" d="M59.727 51.338l1.267-4.412-4.27-1.22-1.268 4.41z"/><path id="svgstoree6c2970bb7d600dac854c4a5d80ec860polygon3008" d="M45.052 33.676l1.267-4.415-4.273-1.22-1.267 4.414z"/><path id="svgstoree6c2970bb7d600dac854c4a5d80ec860rect3010" d="M31.656 18.33l4.27 1.22-1.263 4.412-4.27-1.22z"/><path id="svgstoree6c2970bb7d600dac854c4a5d80ec860rect3012" d="M25.597 16.612l4.276 1.223-1.263 4.416-4.276-1.22z"/><path id="svgstoree6c2970bb7d600dac854c4a5d80ec860path3014" d="M87.158 13.583c-6.757-1.932-10.802-.773-10.974-.723-.307.093-.546.334-.635.645l-3.242 11.29-50.13-14.334c-.5-.142-1.02.148-1.164.648l-2.574 8.976-2.756-2.993c-.258-.278-.657-.378-1.01-.245-.357.125-.6.454-.623.832l-1.285 22.187-8.672 30.234c-.142.5.147 1.02.646 1.165l6.107 1.746-.342 5.92c-.026.448.266.84.676.96.068.02.14.03.21.033l29.49 1.673 24.74 7.075c10.754 3.075 12.335-2.44 13.184-5.404l14.75-51.414 2.172-7.577c1.074-3.744-1.838-8.766-8.568-10.692zM24.49 15.41c.143-.5.664-.79 1.164-.647L68 26.818c.497.145.788.666.644 1.165L59.147 61.1c-.145.5-.666.79-1.167.647-.498-.145-.787-.666-.645-1.165l2.1-7.317-4.272-1.22-1.062 3.7c-.144.5-.663.79-1.162.646-.5-.142-.79-.663-.647-1.163l1.063-3.7-5.177-1.48c-.5-.144-.79-.664-.645-1.165l1.526-5.318-4.272-1.22-.743 2.59c-.143.5-.665.79-1.165.646-.5-.143-.787-.663-.644-1.163l.743-2.592-5.174-1.48c-.5-.143-.79-.665-.647-1.163l1.525-5.318-4.273-1.223-.48 1.676c-.143.5-.664.79-1.164.648-.5-.143-.788-.665-.644-1.165l2.265-7.902-4.268-1.22-1.232 4.293c-.143.5-.664.792-1.165.65-.5-.146-.79-.667-.645-1.166l1.23-4.295-4.993-1.43c-.067-.003-.13.004-.193-.014-.5-.143-.79-.665-.647-1.165l1.798-6.258zM11.06 68.147c-.14.5-.662.788-1.162.646-.5-.144-.79-.665-.646-1.166l1.026-3.574c.143-.498.665-.79 1.163-.646.502.142.79.663.647 1.164l-1.026 3.576zm1.605 10.063l3.364-58.09 7.123 7.74-2.105 1.88c-.39.346-.423.94-.077 1.33.124.14.277.23.443.277.3.086.638.02.887-.202l2.13-1.9 2.41 2.618-2.118 1.89c-.39.347-.423.942-.077 1.33.124.14.277.23.442.278.3.087.64.02.887-.2l2.14-1.912 2.413 2.62-2.13 1.9c-.388.346-.42.942-.076 1.33.126.138.28.23.443.278.3.086.638.02.888-.203l2.15-1.92 2.412 2.62-2.14 1.91c-.39.344-.422.94-.075 1.328.122.14.276.232.44.28.302.086.637.02.888-.203l2.16-1.93 2.413 2.62-2.15 1.918c-.388.345-.423.942-.078 1.33.123.138.278.23.442.276.3.086.638.022.888-.2l2.17-1.94 2.413 2.622-2.16 1.927c-.39.346-.422.94-.077 1.33.124.138.277.23.44.277.302.086.64.02.888-.202l2.182-1.948 2.412 2.618-2.17 1.938c-.388.346-.422.94-.077 1.33.124.14.28.23.443.277.3.085.638.02.887-.202l2.194-1.957 2.41 2.62-2.178 1.945c-.39.347-.422.942-.077 1.33.122.137.277.23.44.278.3.085.638.02.887-.204l2.202-1.964 2.41 2.618-2.192 1.954c-.388.347-.424.942-.077 1.33.124.14.277.232.442.278.3.085.637.02.888-.202l2.214-1.977 2.41 2.62-2.2 1.965c-.39.347-.422.94-.076 1.328.122.14.277.23.44.28.302.086.64.02.888-.205l2.224-1.983 2.558 2.78-1.304 4.55c-.096.33-.004.684.24.924.24.243.596.333.928.237.025-.006 1.93-.51 5.23-.178l7.383 8.018-59.97-3.402zm65.78.395c-1.243-2.46-3.916-4.753-7.98-5.915-4.364-1.247-7.598-1.207-9.386-1.008l16.35-57.005c1.193-.21 4.537-.567 9.435.832 6.168 1.764 7.97 5.953 7.277 8.363L78.445 78.605z"/><path id="svgstoree6c2970bb7d600dac854c4a5d80ec860rect3016" d="M35.977 26.318l4.275 1.222-1.264 4.418-4.274-1.22z"/><path id="svgstoree6c2970bb7d600dac854c4a5d80ec860polygon3018" d="M40.76 25.71l1.263-4.41-4.273-1.222-1.266 4.41z"/><path id="svgstoree6c2970bb7d600dac854c4a5d80ec860polygon3020" d="M46.838 27.45l1.266-4.412-4.272-1.22-1.266 4.41z"/><path id="svgstoree6c2970bb7d600dac854c4a5d80ec860polygon3022" d="M49.348 41.637l1.266-4.412-4.27-1.22-1.267 4.41z"/><path id="svgstoree6c2970bb7d600dac854c4a5d80ec860rect3024" d="M40.275 34.29l4.275 1.22-1.262 4.416-4.275-1.222z"/></g></symbol><symbol viewBox="0 0 100 100" id="shape-blueprint2"><title>blueprint2</title><path id="svgstore9f55b6a97abe076df5530875b9de83f9blueprint-paper" d="M93.546 63.687L77.48 24.9c-.963-2.613-3.484-4.368-6.273-4.368h-1.063l3.87 11.03c-.81.525-1.773.832-2.807.832H28.792c-1.032 0-1.994-.307-2.804-.83l3.87-11.032H28.79c-2.785 0-5.306 1.755-6.26 4.34L6.454 63.687C5.504 65.292 5 67.132 5 69.005c0 5.77 4.693 10.463 10.46 10.463h69.08c5.768 0 10.46-4.693 10.46-10.463 0-1.873-.5-3.71-1.454-5.318zm-9.006 14.27H15.46c-4.937 0-8.952-4.013-8.952-8.952 0-1.62.44-3.208 1.27-4.59v-.005c1.61-2.684 4.553-4.356 7.682-4.356h.534l9.482-27.035c.978.56 2.11.883 3.316.883h42.414c1.207 0 2.34-.324 3.315-.884l9.485 27.034h.534c3.175 0 6.05 1.63 7.682 4.358.83 1.384 1.268 2.973 1.268 4.593 0 4.94-4.015 8.953-8.95 8.953z" class="blueprint-paper" fill="#3f1f10"/><path id="svgstore9f55b6a97abe076df5530875b9de83f9blueprint-design" d="M64.46 36.4c-4.306 0-7.48 2.75-7.085 6.142.307 2.673 3.058 4.94 6.687 5.782l.82 4.448-6.877.006c-1.53-2.38-5.043-4.09-8.988-4.086-3.946.004-7.416 1.718-8.89 4.103l-13.207.013-1.963 8.562c-4.256.85-7.848 3.125-8.645 5.802-1.012 3.398 3.363 6.148 9.777 6.136 6.41-.01 11.862-2.773 12.172-6.168.244-2.674-2.463-4.94-6.39-5.78l.718-4.46 7.185-.01c1.192 2.387 4.89 4.094 9.388 4.088 4.498-.007 8.152-1.72 9.29-4.106l13.796-.016-2.166-8.537c3.254-.848 5.013-3.115 4.15-5.785-1.094-3.388-5.47-6.134-9.775-6.134zM33.383 67.147c-.26 1.886-3.294 3.423-6.764 3.43-3.47.004-5.907-1.523-5.432-3.41.476-1.886 3.508-3.424 6.764-3.43 3.253-.003 5.692 1.528 5.433 3.41zm15.745-8.898c-3.08.003-5.516-1.525-5.43-3.41.085-1.882 2.484-3.414 5.348-3.418 2.865-.002 5.303 1.527 5.43 3.41.133 1.88-2.268 3.414-5.348 3.418zM66.552 45.95c-2.692.002-5.127-1.53-5.43-3.41-.306-1.88 1.46-3.41 3.934-3.41 2.475 0 4.913 1.527 5.432 3.407.52 1.88-1.246 3.41-3.936 3.413z" class="blueprint-design" fill="#21b899"/></symbol><symbol id="shape-flask"><title>flask</title><g id="svgstorec80e358a32e761ee3d7240a0ed21dd18g3890" fill="#f9f9ff"><path id="svgstorec80e358a32e761ee3d7240a0ed21dd18path3109-6" d="M46.603 95.366c-3.906-.716-5.608-1.227-8.146-2.447-2.784-1.338-4.913-2.868-7.29-5.24-3-2.993-4.75-5.69-6.258-9.644-1.16-3.034-1.446-4.856-1.445-9.148 0-3.07.067-4.093.34-5.263.184-.798.347-1.615.36-1.814.014-.2.074-.403.134-.453.06-.05.254-.54.43-1.09.315-.97 2.217-5.08 2.436-5.262.06-.05.413-.54.785-1.09.693-1.02.906-1.287 2.545-3.178 1.57-1.813 4.6-4.097 7.26-5.473l1.59-.822v-17.66l-.885-.406c-1.088-.5-1.904-1.305-2.528-2.496-.407-.778-.476-1.14-.482-2.54-.01-1.99.402-2.95 1.816-4.24 1.522-1.39 1.974-1.48 7.44-1.48l4.73.002-.007.953c-.006.524.052 1.174.126 1.444l.135.49-4.797.053c-4.517.05-4.827.076-5.298.428-1.294.968-1.624 2.204-.943 3.53.5.972 1.395 1.48 2.818 1.598l.96.08v22.225l-1.628.675c-3 1.243-5.92 3.273-8.174 5.683-4.123 4.408-6.348 10.06-6.35 16.13 0 1.112.048 2.264.107 2.562.107.536.122.542 1.588.648 1.456.105 3.513.67 5.176 1.425.885.4 1.783.817 5.926 2.74 2.617 1.216 3.887 1.63 4.182 1.447.096-.06.167.555.167 1.46v1.56l-.68-.123c-1.57-.286-2.71-.853-6.033-2.664-.6-.327-1.58-.86-2.177-1.182l-2.54-1.37c-1.807-.976-3.03-1.458-4.26-1.682l-.953-.173.118.74c.165 1.028.926 3.25 1.598 4.66 2 4.205 5.584 8.113 9.55 10.414 2.064 1.198 2.264 1.247 3.446.85.567-.192 1.84-.514 2.828-.716.987-.202 1.36-.56 1.945-.602l9.367.495c.473.065 1.627.316 2.565.56l1.703.44 1.2-.657c1.883-1.032 3.426-2.19 5.16-3.873 1.542-1.496 3.57-3.936 3.57-4.293 0-.095-.96-.358-2.132-.585-1.172-.227-3.07-.613-4.22-.857-2.575-.55-4.532-.576-6.363-.09-.742.198-1.41.36-1.485.364-.075 0-.136-.51-.136-1.14v-1.142l1.274-.22c3.058-.523 4.838-.22 10.757 1.836l2.865.995.632-1.256c1.97-3.913 2.855-8.477 2.44-12.603-.42-4.192-1.644-7.657-3.974-11.24-1.057-1.625-4.634-5.212-6.28-6.297-1.583-1.043-3.735-2.155-3.934-2.032-.083.052-.15.016-.15-.08 0-.094-.204-.222-.454-.285l-.454-.114V24.222l.908-.232c1.327-.34 2.178-1.37 2.177-2.636 0-1.222-.496-2.02-1.54-2.48-.748-.332-.793-.39-.63-.817.096-.253.174-.91.174-1.46v-1.002l.59.128c2.93.635 4.902 3.686 4.313 6.678-.274 1.395-1.213 2.843-2.28 3.52l-.795.503-.003 9.166-.003 9.165 1.43.762c2.12 1.13 4.397 2.827 6.257 4.667.908.898 1.7 1.62 1.758 1.606.058-.015.106.07.107.19.002.188 1.59 2.604 1.873 2.847.356.307 2.212 4.38 2.688 5.9.958 3.055 1.2 4.72 1.196 8.256-.004 3.37-.197 4.738-1.103 7.803-.4 1.35-2.48 5.882-2.757 6.17-.014.015-1.295 1.8-1.295 1.9 0 .158-1.598 1.89-3.02 3.273-3.44 3.347-8.065 5.808-12.95 6.894-1.323.294-7.63.545-8.712.346z"/><path id="svgstorec80e358a32e761ee3d7240a0ed21dd18path3107-4" d="M67.885 74.97c-1.434-.473-2.204-1.55-2.21-3.093-.006-1.88 1.295-3.17 3.204-3.172.942 0 1.48.2 2.218.837.718.617 1.01 1.466.924 2.68-.074 1.033-.497 1.778-1.348 2.376-.438.308-.693.38-1.495.426-.533.03-1.115.005-1.295-.054z"/><path id="svgstorec80e358a32e761ee3d7240a0ed21dd18path5906" d="M54.727 89.54V77.1l6.835.17c1.725.042 3.147-.83 3.147-1.86V61.32c0-1.056-1.404-1.915-3.098-1.915-1.695 0-3.046.86-3.046 1.916v12.23h-3.738V50.768c0-1.89-2.197-3.382-4.924-3.382-2.724 0-4.925 1.493-4.925 3.382v13.524h-3.143v-5.24c0-.72-.928-1.297-2.082-1.297-1.15 0-2.08.577-2.08 1.297V65.645c0 .74 1.06 1.352 2.334 1.352h4.97V89.54"/><path id="svgstorec80e358a32e761ee3d7240a0ed21dd18path3105-8" d="M49.226 32.18c-1.695-.644-2.59-2.034-2.59-4.025 0-2.524 1.657-4.173 4.174-4.152 1.937.015 3.02.635 3.884 2.22.468.86.506 1.06.4 2.096-.196 1.91-.806 2.933-2.197 3.677-.87.466-2.687.556-3.67.183z"/><path id="svgstorec80e358a32e761ee3d7240a0ed21dd18path3103-0" d="M52.797 19.185c-1.394-.736-1.882-1.992-1.527-3.934.148-.806.976-1.72 1.866-2.06.597-.225 1.912-.213 2.543.025 2.433.918 2.758 4.58.522 5.89-.97.568-2.417.603-3.405.08z"/><path id="svgstorec80e358a32e761ee3d7240a0ed21dd18path3099-6" d="M47.227 9.41c-1.735-.855-1.76-3.86-.04-4.732.245-.124.903-.228 1.46-.23.888-.002 1.1.073 1.707.597.615.532.702.71.776 1.608.06.726-.005 1.198-.234 1.68-.574 1.21-2.345 1.73-3.67 1.078z"/></g></symbol><symbol id="shape-flask2"><title>flask2</title><g id="svgstorefffac6bfa9a4acc8a116013b9caa5cf3layer1" fill="#201e1d"><path d="M46.32 99.922c-4.293-.787-6.164-1.35-8.954-2.69-3.06-1.47-5.4-3.15-8.012-5.76-3.296-3.287-5.22-6.252-6.877-10.597-1.273-3.334-1.59-5.336-1.587-10.053 0-3.374.073-4.5.372-5.784.203-.878.382-1.776.397-1.995.014-.22.08-.444.146-.5.066-.054.28-.592.475-1.195.346-1.066 2.436-5.584 2.677-5.785.066-.055.454-.593.863-1.197.76-1.123.995-1.415 2.796-3.494 1.726-1.992 5.057-4.502 7.98-6.015l1.745-.903v-19.41l-.97-.446c-1.196-.55-2.093-1.435-2.778-2.744-.448-.856-.524-1.253-.53-2.793-.01-2.186.44-3.242 1.995-4.66 1.674-1.526 2.17-1.625 8.18-1.624h5.195l-.008 1.047c-.005.576.06 1.29.14 1.587l.15.54-5.274.058c-4.965.056-5.305.083-5.823.47-1.422 1.063-1.785 2.42-1.037 3.878.55 1.07 1.533 1.627 3.098 1.757l1.054.087v24.428l-1.788.74c-3.297 1.367-6.506 3.598-8.984 6.247-4.53 4.842-6.977 11.055-6.98 17.727 0 1.22.053 2.487.12 2.814.117.59.133.597 1.744.713 1.6.116 3.86.738 5.688 1.566.974.44 1.96.897 6.514 3.012 2.877 1.335 4.272 1.79 4.596 1.59.107-.066.184.61.184 1.602v1.716l-.748-.135c-1.724-.314-2.977-.936-6.63-2.927-.657-.36-1.735-.943-2.393-1.298l-2.792-1.508c-1.984-1.07-3.328-1.6-4.68-1.847l-1.048-.19.13.816c.18 1.13 1.017 3.57 1.756 5.122 2.2 4.62 6.138 8.915 10.496 11.444 2.27 1.316 2.49 1.37 3.788.933.623-.21 2.022-.564 3.108-.786 1.085-.222 1.496-.617 2.138-.662l10.295.544c.52.07 1.788.346 2.818.613l1.873.484 1.318-.722c2.07-1.134 3.767-2.407 5.673-4.257 1.693-1.644 3.923-4.325 3.923-4.718 0-.104-1.054-.393-2.343-.643-1.29-.25-3.376-.674-4.638-.942-2.833-.603-4.984-.633-6.996-.098-.815.217-1.55.396-1.632.4-.082.002-.15-.56-.15-1.252v-1.256l1.4-.24c3.362-.577 5.318-.243 11.823 2.016l3.15 1.094.694-1.38c2.165-4.3 3.136-9.316 2.68-13.85-.46-4.61-1.807-8.417-4.368-12.355-1.16-1.785-5.092-5.727-6.902-6.92-1.74-1.146-4.105-2.368-4.323-2.232-.09.055-.165.016-.165-.088 0-.105-.224-.246-.5-.315l-.497-.125V21.73l.997-.255c1.458-.374 2.394-1.507 2.393-2.898 0-1.342-.545-2.22-1.693-2.726-.822-.363-.87-.427-.693-.896.105-.278.19-1 .19-1.606v-1.1l.65.14c3.22.697 5.387 4.05 4.74 7.34-.302 1.532-1.333 3.124-2.505 3.866l-.874.554-.002 10.073-.003 10.074 1.57.836c2.332 1.24 4.835 3.108 6.878 5.13 1 .987 1.87 1.782 1.933 1.765.064-.016.117.077.118.208.002.208 1.747 2.864 2.058 3.13.39.337 2.43 4.813 2.955 6.483 1.053 3.36 1.317 5.19 1.314 9.076-.002 3.705-.215 5.208-1.21 8.576-.44 1.484-2.725 6.465-3.03 6.782-.015.016-1.423 1.978-1.423 2.087 0 .174-1.757 2.078-3.32 3.598-3.782 3.678-8.864 6.383-14.233 7.576-1.454.324-8.384.6-9.574.382z" id="svgstorefffac6bfa9a4acc8a116013b9caa5cf3path3109-6" class="flask"/><path d="M55.247 93.517v-13.67l7.512.185c1.896.047 3.46-.91 3.46-2.043V62.504c0-1.162-1.543-2.106-3.405-2.106-1.863 0-3.348.943-3.348 2.105v13.44H55.36v-25.04c0-2.075-2.416-3.715-5.413-3.715-2.993 0-5.413 1.64-5.413 3.716V65.77H41.08v-5.76c0-.79-1.02-1.424-2.287-1.424-1.263 0-2.288.634-2.288 1.425v7.247c0 .815 1.166 1.486 2.567 1.486h5.462v24.774" id="svgstorefffac6bfa9a4acc8a116013b9caa5cf3path5906"/><g id="svgstorefffac6bfa9a4acc8a116013b9caa5cf3bubbles"><path id="svgstorefffac6bfa9a4acc8a116013b9caa5cf3path3107-4" d="M69.71 77.506c-1.577-.52-2.423-1.705-2.43-3.4-.007-2.066 1.423-3.482 3.52-3.486 1.038-.002 1.63.22 2.44.92.79.678 1.11 1.612 1.015 2.946-.08 1.135-.545 1.954-1.48 2.61-.482.34-.763.42-1.644.47-.584.032-1.224.005-1.42-.06z" class="bubble1"/><path id="svgstorefffac6bfa9a4acc8a116013b9caa5cf3path3105-8" d="M49.202 30.478c-1.863-.707-2.847-2.236-2.847-4.424 0-2.774 1.822-4.586 4.588-4.563 2.13.018 3.32.7 4.27 2.442.513.945.555 1.165.438 2.303-.214 2.1-.885 3.224-2.413 4.042-.956.51-2.954.61-4.035.2z" class="bubble2"/><path id="svgstorefffac6bfa9a4acc8a116013b9caa5cf3path3103-0" d="M53.126 16.196c-1.53-.81-2.067-2.19-1.677-4.324.16-.886 1.072-1.89 2.05-2.263.655-.25 2.1-.237 2.794.024 2.676 1.01 3.033 5.033.574 6.473-1.066.625-2.655.663-3.742.09z" class="bubble3"/><path id="svgstorefffac6bfa9a4acc8a116013b9caa5cf3path3099-6" d="M47.005 5.453c-1.907-.94-1.936-4.244-.045-5.2.27-.138.993-.25 1.606-.253.975-.003 1.208.08 1.875.655.678.586.773.782.855 1.768.066.798-.006 1.316-.257 1.845-.632 1.33-2.578 1.903-4.033 1.185z" class="bubble4"/></g></g></symbol><symbol viewBox="5 -10 100 135" id="shape-global"><title>global</title><g id="svgstore124bc74369b686aff341643173001d12g3002" fill="#201e1d"><path id="svgstore124bc74369b686aff341643173001d12path3" d="M55 68.86L44.284 50.073S27.75 53.22 30.406 63.59c2.586 10.117 5.173 20.227 7.76 30.337.832 3.258 3.765 5.536 7.125 5.536H64.71c3.36 0 6.292-2.278 7.124-5.536 2.59-10.11 5.173-20.22 7.758-30.336 2.657-10.37-13.876-13.516-13.876-13.516C62.144 56.336 58.572 62.6 55 68.86z"/><path id="svgstore124bc74369b686aff341643173001d12path5" d="M38.368 25.803c-.405-.33-.807-.667-1.21-1-1.04-.863-2.34-1.34-3.69-1.358l-4.916-.058c-1.386-.018-2.738.457-3.812 1.342-.3.243-.598.487-.897.736-1.47 1.21-2.266 3.055-2.134 4.952.346 5.04.697 10.077 1.044 15.114.102 1.503.782 2.907 1.887 3.93.825.755 1.645 1.51 2.468 2.265 2.227 2.048 5.64 2.075 7.9.06.86-.76 1.717-1.523 2.576-2.286 1.158-1.03 1.865-2.477 1.963-4.022l.77-12.193-.337-5.357c-.382-.854-.894-1.524-1.612-2.125z"/><path id="svgstore124bc74369b686aff341643173001d12path7" d="M69.967 28.055l-.324 4.658c.272 4.25.542 8.506.81 12.764.1 1.546.806 2.993 1.963 4.023.86.763 1.715 1.527 2.575 2.287 2.258 2.014 5.672 1.987 7.9-.06.823-.756 1.648-1.512 2.467-2.268 1.107-1.023 1.787-2.427 1.89-3.93.346-5.036.697-10.074 1.044-15.114.133-1.896-.663-3.74-2.135-4.95-.3-.25-.596-.494-.895-.74-1.076-.883-2.426-1.358-3.81-1.34-1.64.02-3.28.04-4.92.058-1.35.018-2.65.495-3.688 1.36-.4.33-.804.667-1.21.998-.757.635-1.285 1.342-1.665 2.253z"/><path id="svgstore124bc74369b686aff341643173001d12path9" d="M87.617 51.46s13.44 2.562 11.28 10.992l-6.312 24.66c-.673 2.648-3.06 4.497-5.79 4.497H76.222c2.313-9.036 4.623-18.072 6.934-27.11.184-.716.31-1.446.37-2.183.053-.74.044-1.478-.04-2.216-.038-.34-.094-.687-.17-1.03-.003-.02-.007-.035-.012-.053 1.44-2.52 2.875-5.032 4.312-7.556z"/><path id="svgstore124bc74369b686aff341643173001d12path11" d="M26.692 59.015c-.16.734-.24 1.483-.253 2.227-.014 1.098.13 2.193.402 3.258l6.932 27.108H23.202c-2.73 0-5.115-1.85-5.79-4.498l-6.31-24.66c-2.157-8.428 11.28-10.99 11.28-10.99 1.44 2.525 2.872 5.038 4.31 7.555z"/><path id="svgstore124bc74369b686aff341643173001d12path13" d="M55-3.25C21.447-3.25-5.75 23.946-5.75 57.5c0 33.55 27.197 60.75 60.75 60.75s60.75-27.2 60.75-60.75c0-33.554-27.197-60.75-60.75-60.75zm40.325 101.006c-.004.065-.004.13-.008.195-.023.52-.047 1.04-.08 1.554-.28 4.208-1 8.264-2.19 12.312s-2.775 7.847-4.815 11.54c-.508.914-1.04 1.816-1.596 2.702-.275.44-.56.874-.847 1.31-.01.015-.022.09-.057.08-.028-.015-.06-.023-.09-.035-.057-.026-.122-.05-.18-.077-.12-.047-.246-.092-.366-.143-.24-.096-.487-.19-.73-.286-1.948-.762-3.91-1.466-5.89-2.127-.1.385-.203.773-.3 1.16-.214.84-.54 1.598-1 2.333 1.347.445 2.678.914 4.007 1.408.663.25 1.32.494 1.976.753.085.03.166.063.248.096.034.015.103.02.065.066l-.082.104c-.107.143-.22.288-.33.423-.223.282-.45.564-.678.843-1.81 2.198-3.757 4.237-5.877 6.144-4.29 3.872-8.906 6.92-14.146 9.356-2.583 1.2-5.223 2.19-7.958 2.997-.672.197-1.35.386-2.03.56-.084.02-.17.042-.257.06-.04.01-.083.022-.125.028-.023.006-.042.013-.065.018-.03.008.027-.024.035-.033.14-.11.273-.23.41-.346.264-.24.534-.478.793-.718 1.04-.983 2.006-2.015 2.923-3.116 3.598-4.32 6.348-9.548 8.387-14.728h-4.02c-1.9 4.53-4.428 9.134-7.685 12.884-3.204 3.684-7.482 6.947-12.628 7.59v-12.627h-3.618v12.626c-5.145-.642-9.423-3.905-12.623-7.584-3.262-3.75-5.79-8.355-7.69-12.888h-4.022c2.038 5.18 4.787 10.407 8.387 14.728.916 1.1 1.88 2.133 2.925 3.112.26.244.523.48.79.72.136.116.272.232.408.345.014.012.075.046.04.035l-.064-.016c-.042-.008-.086-.02-.128-.03-.085-.017-.17-.04-.255-.06-.678-.173-1.355-.36-2.03-.56-2.734-.8-5.37-1.792-7.953-2.996-5.243-2.433-9.857-5.484-14.152-9.356-2.118-1.907-4.062-3.944-5.874-6.144-.23-.276-.453-.558-.676-.843-.112-.137-.22-.28-.334-.423l-.08-.105c-.037-.046.03-.05.063-.068.083-.032.164-.06.245-.095.657-.258 1.317-.504 1.977-.752 1.328-.495 2.663-.963 4.007-1.408-.458-.736-.783-1.494-1-2.335-.097-.386-.196-.773-.298-1.158-1.98.66-3.946 1.364-5.892 2.125-.243.096-.488.19-.732.287-.12.05-.242.095-.36.143-.064.027-.126.05-.186.078l-.09.034c-.034.012-.046-.065-.054-.08-.29-.435-.57-.87-.848-1.315-.557-.88-1.087-1.783-1.593-2.697-2.04-3.694-3.63-7.494-4.82-11.544-1.188-4.045-1.908-8.104-2.186-12.31-.032-.515-.06-1.038-.082-1.55l-.006-.197c.006-.056-.04-.14.054-.14H-8.027c.082-.516.21-1.02.383-1.51.177-.5.404-.986.67-1.446.154-.265.32-.526.498-.77h-12.13c-.11 0-.054-.1-.052-.165.02-.584.05-1.16.09-1.744.313-4.752 1.187-9.282 2.65-13.812 1.47-4.528 3.424-8.713 5.955-12.74.157-.25.313-.492.473-.74.08-.12.16-.248.24-.367l.12-.184c.01-.018.034-.095.063-.084.034.018.068.028.102.045.548.214 1.095.43 1.64.644 1.1.42 2.203.83 3.316 1.228 2.22.78 4.452 1.498 6.713 2.16.02-1.302.308-2.45.904-3.616-2.898-.85-5.756-1.803-8.587-2.866-.343-.13-.69-.262-1.036-.397-.172-.068-.345-.134-.517-.2-.085-.03-.17-.064-.257-.1-.06-.023-.004-.062.02-.092.03-.037.058-.077.088-.112.46-.595.936-1.18 1.42-1.758.985-1.162 2.01-2.283 3.082-3.368 4.332-4.374 9.065-7.833 14.547-10.637 2.7-1.383 5.467-2.53 8.352-3.467.71-.233 1.43-.446 2.153-.654.362-.102.722-.197 1.08-.292l.546-.14.134-.033c.03-.008.147-.058.098-.013-.076.06-.147.12-.22.183-1.156.99-2.222 2.06-3.23 3.2-3.96 4.48-6.93 10.056-9.09 15.55 1.334.018 2.666.032 4 .048 1.898-4.542 4.425-9.156 7.688-12.913 3.202-3.692 7.49-6.967 12.643-7.614v12.68c1.206-.012 2.41-.028 3.618-.04v-12.64c5.154.647 9.436 3.92 12.64 7.61 3.265 3.758 5.797 8.377 7.69 12.918 1.336-.016 2.668-.03 4.003-.047-2.16-5.494-5.13-11.07-9.086-15.55-1.01-1.142-2.08-2.212-3.235-3.2-.072-.065-.143-.125-.217-.185-.05-.044.066.006.098.014l.136.032c.18.044.36.09.542.14.36.093.72.19 1.082.29.722.21 1.44.424 2.153.656 2.887.937 5.658 2.083 8.358 3.467 5.485 2.806 10.212 6.265 14.547 10.643 1.07 1.08 2.095 2.203 3.076 3.366.483.576.962 1.16 1.425 1.755.028.036.057.076.085.11l.043.057c.02.025-.01.03-.027.035-.085.036-.17.07-.256.104-.175.064-.345.13-.518.197l-1.04.396c-2.827 1.06-5.686 2.015-8.582 2.864.595 1.165.883 2.314.905 3.616 2.262-.66 4.496-1.38 6.714-2.16 1.11-.4 2.216-.81 3.31-1.228.55-.212 1.094-.428 1.642-.644.03-.016.067-.028.1-.045.034-.012.054.067.063.084l.12.184c.085.12.162.248.243.368.162.247.314.49.474.738 2.53 4.03 4.482 8.214 5.953 12.742 1.463 4.53 2.336 9.06 2.65 13.81.04.585.07 1.16.092 1.746 0 .063.06.163-.05.163H83.144c.178.247.342.506.494.77.267.46.495.947.673 1.447.174.49.3.995.38 1.51h10.588c.094 0 .043.087.043.142z"/><path id="svgstore124bc74369b686aff341643173001d12path15" d="M66.55 24.185c-.433 6.198-.86 12.394-1.29 18.59-.128 1.85-.957 3.578-2.323 4.836L59.9 50.4c-2.737 2.515-6.94 2.553-9.717.076-1.054-.94-2.11-1.88-3.168-2.815-1.423-1.27-2.29-3.047-2.414-4.953-.38-6.052-.763-12.11-1.15-18.163-.146-2.313.822-4.556 2.604-6.036.495-.412.992-.82 1.49-1.233 1.276-1.06 2.88-1.65 4.54-1.668 2.01-.026 4.027-.05 6.044-.073 1.71-.02 3.372.564 4.687 1.647.37.306.74.61 1.107.91 1.806 1.49 2.787 3.76 2.627 6.095z"/></g></symbol><symbol viewBox="0 0 99.999999 99.999999" id="shape-mobile"><title>mobile</title><path d="M94.346 8.89H36.342c-.636 0-1.153.527-1.153 1.178v25.795l-1.353-.45s-.862-.283-3.4-1.122c-5.278-1.745-10.26-2.817-12.102 2.745L4.885 77.683c-1.692 5.118 2.502 8.158 6.38 9.44l4.92 1.63 4.924 1.628c3.877 1.284 9.055 1.346 10.75-3.774.292-.887 1.616-4.886 3.33-10.065v13.212c0 .647.516 1.177 1.154 1.177h58.003c.636 0 1.153-.526 1.153-1.178V10.068c0-.65-.52-1.178-1.154-1.178zm-28.284 3.133c.847 0 1.536.702 1.536 1.567s-.69 1.568-1.536 1.568c-.847 0-1.532-.703-1.532-1.568 0-.866.686-1.567 1.532-1.567zm-36.97 24.22l7.99 2.644c.188.062.294.267.232.456-.063.19-.27.294-.396.252l-7.995-2.646c-.247-.082-.353-.288-.29-.48.062-.187.27-.29.458-.226zM20.28 86.616c-.073.223-.493 1.153-1.446.84l-1.998-.662-1.996-.66c-.956-.316-.74-1.313-.664-1.537.124-.372.525-.337 1.296-.08l1.91.63 1.91.635c.767.255 1.11.463.988.835zm9.846-.313l-23.668-7.83 13.88-41.945 23.668 7.83-13.88 41.945zm35.217 1.59c-.974 0-1.764-.805-1.764-1.8 0-.99.786-1.797 1.763-1.797.977 0 1.764.807 1.764 1.798 0 .994-.788 1.8-1.764 1.8zm26.652-7.904c0 .65-.514 1.177-1.153 1.177H39.847c-.637 0-1.152-.523-1.152-1.177V65.944l6.612-19.986c1.667-5.04-1.985-7.245-6.612-8.914v-18.88c0-.65.515-1.176 1.152-1.176H90.84c.638 0 1.153.527 1.153 1.177v61.823z" id="svgstore3098c43952a8d245278ccbb621776ed5path7" fill="#f9f9f9"/></symbol><symbol id="shape-mobile2"><title>mobile2</title><g id="svgstore1258fb5e9490eaf566d5fd234b88481blayer1" fill="#201e1d"><path d="M93.828 9.57h-58.32c-.642 0-1.16.52-1.16 1.16v78.534c0 .642.52 1.16 1.16 1.16H93.83c.64 0 1.16-.518 1.16-1.16V10.73c0-.64-.52-1.16-1.162-1.16zM44.475-2.575c.514 0 .93.415.93.928 0 .513-.417.928-.93.928-.51 0-.926-.414-.926-.927 0-.513.416-.928.927-.928zm-5.024 75.384c-.98 0-1.774-.796-1.774-1.774 0-.98.794-1.775 1.774-1.775s1.773.797 1.773 1.776c0 .98-.794 1.773-1.774 1.773zm26.798 5.114c0 .64-.52 1.16-1.16 1.16H23.91c-.64 0-1.16-.52-1.16-1.16V24.56c0-.64.518-1.16 1.16-1.16h51.273c.64 0 1.16.52 1.16 1.16v60.934z" id="svgstore1258fb5e9490eaf566d5fd234b88481bpath105" class="mobile-tablet"/><path d="M27.384 40.407H9.154c-2.283 0-4.14 1.858-4.14 4.142v41.768c0 2.285 1.856 4.142 4.14 4.142h18.23c2.284 0 4.142-1.857 4.142-4.142v-41.77c0-2.283-1.86-4.14-4.142-4.14zm29.36-39.266h4.625c.202 0 .367.165.367.37 0 .2-.165.366-.368.366h-4.626c-.204 0-.368-.165-.368-.367 0-.205.164-.37.368-.37zM39.108 49.96c0 .45-.365.815-.815.815h-4c-.45 0-.816-.366-.816-.816v-.38c0-.45.365-.814.815-.814h4c.45 0 .815.365.815.815v.38zM69.63 139.58h-23.48V51.947h23.48v41.27z" id="svgstore1258fb5e9490eaf566d5fd234b88481bpath114" class="mobile-phone"/></g></symbol><symbol viewBox="0 0 100 100" id="shape-open"><title>open</title><g id="svgstoreedd5a026bf32de3f0d3535f863cf7c0ag2993" fill="#f9f9f9"><path id="svgstoreedd5a026bf32de3f0d3535f863cf7c0apath5" d="M69.003 23.983v5.546l8.757 4.202-27.538 15.734c2.89 2.337 2.424-1.466.046-.04l-.075.023L22.24 33.73l8.67-4.174V24.04l-15.18 7.3c-.006 0-.023-.004-.03 0-.094.045-.172.087-.262.145-.015.01-.043.02-.058.03-.075.052-.135.113-.205.174-.015.013-.043.043-.058.057-.077.07-.164.123-.233.205-.007.008.006.02 0 .03-.058.07-.125.155-.176.232-.016.027-.013.062-.03.088-.015.025-.043.032-.057.058-.023.046-.035.1-.058.146-.01.022-.048.036-.058.06-.042.095-.06.193-.088.29l-.03.06c-.023.088-.042.173-.057.262-.004.02.002.036 0 .058-.015.107-.03.243-.03.35V74.6c0 .907.492 1.748 1.284 2.19l33.22 18.39c.085.047.168.107.262.145.017.006.04-.007.058 0 .073.026.128.066.205.087.024.008.06.024.086.03.07.017.16.018.234.03.025.003.034-.004.058 0 .096.01.193.028.292.028.1 0 .197-.018.292-.03.024-.002.062.005.087 0 .073-.01.133-.01.204-.028.025-.006.062-.022.087-.03.08-.02.132-.06.206-.087.017-.007.04.006.058 0 .094-.038.176-.098.263-.146 0-.002.027 0 .03 0l33.19-18.39c.792-.442 1.283-1.283 1.283-2.19V33.585c0-.11-.015-.24-.03-.35-.002-.02.005-.04 0-.058-.014-.093-.032-.172-.057-.263-.006-.017-.025-.043-.03-.058-.03-.1-.07-.195-.116-.292-.01-.02.01-.038 0-.06-.022-.046-.062-.098-.088-.145-.016-.026-.042-.032-.06-.058-.013-.026-.01-.06-.028-.088-.053-.077-.117-.163-.176-.233-.07-.08-.156-.162-.233-.233-.018-.015-.04-.043-.058-.058-.066-.06-.132-.096-.205-.147-.018-.013-.04-.046-.058-.058-.086-.057-.17-.1-.263-.146-.01-.005-.024.002-.03 0zM79.328 36.64v.03l-4.7 2.598zm-60.592 1.058L47.654 53.89v35.262L19.426 73.594zm57.085.006v35.32L48.314 89.19V53.984l14.1-7.91z"/><path id="svgstoreedd5a026bf32de3f0d3535f863cf7c0apath3071" d="M64.066 22.958c-1.086 0-1.965.888-1.965 1.98 0 1.086.88 1.974 1.966 1.974 1.077 0 1.956-.888 1.956-1.975 0-1.092-.88-1.98-1.956-1.98z"/><path id="svgstoreedd5a026bf32de3f0d3535f863cf7c0apath3073" d="M35.9 22.958c-1.082 0-1.96.888-1.96 1.98 0 1.086.878 1.974 1.96 1.974 1.08 0 1.96-.888 1.96-1.975 0-1.092-.88-1.98-1.96-1.98z"/><path id="svgstoreedd5a026bf32de3f0d3535f863cf7c0apath3075" d="M58.232 19.358c-1.605 0-2.912 1.32-2.912 2.94 0 1.63 1.307 2.95 2.912 2.95 1.612 0 2.922-1.32 2.922-2.95 0-1.62-1.31-2.94-2.922-2.94z"/><path id="svgstoreedd5a026bf32de3f0d3535f863cf7c0apath3077" d="M67.28 37.263h-3.318v-6.175c0-1.06-.307-2.047-.807-2.905.292-.086.59-.15.91-.15 1.772 0 3.215 1.463 3.215 3.255v5.975z"/><path id="svgstoreedd5a026bf32de3f0d3535f863cf7c0apath3079" d="M41.725 19.358c-1.605 0-2.912 1.32-2.912 2.94 0 1.63 1.307 2.95 2.912 2.95s2.916-1.32 2.916-2.95c0-1.62-1.31-2.94-2.915-2.94z"/><path id="svgstoreedd5a026bf32de3f0d3535f863cf7c0apath3081" d="M35.9 28.032c.32 0 .614.065.91.15-.503.86-.808 1.845-.808 2.906v6.175h-3.32v-5.975c0-1.792 1.448-3.256 3.22-3.256z"/><path id="svgstoreedd5a026bf32de3f0d3535f863cf7c0apath3083" d="M49.98 13.47c-2.375 0-4.308 1.957-4.308 4.352 0 2.404 1.933 4.356 4.307 4.356 2.373 0 4.312-1.952 4.312-4.356 0-2.395-1.94-4.35-4.313-4.35z"/><path id="svgstoreedd5a026bf32de3f0d3535f863cf7c0apath3085" d="M62.893 39.563H57.8v-9.395c0-1.297-.333-2.5-.878-3.57.415-.13.853-.217 1.31-.217 2.568 0 4.66 2.11 4.66 4.708v8.475z"/><path id="svgstoreedd5a026bf32de3f0d3535f863cf7c0apath3087" d="M42.154 30.168v9.395H37.07v-8.475c0-2.598 2.087-4.707 4.656-4.707.46 0 .895.09 1.31.218-.545 1.07-.882 2.273-.882 3.57z"/><path id="svgstoreedd5a026bf32de3f0d3535f863cf7c0apath3089" d="M43.22 42.28H56.74V30.17c0-3.77-3.032-6.83-6.76-6.83-3.732 0-6.757 3.06-6.757 6.83V42.28z"/><path id="svgstoreedd5a026bf32de3f0d3535f863cf7c0apath3091" d="M79.128 4.5H63.855c-2.433 0-4.413 1.543-4.413 3.442v5.64c0 1.902 1.98 3.447 4.413 3.447h1.56v4.507l5.78-4.508h7.933c2.433 0 4.413-1.546 4.413-3.448v-5.64c0-1.9-1.978-3.442-4.412-3.442zm2.852 7.163c0 1.22-1.27 2.212-2.828 2.212h-8.587l-3.54 2.764v-2.765h-3.147c-1.558 0-2.828-.99-2.828-2.212v-5.64c0-1.22 1.27-2.21 2.828-2.21h15.274c1.558 0 2.828.99 2.828 2.21v5.64z"/></g></symbol><symbol viewBox="0 0 100 100" id="shape-privacy"><title>privacy</title><g id="svgstore38981805193c4f6393223cb6e811a387g2992" fill="#f9f9f9"><path id="svgstore38981805193c4f6393223cb6e811a387path3" d="M62.7 22.2V25c13.1 5 22.5 17.7 22.5 32.6 0 19.1-15.6 34.7-34.7 34.7-19.2 0-34.7-15.6-34.7-34.7 0-14.7 9.2-27.3 22.2-32.4v-2.9c-14.5 5.2-24.9 19-24.9 35.2C13.1 78.2 29.9 95 50.5 95s37.4-16.8 37.4-37.4c0-16.4-10.5-30.3-25.2-35.4z"/><path id="svgstore38981805193c4f6393223cb6e811a387path5" d="M59.6 58.9"/><path id="svgstore38981805193c4f6393223cb6e811a387path7" d="M61.4 48.2c0-6-4.8-10.8-10.8-10.8-5.9 0-10.7 4.8-10.8 10.6 0 .3-.1 2.8-.1 2.8s-.1.6-.3.8l-.5.6c-.2.2-.3.5-.3.9 0 0 0 .6.1 1.3 0 0 .4 2.8 1.5 3.7 0 0 1.8 1.1 2.1 1.5.3.4.6 1.1.6 2.3 0 0 .4 4.4-1.6 6.2-.5.4-1 .7-1.3.8l-11 5.2-2.1 1c-.5.3-.9.8-.9 1.5v.4c0 .1 0 .2.1.3.1.1.2.4.4.7.5.6 1.7 2 4.1 3.9h.1c5.3 4.2 12 6.8 19.3 6.8h1c7.3 0 14-2.5 19.3-6.8h.1c2.4-1.9 3.6-3.3 4.1-3.9.2-.3.3-.5.4-.7 0-.1.1-.2.1-.3v-.4c0-.6-.4-1.2-.9-1.5l-2.1-1-11-5.2c-.3-.1-.8-.4-1.3-.8-2-1.8-1.6-6.2-1.6-6.2 0-1.1.3-1.8.6-2.3.3-.4 2.1-1.5 2.1-1.5 1.1-.9 1.5-3.7 1.5-3.7.1-.8.1-1.3.1-1.3 0-.4-.1-.8-.3-.9l-.5-.6c-.2-.2-.3-.8-.3-.8"/><path id="svgstore38981805193c4f6393223cb6e811a387path9" d="M57.5 30.3c1.4 0 2.6-1.1 2.6-2.6v-10c0-1.4-1.1-2.5-2.4-2.5v-2.9c0-4-3.3-7.3-7.3-7.3s-7.3 3.3-7.3 7.3v2.9c-1.3.1-2.4 1.2-2.4 2.5v10c0 1.4 1.1 2.6 2.6 2.6h14.2zm-5.1-6c0 1.1-.9 2.1-2 2.1s-2-.9-2-2.1v-3.2c0-1.1.9-2.1 2-2.1s2 .9 2 2.1v3.2zm.8-12v2.8h-5.6v-2.8c0-.6 0-1.2.2-1.7 0-.1 0-.1.1-.2 0-.1 0-.2.1-.2.1-.2.1-.3.2-.4v-.1c.5-.8 1.3-1.4 2.3-1.4 1 .1 1.8.6 2.3 1.4v.1c.1.1.1.3.2.4 0 .1 0 .2.1.2 0 .1 0 .1.1.2-.1.5 0 1.1 0 1.7z"/></g></symbol><symbol viewBox="5.0 -10.0 100.0 135.0" id="shape-target"><title>target</title><g id="svgstore51e0b6095a1debeb6e36f875358132c5g3798" fill="#f9f9f9"><path id="svgstore51e0b6095a1debeb6e36f875358132c5path3" d="M73.092 50.155l7.56-4.21c-1.31-2.172-2.837-4.25-4.593-6.197L69.867 45.8c1.214 1.38 2.288 2.836 3.224 4.355z"/><path id="svgstore51e0b6095a1debeb6e36f875358132c5path5" d="M68.488 89.39c-12.447 12.45-32.625 12.45-45.072.002-12.446-12.446-12.446-32.625 0-45.07 9.582-9.583 23.743-11.78 35.434-6.61l3.87-7.74c-14.933-6.785-33.134-4.043-45.415 8.238-15.82 15.822-15.82 41.472 0 57.293 15.82 15.82 41.472 15.82 57.294 0C87.054 83.047 89.696 64.5 82.537 49.45l-7.647 4.042c5.44 11.778 3.306 26.19-6.402 35.9z"/><path id="svgstore51e0b6095a1debeb6e36f875358132c5path7" d="M67.197 43.104l6.05-6.18c-2.18-1.99-4.525-3.7-6.99-5.128l-4.035 7.65c1.745 1.038 3.412 2.257 4.975 3.658z"/><path id="svgstore51e0b6095a1debeb6e36f875358132c5path9" d="M56.647 77.553c-5.907 5.905-15.482 5.905-21.39 0-5.906-5.907-5.906-15.482 0-21.39 4.35-4.35 10.688-5.485 16.087-3.427l3.875-7.756c-8.65-3.66-19.024-1.98-26.074 5.07-9.282 9.283-9.282 24.332 0 33.613 9.282 9.282 24.33 9.282 33.612 0 7.13-7.132 8.76-17.658 4.935-26.367l-7.66 4.048c2.12 5.425.996 11.826-3.386 16.21z"/><path id="svgstore51e0b6095a1debeb6e36f875358132c5path11" d="M57.856 57.544c.2.254.39.512.57.776l7.57-4.215c-.578-.908-1.228-1.78-1.942-2.62l-6.198 6.06z"/><path id="svgstore51e0b6095a1debeb6e36f875358132c5path13" d="M61.505 48.918c-.98-.85-2.008-1.608-3.082-2.27l-4.04 7.657c.367.247.727.508 1.076.79l6.045-6.177z"/><path id="svgstore51e0b6095a1debeb6e36f875358132c5path15" d="M44.765 66.97c-.054-.092-.095-.187-.12-.288-.11-.43.098-.75.122-.785L47.5 60.43c-1.988-.37-4.118.21-5.655 1.75-2.48 2.477-2.48 6.496 0 8.974 2.48 2.48 6.497 2.48 8.976 0 1.587-1.587 2.153-3.805 1.708-5.845l-5.572 2.942c-.007.006-.206.126-.496.126-.242 0-.56-.087-.876-.41-.11-.078-.22-.17-.33-.278-.238-.242-.397-.48-.49-.72z"/><path id="svgstore51e0b6095a1debeb6e36f875358132c5path17" d="M50.384 60.28l21.794-41.316.242.015h.002c.5 0 4.445-.204 7.146-6.8-.47-.266-1.044-.4-1.714-.4-1.81 0-3.68.974-3.697.983l-.523.276-.026-.592c0-.038-.187-3.64-2.543-4.817-4.052 6.322-1.574 9.937-1.548 9.973l.13.184-.1.202-23.2 46.414 4.037-4.124z"/><path id="svgstore51e0b6095a1debeb6e36f875358132c5path19" d="M48.73 66.467l45.9-24.25.19.145c.012.008 1.073.8 3.058.8 2.04 0 4.288-.8 6.683-2.38-1.028-2.114-4.76-2.567-4.798-2.57l-.588-.07.312-.502c.02-.032 1.9-3.11.62-5.41-6.912 2.932-6.906 7.315-6.905 7.36l.006.224-39.98 22.258-4.496 4.395z"/><path id="svgstore51e0b6095a1debeb6e36f875358132c5path21" d="M45.526 66.31c-.037.033-.104.097-.107.21-.006.17.124.397.366.64.243.24.475.374.653.374.125 0 .196-.067.203-.075l38.853-37.987.226.085c.005.002.486.18 1.3.18 1.442 0 4.324-.586 7.59-4.462-1.566-1.71-5.315-1.105-5.33-1.102l-.583.1.155-.57c.01-.035.938-3.522-.944-5.364-5.793 4.775-4.543 8.976-4.53 9.018l.07.215-.16.16L45.527 66.31z"/></g></symbol><symbol viewBox="0 0 100 100" id="shape-tools"><title>tools</title><g id="svgstore8b582ff899fe84a52af02d0abe8a6df7g3816" fill="#f9f9f9"><path id="svgstore8b582ff899fe84a52af02d0abe8a6df7path13" d="M76.334 75.423c2.965-2.95 2.718-7.97-.55-11.22L43.71 32.312c-3.27-3.247-8.32-3.49-11.287-.542-2.966 2.95-2.722 7.972.546 11.22L65.046 74.88c3.268 3.248 8.318 3.494 11.287.545z"/><path id="svgstore8b582ff899fe84a52af02d0abe8a6df7path15" d="M23.86 37.99l53.704 53.388c4.092 4.07 10.728 4.07 14.82 0 4.09-4.066 4.09-10.663 0-14.732l-53.705-53.39C39.333 18.19 37.72 12.89 33.806 9 29.11 4.327 22.37 2.942 16.447 4.814c3.452 3.428 6.12 6.143 6.96 6.977 3 2.984 3.71 7.113 1.59 9.222l-3.39 3.37c-2.122 2.11-6.276 1.403-9.277-1.58-.838-.835-3.57-3.486-7.02-6.92-1.882 5.89-.488 12.59 4.21 17.26 3.914 3.892 9.244 5.496 14.34 4.845zM84.702 87.24c-3.26 3.24-8.54 3.24-11.802 0-3.257-3.24-3.257-8.492 0-11.73 3.26-3.24 8.54-3.24 11.802 0 3.257 3.235 3.257 8.49 0 11.73zM40.093 50.853c-3.41-3.39-3.41-8.887 0-12.277 3.41-3.392 8.94-3.392 12.35 0l33.48 33.283c3.41 3.39 3.41 8.886 0 12.277-3.412 3.39-8.94 3.39-12.353 0L34.3 46.38z"/><path id="svgstore8b582ff899fe84a52af02d0abe8a6df7path17" d="M23.72 94.71l27.085-26.927-3.535-3.516-25.288 25.14c-.6.596-1.652.513-2.352-.18-.7-.697-.78-1.744-.182-2.338l25.287-25.14-4.052-4.03-25.287 25.14c-.598.594-1.65.513-2.35-.182-.7-.695-.782-1.744-.183-2.335L38.15 55.2l-3.536-3.514L7.53 78.613c-2.622 2.605-1.122 8.32 3.35 12.765 4.47 4.445 10.22 5.937 12.84 3.33z"/><path id="svgstore8b582ff899fe84a52af02d0abe8a6df7polygon19" d="M57.263 38.392l6.932 6.89 9.1-9.05 7.567-2.015 14.652-20.765-6.233-6.2-20.886 14.57-2.03 7.52z"/></g></symbol></svg>