<?xml version="1.0" encoding="UTF-8" standalone="no"?>
<svg
   xmlns:dc="http://purl.org/dc/elements/1.1/"
   xmlns:cc="http://creativecommons.org/ns#"
   xmlns:rdf="http://www.w3.org/1999/02/22-rdf-syntax-ns#"
   xmlns:svg="http://www.w3.org/2000/svg"
   xmlns="http://www.w3.org/2000/svg"
   xmlns:sodipodi="http://sodipodi.sourceforge.net/DTD/sodipodi-0.dtd"
   xmlns:inkscape="http://www.inkscape.org/namespaces/inkscape"
   width="964.0672"
   height="180.67656"
   id="svg15867"
   version="1.1"
   inkscape:version="1.0.1 (3bc2e813f5, 2020-09-07)"
   sodipodi:docname="outskirts-title.svg">
  <defs
     id="defs15869" />
  <sodipodi:namedview
     id="base"
     pagecolor="#ffffff"
     bordercolor="#666666"
     borderopacity="1.0"
     inkscape:pageopacity="0.0"
     inkscape:pageshadow="2"
     inkscape:zoom="5.6"
     inkscape:cx="98.102503"
     inkscape:cy="70.968886"
     inkscape:document-units="px"
     inkscape:current-layer="layer1"
     showgrid="false"
     fit-margin-top="2"
     fit-margin-left="2"
     fit-margin-bottom="2"
     fit-margin-right="2"
     inkscape:window-width="1920"
     inkscape:window-height="1016"
     inkscape:window-x="0"
     inkscape:window-y="27"
     inkscape:window-maximized="1"
     inkscape:document-rotation="0" />
  <metadata
     id="metadata15872">
    <rdf:RDF>
      <cc:Work
         rdf:about="">
        <dc:format>image/svg+xml</dc:format>
        <dc:type
           rdf:resource="http://purl.org/dc/dcmitype/StillImage" />
        <dc:title />
      </cc:Work>
    </rdf:RDF>
  </metadata>
  <g
     inkscape:label="Layer 1"
     inkscape:groupmode="layer"
     id="layer1"
     transform="translate(107.03359,-442.0239)">
    <g
       style="font-size:40px;font-style:normal;font-variant:normal;font-weight:normal;font-stretch:normal;line-height:125%;letter-spacing:0px;word-spacing:0px;fill:#000000;fill-opacity:1;stroke:none;font-family:OpTic;-inkscape-font-specification:OpTic"
       id="text21126">
      <path
         d="m 80.603508,515.60627 c -7.6e-5,-2.01592 -0.384076,-3.93592 -1.152,-5.76 -0.768074,-1.82391 -1.824073,-3.35991 -3.168,-4.608 -1.344071,-1.34391 -2.928069,-2.39991 -4.752,-3.168 -1.824065,-0.76791 -3.744063,-1.15191 -5.76,-1.152 l -32.976,0 c -2.016026,9e-5 -3.936024,0.38409 -5.76,1.152 -1.824021,0.76809 -3.408019,1.82409 -4.752,3.168 -1.344017,1.24809 -2.400015,2.78409 -3.168,4.608 -0.768014,1.82408 -1.152014,3.74408 -1.152,5.76 l 0,54.72 c -1.4e-5,2.01602 0.383986,3.93602 1.152,5.76 0.767985,1.82402 1.823983,3.40802 3.168,4.752 1.343981,1.24801 2.927979,2.25601 4.752,3.024 1.823976,0.76801 3.743974,1.15201 5.76,1.152 l 32.976,0 c 2.015937,10e-6 3.935935,-0.38399 5.76,-1.152 1.823931,-0.76799 3.407929,-1.77599 4.752,-3.024 1.343927,-1.34398 2.399926,-2.92798 3.168,-4.752 0.767924,-1.82398 1.151924,-3.74398 1.152,-5.76 l 0,-54.72 m 5.616,54.72 c -8.2e-5,5.76002 -1.96808,10.56001 -5.904,14.4 -4.128072,3.84001 -8.976067,5.76 -14.544,5.76 l -32.976,0 c -5.568023,0 -10.416018,-1.91999 -14.544,-5.76 -3.93601,-3.93599 -5.904008,-8.73598 -5.904,-14.4 l 0,-54.72 c -8e-6,-5.66392 1.96799,-10.46391 5.904,-14.4 4.127982,-3.8399 8.975977,-5.7599 14.544,-5.76 l 32.976,0 c 5.567933,10e-5 10.415928,1.9201 14.544,5.76 3.93592,3.84009 5.903918,8.64008 5.904,14.4 l 0,54.72"
         style="font-size:144px;font-weight:bold;letter-spacing:-11px;font-family:Hall Fetica;-inkscape-font-specification:Hall Fetica Bold"
         id="path17625" />
      <path
         d="m 155.14105,590.91827 -38.016,0 c -5.85602,0 -10.80001,-1.87199 -14.832,-5.616 -3.840005,-4.03199 -5.760003,-8.87998 -5.759996,-14.544 l 0,-47.808 5.615996,0 0,47.808 c -1e-5,2.01602 0.38399,3.93602 1.152,5.76 0.76799,1.82402 1.82399,3.40801 3.168,4.752 1.43999,1.24801 3.07198,2.25601 4.896,3.024 1.82398,0.76801 3.74398,1.15201 5.76,1.152 l 29.376,0 3.024,-3.024 0,-59.472 5.616,0 0,67.968"
         style="font-size:144px;font-weight:bold;letter-spacing:-11px;font-family:Hall Fetica;-inkscape-font-specification:Hall Fetica Bold"
         id="path17627" />
      <path
         d="m 208.94,590.91827 -15.552,0 c -5.85603,0 -10.80002,-1.87199 -14.832,-5.616 -3.84002,-4.03199 -5.76002,-8.87998 -5.76,-14.544 l 0,-39.888 -3.024,-3.024 -4.32,0 0,-5.76 4.32,0 3.024,-3.168 0,-23.472 5.76,0 0,23.472 3.024,3.168 21.744,0 0,5.76 -21.744,0 -3.024,3.024 0,39.888 c -2e-5,2.01602 0.38398,3.93602 1.152,5.76 0.76798,1.82402 1.82398,3.40801 3.168,4.752 1.34397,1.24801 2.92797,2.25601 4.752,3.024 1.82397,0.76801 3.74397,1.15201 5.76,1.152 l 15.552,0 0,5.472"
         style="font-size:144px;font-weight:bold;letter-spacing:-11px;font-family:Hall Fetica;-inkscape-font-specification:Hall Fetica Bold"
         id="path17629" />
      <path
         d="m 272.96523,574.21427 c -7e-5,5.47202 -1.96806,9.69601 -5.904,12.672 -3.84006,2.976 -8.68805,4.464 -14.544,4.464 l -36.576,0 0,-5.472 36.576,0 c 9.88794,10e-6 14.83194,-3.88799 14.832,-11.664 l 0,-2.736 c -6e-5,-7.67997 -4.94406,-11.51997 -14.832,-11.52 l -17.856,0 c -5.66402,3e-5 -10.51202,-1.48796 -14.544,-4.464 -3.93601,-3.07196 -5.90401,-7.29595 -5.904,-12.672 l 0,-2.736 c -1e-5,-5.37594 1.96799,-9.59994 5.904,-12.672 4.03198,-2.97593 8.87998,-4.46393 14.544,-4.464 l 36.864,0 0,5.472 -36.864,0 c -9.88802,7e-5 -14.83201,3.88806 -14.832,11.664 l 0,2.736 c -1e-5,7.77604 4.94398,11.66404 14.832,11.664 l 17.856,0 c 5.75995,4e-5 10.60794,1.44004 14.544,4.32 3.93594,2.97603 5.90393,7.20003 5.904,12.672 l 0,2.736"
         style="font-size:144px;font-weight:bold;letter-spacing:-11px;font-family:Hall Fetica;-inkscape-font-specification:Hall Fetica Bold"
         id="path17631" />
      <path
         d="m 341.1652,522.51827 -19.872,24.912 2.448,4.896 0.576,0 c 4.89594,4e-5 8.97594,1.92004 12.24,5.76 1.91993,2.01603 3.26393,4.17603 4.032,6.48 0.86393,2.30403 1.29593,4.84803 1.296,7.632 l 0,18.72 -5.616,0 0,-18.72 c -7e-5,-2.11198 -0.38407,-4.03197 -1.152,-5.76 -0.76806,-1.82397 -1.87206,-3.35997 -3.312,-4.608 -1.34406,-1.34397 -2.92806,-2.39996 -4.752,-3.168 -1.82405,-0.76796 -3.74405,-1.15196 -5.76,-1.152 l -29.376,0 -3.024,3.024 0,30.384 -5.616,0 0,-95.904 5.616,0 0,53.856 3.024,3.168 18.72,0 2.448,-1.296 22.32,-28.224 5.76,0"
         style="font-size:144px;font-weight:bold;letter-spacing:-11px;font-family:Hall Fetica;-inkscape-font-specification:Hall Fetica Bold"
         id="path17633" />
      <path
         d="m 360.40491,502.50227 -5.616,0 0,-7.344 5.616,0 0,7.344 m 0,88.56 -5.616,0 0,-68.4 5.616,0 0,68.4"
         style="font-size:144px;font-weight:bold;letter-spacing:-11px;font-family:Hall Fetica;-inkscape-font-specification:Hall Fetica Bold"
         id="path17635" />
      <path
         d="m 423.2786,549.73427 -5.616,0 0,-6.624 c -5e-5,-2.01595 -0.43205,-3.88794 -1.296,-5.616 -0.76805,-1.82394 -1.82405,-3.40794 -3.168,-4.752 -1.34405,-1.34394 -2.92805,-2.39994 -4.752,-3.168 -1.72804,-0.76793 -3.60004,-1.15193 -5.616,-1.152 l -23.472,0 -3.024,3.024 0,59.472 -5.616,0 0,-67.968 32.112,0 c 5.56796,7e-5 10.36795,1.92007 14.4,5.76 4.03194,3.93606 6.04794,8.73606 6.048,14.4 l 0,6.624"
         style="font-size:144px;font-weight:bold;letter-spacing:-11px;font-family:Hall Fetica;-inkscape-font-specification:Hall Fetica Bold"
         id="path17637" />
      <path
         d="m 474.77594,590.91827 -15.552,0 c -5.85603,0 -10.80003,-1.87199 -14.832,-5.616 -3.84002,-4.03199 -5.76002,-8.87998 -5.76,-14.544 l 0,-39.888 -3.024,-3.024 -4.32,0 0,-5.76 4.32,0 3.024,-3.168 0,-23.472 5.76,0 0,23.472 3.024,3.168 21.744,0 0,5.76 -21.744,0 -3.024,3.024 0,39.888 c -2e-5,2.01602 0.38398,3.93602 1.152,5.76 0.76797,1.82402 1.82397,3.40801 3.168,4.752 1.34397,1.24801 2.92797,2.25601 4.752,3.024 1.82397,0.76801 3.74396,1.15201 5.76,1.152 l 15.552,0 0,5.472"
         style="font-size:144px;font-weight:bold;letter-spacing:-11px;font-family:Hall Fetica;-inkscape-font-specification:Hall Fetica Bold"
         id="path17639" />
      <path
         d="m 538.80117,574.21427 c -7e-5,5.47202 -1.96807,9.69601 -5.904,12.672 -3.84006,2.976 -8.68805,4.464 -14.544,4.464 l -36.576,0 0,-5.472 36.576,0 c 9.88794,10e-6 14.83194,-3.88799 14.832,-11.664 l 0,-2.736 c -6e-5,-7.67997 -4.94406,-11.51997 -14.832,-11.52 l -17.856,0 c -5.66402,3e-5 -10.51202,-1.48796 -14.544,-4.464 -3.93601,-3.07196 -5.90401,-7.29595 -5.904,-12.672 l 0,-2.736 c -1e-5,-5.37594 1.96799,-9.59994 5.904,-12.672 4.03198,-2.97593 8.87998,-4.46393 14.544,-4.464 l 36.864,0 0,5.472 -36.864,0 c -9.88802,7e-5 -14.83202,3.88806 -14.832,11.664 l 0,2.736 c -2e-5,7.77604 4.94398,11.66404 14.832,11.664 l 17.856,0 c 5.75995,4e-5 10.60794,1.44004 14.544,4.32 3.93593,2.97603 5.90393,7.20003 5.904,12.672 l 0,2.736"
         style="font-size:144px;font-weight:bold;letter-spacing:-11px;font-family:Hall Fetica;-inkscape-font-specification:Hall Fetica Bold"
         id="path17641" />
      <path
         d="m 650.43197,590.91827 -41.76,0 c -5.56802,0 -10.41602,-1.91999 -14.544,-5.76 -3.93601,-3.93599 -5.90401,-8.73598 -5.904,-14.4 l 0,-75.312 5.616,0 0,75.312 c -10e-6,2.01602 0.38399,3.93602 1.152,5.76 0.86399,1.72802 1.96799,3.26402 3.312,4.608 1.34398,1.34401 2.87998,2.40001 4.608,3.168 1.82398,0.76801 3.74398,1.15201 5.76,1.152 l 41.76,0 0,5.472"
         style="font-size:144px;font-weight:bold;letter-spacing:-11px;font-family:Hall Fetica;-inkscape-font-specification:Hall Fetica Bold"
         id="path17643" />
      <path
         d="m 709.56141,585.59027 3.168,-3.024 -0.144,-24.48 -3.168,-3.024 -28.224,0 c -2.01602,4e-5 -3.93602,0.38404 -5.76,1.152 -1.82402,0.76804 -3.45602,1.82404 -4.896,3.168 -1.34401,1.24803 -2.40001,2.78403 -3.168,4.608 -0.76801,1.72803 -1.15201,3.64803 -1.152,5.76 l 0,1.152 c -10e-6,2.01602 0.38399,3.93602 1.152,5.76 0.76799,1.82402 1.82399,3.40801 3.168,4.752 1.43998,1.24801 3.07198,2.25601 4.896,3.024 1.82398,0.76801 3.74398,1.15201 5.76,1.152 l 28.368,0 m 8.784,5.472 -37.152,0 c -5.85602,0 -10.80001,-1.87199 -14.832,-5.616 -3.84001,-4.03199 -5.76,-8.87998 -5.76,-14.544 l 0,-1.152 c 0,-5.85597 1.91999,-10.70396 5.76,-14.544 3.83999,-3.74396 8.78398,-5.61595 14.832,-5.616 l 28.368,0 3.168,-3.456 -0.144,-1.296 0,-1.728 c -6e-5,-2.01595 -0.38406,-3.93594 -1.152,-5.76 -0.76805,-1.82394 -1.82405,-3.35994 -3.168,-4.608 -1.34405,-1.34394 -2.92805,-2.39994 -4.752,-3.168 -1.82404,-0.76793 -3.74404,-1.15193 -5.76,-1.152 l -33.984,0 0,-5.472 33.984,0 c 5.85595,7e-5 10.75195,1.82407 14.688,5.472 l 0.144,0.144 c 3.83994,3.64806 5.75994,8.30406 5.76,13.968 l 0,48.528"
         style="font-size:144px;font-weight:bold;letter-spacing:-11px;font-family:Hall Fetica;-inkscape-font-specification:Hall Fetica Bold"
         id="path17645" />
      <path
         d="m 780.49801,543.68627 c -6e-5,-2.01595 -0.38406,-3.93594 -1.152,-5.76 -0.76806,-1.82394 -1.82406,-3.35994 -3.168,-4.608 -1.34405,-1.34394 -2.92805,-2.39994 -4.752,-3.168 -1.82405,-0.76793 -3.74405,-1.15193 -5.76,-1.152 l -28.512,0 -3.024,3.168 0,50.4 3.024,3.024 28.512,0 c 2.01595,10e-6 3.93595,-0.38399 5.76,-1.152 1.82395,-0.76799 3.40795,-1.77599 4.752,-3.024 1.34394,-1.34399 2.39994,-2.92798 3.168,-4.752 0.76794,-1.82398 1.15194,-3.74398 1.152,-5.76 l 0,-27.216 m 5.616,27.216 c -6e-5,5.76002 -2.01606,10.56001 -6.048,14.4 -4.03205,3.84001 -8.83205,5.76 -14.4,5.76 l -37.152,0 0,-95.904 5.616,0 0,25.344 3.024,3.024 28.512,0 c 5.66395,7e-5 10.46395,1.96807 14.4,5.904 4.03194,3.74406 6.04794,8.49606 6.048,14.256 l 0,27.216"
         style="font-size:144px;font-weight:bold;letter-spacing:-11px;font-family:Hall Fetica;-inkscape-font-specification:Hall Fetica Bold"
         id="path17647" />
      <path
         d="m 855.03359,574.21427 c -7e-5,5.47202 -1.96806,9.69601 -5.904,12.672 -3.84006,2.976 -8.68805,4.464 -14.544,4.464 l -36.576,0 0,-5.472 36.576,0 c 9.88794,10e-6 14.83194,-3.88799 14.832,-11.664 l 0,-2.736 c -6e-5,-7.67997 -4.94406,-11.51997 -14.832,-11.52 l -17.856,0 c -5.66402,3e-5 -10.51202,-1.48796 -14.544,-4.464 -3.93601,-3.07196 -5.90401,-7.29595 -5.904,-12.672 l 0,-2.736 c -1e-5,-5.37594 1.96799,-9.59994 5.904,-12.672 4.03198,-2.97593 8.87998,-4.46393 14.544,-4.464 l 36.864,0 0,5.472 -36.864,0 c -9.88802,7e-5 -14.83201,3.88806 -14.832,11.664 l 0,2.736 c -1e-5,7.77604 4.94398,11.66404 14.832,11.664 l 17.856,0 c 5.75995,4e-5 10.60794,1.44004 14.544,4.32 3.93594,2.97603 5.90393,7.20003 5.904,12.672 l 0,2.736"
         style="font-size:144px;font-weight:bold;letter-spacing:-11px;font-family:Hall Fetica;-inkscape-font-specification:Hall Fetica Bold"
         id="path17649" />
    </g>
    <path
       inkscape:connector-curvature="0"
       style="fill:#201e1d;fill-opacity:1"
       d="m -60.10478,620.56273 c -7.58455,-1.38992 -10.89037,-2.38278 -15.81865,-4.75097 -5.40472,-2.59714 -9.53851,-5.56886 -14.15615,-10.17665 -5.822031,-5.80961 -9.220581,-11.04685 -12.15015,-18.72362 -2.24781,-5.89027 -2.80639,-9.42876 -2.80385,-17.7619 0.002,-5.96025 0.1297,-7.94905 0.65715,-10.21962 0.3602,-1.55055 0.67635,-3.13636 0.70255,-3.524 0.0262,-0.38764 0.1432,-0.78409 0.25998,-0.881 0.11679,-0.0969 0.49448,-1.04839 0.83932,-2.11441 0.60912,-1.88301 4.301629,-9.86562 4.727289,-10.21961 0.11652,-0.0969 0.80246,-1.04839 1.52429,-2.1144 1.344171,-1.98507 1.757321,-2.50139 4.939511,-6.17304 3.05045,-3.51964 8.93482,-7.95509 14.09919,-10.62751 l 3.0835,-1.59563 0,-17.1459 0,-17.14591 -1.71719,-0.78778 c -2.11206,-0.96893 -3.69592,-2.53322 -4.90712,-4.84651 -0.79125,-1.51123 -0.92467,-2.21339 -0.93743,-4.9336 -0.0181,-3.86321 0.78079,-5.72816 3.52691,-8.23329 2.95627,-2.69683 3.83384,-2.87108 14.44929,-2.86907 l 9.18105,0.002 -0.0137,1.85011 c -0.008,1.01755 0.10419,2.27879 0.24824,2.80276 l 0.26191,0.95266 -9.31618,0.10454 c -8.77128,0.0984 -9.37305,0.14704 -10.28852,0.83112 -2.51166,1.8768 -3.15309,4.27679 -1.83079,6.85003 0.97117,1.88991 2.70802,2.87523 5.47229,3.10448 l 1.86201,0.1544 0,21.57881 0,21.57879 -3.15875,1.30929 c -5.82403,2.41403 -11.4936,6.35616 -15.87235,11.03626 -8.005641,8.55662 -12.326861,19.53227 -12.331121,31.32035 -6.5e-4,2.15624 0.0932,4.39354 0.20885,4.97176 0.2083,1.04153 0.237,1.05324 3.0835,1.2585 2.827551,0.20391 6.821291,1.30338 10.050041,2.76679 1.71948,0.77935 3.46459,1.58633 11.50871,5.32189 5.08162,2.35982 7.54706,3.16314 8.1202,2.80892 0.18745,-0.11585 0.32398,1.07757 0.32398,2.83194 l 0,3.03217 -1.3215,-0.24008 c -3.0462,-0.55339 -5.25927,-1.65267 -11.71217,-5.17068 -1.16292,-0.634 -3.06588,-1.66632 -4.2288,-2.29404 -1.16293,-0.62771 -3.38305,-1.82604 -4.93362,-2.66295 -3.50553,-1.89208 -5.87982,-2.82909 -8.268931,-3.26333 l -1.8514,-0.3365 0.23054,1.44176 c 0.31872,1.99319 1.7973,6.30604 3.10193,9.04802 3.884211,8.16354 10.843001,15.75125 18.542841,20.2187 4.00876,2.32588 4.39692,2.42149 6.692,1.64833 1.10153,-0.37107 3.57227,-0.99531 5.49055,-1.38719 1.91827,-0.39187 2.64338,-1.09017 3.77765,-1.16946 l 18.18899,0.96132 c 0.91833,0.12477 3.159,0.61216 4.97927,1.08309 l 3.3096,0.85623 2.32882,-1.27553 c 3.65822,-2.00367 6.65372,-4.25147 10.02136,-7.51997 2.99261,-2.90451 6.93207,-7.64196 6.93207,-8.33625 0,-0.18384 -1.86331,-0.6951 -4.14071,-1.13614 -2.27738,-0.44103 -5.96437,-1.18998 -8.1933,-1.66432 -5.00343,-1.06479 -8.80362,-1.11791 -12.35785,-0.17275 -1.44054,0.38308 -2.73811,0.70024 -2.88347,0.7048 -0.14537,0.005 -0.2643,-0.9902 -0.2643,-2.21057 l 0,-2.21888 2.47334,-0.42413 c 5.93794,-1.01824 9.394,-0.42885 20.88701,3.56208 l 5.56412,1.93213 1.22728,-2.43708 c 3.8261595,-7.59787 5.5423395,-16.45879 4.7395495,-24.47128 -0.81575,-8.14183 -3.1947895,-14.86892 -7.7190695,-21.82679 -2.05206,-3.15586 -8.99769,-10.12009 -12.19521,-12.22786 -3.07205,-2.02508 -7.25166,-4.18339 -7.63838,-3.94439 -0.15985,0.0988 -0.29062,0.0289 -0.29062,-0.15537 0,-0.18425 -0.39646,-0.4345 -0.88101,-0.55611 l -0.881,-0.22112 0,-21.9517 0,-21.95169 1.76254,-0.45173 c 2.57552,-0.66008 4.22876,-2.66224 4.22695,-5.11905 -0.002,-2.37198 -0.96276,-3.91983 -2.99065,-4.81686 -1.4523,-0.64242 -1.53941,-0.7552 -1.224,-1.58477 0.18676,-0.49123 0.33956,-1.7676 0.33956,-2.83639 l 0,-1.94327 1.1453,0.24762 c 5.69057,1.23033 9.51741,7.15548 8.37426,12.96599 -0.53276,2.70799 -2.35437,5.52041 -4.42497,6.8318 l -1.54485,0.97842 -0.006,17.79622 -0.006,17.79623 2.77638,1.47798 c 4.11803,2.19223 8.53975,5.49009 12.15068,9.06237 1.76437,1.74548 3.30045,3.14945 3.41351,3.11992 0.11306,-0.0295 0.20719,0.13572 0.20916,0.36722 0.003,0.36761 3.08714,5.05886 3.6358695,5.53073 0.69141,0.59458 4.29589,8.50199 5.220691,11.45302 1.86003,5.93536 2.32804,9.16752 2.32173,16.03422 -0.006,6.54663 -0.38086,9.20123 -2.13969,15.15322 -0.774541,2.62111 -4.813481,11.42101 -5.353001,11.98161 -0.0273,0.0283 -2.5145195,3.49532 -2.5145195,3.68788 0,0.30677 -3.1038,3.67012 -5.86509,6.35554 -6.68166,6.4981 -15.65987,11.27743 -25.14616,13.38594 -2.56863,0.57093 -14.81338,1.05793 -16.91521,0.67275 z"
       id="path3109-6"
       sodipodi:nodetypes="cssscsccssssscccsssscccscsssscccsscsssssscssssscsssssccscsssssscscsscsssscsscccssssscssscccssccsssssssscc" />
    <path
       inkscape:connector-curvature="0"
       style="fill:#e74f1f;fill-opacity:1"
       d="m -18.78123,580.95889 c -2.78413,-0.91848 -4.27988,-3.01235 -4.29061,-6.00631 -0.0131,-3.65112 2.51399,-6.15319 6.22067,-6.15909 1.83142,-0.003 2.87582,0.39071 4.30943,1.6242 1.3937,1.19914 1.9617,2.84785 1.79307,5.20466 -0.14354,2.0061 -0.96407,3.45328 -2.6164,4.61458 -0.85078,0.59795 -1.34713,0.73914 -2.90432,0.8261 -1.033,0.0577 -2.16332,0.0108 -2.51184,-0.10414 z"
       id="path3107-4" />
    <path
       inkscape:connector-curvature="0"
       style="fill:#201e1d;fill-opacity:1;fill-rule:nonzero;stroke:none"
       d="m -44.33131,609.24681 0,-24.15239 13.27178,0.32809 c 3.35094,0.0828 6.11208,-1.61071 6.11208,-3.61097 l 0,-0.32809 0,-27.0276 c 0,-2.05279 -2.72481,-3.72041 -6.01349,-3.72041 -3.29264,0 -5.91492,1.66762 -5.91492,3.72041 l 0,23.74489 -7.25844,0 0,-44.23729 c 0,-3.66787 -4.26662,-6.56539 -9.56244,-6.56539 l 1.7e-4,0 c -5.28794,0 -9.56243,2.89752 -9.56243,6.56539 l 0,26.26164 -6.10133,0 0,-10.17639 c 0,-1.39624 -1.80208,-2.51674 -4.04186,-2.51674 -2.2319,0 -4.04185,1.1205 -4.04185,2.51674 l 0,12.58371 0,0.21884 c 0,1.44002 2.05839,2.62617 4.53476,2.62617 l 9.65028,0 0,43.76939"
       id="path5906"
       sodipodi:nodetypes="ccsscsssccsccsccssscsscc" />
    <path
       inkscape:connector-curvature="0"
       style="fill:#e74f1f;fill-opacity:1"
       d="m -55.01147,497.8712 c -3.29232,-1.24975 -5.03031,-3.95043 -5.03031,-7.81667 0,-4.90068 3.21807,-8.1016 8.10507,-8.0619 3.76104,0.0306 5.86662,1.23467 7.54212,4.31312 0.90846,1.66912 0.98273,2.05825 0.77672,4.06908 -0.38014,3.71034 -1.566,5.69537 -4.26609,7.14108 -1.68842,0.90403 -5.21836,1.07999 -7.12751,0.35529 z"
       id="path3105-8" />
    <path
       inkscape:connector-curvature="0"
       style="fill:#e74f1f;fill-opacity:1"
       d="m -48.0793,472.63865 c -2.70587,-1.42906 -3.65251,-3.86937 -2.96348,-7.63949 0.28621,-1.56611 1.89531,-3.34204 3.62335,-3.99905 1.15765,-0.44013 3.71135,-0.41674 4.93668,0.0452 4.72756,1.78237 5.35868,8.89102 1.01533,11.43638 -1.88445,1.10437 -4.69181,1.171 -6.61188,0.15694 z"
       id="path3103-0" />
    <path
       inkscape:connector-curvature="0"
       style="fill:#e74f1f;fill-opacity:1"
       d="m -58.89428,453.65886 c -3.36905,-1.66087 -3.4197,-7.49915 -0.0797,-9.1892 0.47874,-0.24224 1.75585,-0.44278 2.83802,-0.44564 1.72307,-0.005 2.13478,0.13934 3.31297,1.15781 1.1959,1.03377 1.36344,1.38076 1.50792,3.12298 0.11685,1.40901 -0.0108,2.32532 -0.45416,3.25959 -1.11573,2.35121 -4.55402,3.36193 -7.12503,2.09446 z"
       id="path3099-6" />
  </g>
</svg>
