<?xml version="1.0" encoding="UTF-8" standalone="no"?>
<svg
   xmlns:dc="http://purl.org/dc/elements/1.1/"
   xmlns:cc="http://creativecommons.org/ns#"
   xmlns:rdf="http://www.w3.org/1999/02/22-rdf-syntax-ns#"
   xmlns:svg="http://www.w3.org/2000/svg"
   xmlns="http://www.w3.org/2000/svg"
   xml:space="preserve"
   enable-background="new 0 0 100 100"
   viewBox="5 -10 100 135"
   height="100"
   width="100"
   y="0px"
   x="0px"
   id="Layer_1"
   version="1.1"><metadata
     id="metadata25"><rdf:RDF><cc:Work
         rdf:about=""><dc:format>image/svg+xml</dc:format><dc:type
           rdf:resource="http://purl.org/dc/dcmitype/StillImage" /></cc:Work></rdf:RDF></metadata><defs
     id="defs23" /><g
     style="fill:#201e1d"
     transform="matrix(1.35,0,0,1.3500001,3.2500001,-50.500011)"
     id="g3002"><path
       style="fill:#201e1d"
       d="m 38.333333,88.414004 c -2.646,-4.637 -5.291,-9.276 -7.938,-13.915 0,0 -12.247,2.33 -10.279999,10.013 1.915999,7.493 3.831999,14.982 5.747999,22.470996 0.617,2.413 2.789,4.101 5.278,4.101 2.398,0 4.794,0 7.191,0 2.397,0 4.793,0 7.192,0 2.49,0 4.661,-1.688 5.277,-4.101 1.918,-7.487996 3.832,-14.977996 5.747,-22.470996 1.968,-7.683 -10.279,-10.013 -10.279,-10.013 -2.645,4.639 -5.29,9.278 -7.936,13.915 z"
       id="path3" /><path
       style="fill:#201e1d"
       d="m 26.013333,56.521004 c -0.3,-0.245 -0.598,-0.494 -0.896,-0.74 -0.77,-0.64 -1.733,-0.993 -2.733,-1.007 -1.214,-0.014 -2.428,-0.028 -3.642,-0.043 -1.027,-0.013 -2.028,0.339 -2.824,0.994 -0.221,0.181 -0.443,0.362 -0.664,0.546 -1.089,0.896 -1.679,2.263 -1.580999,3.668 0.257,3.733 0.516999,7.465 0.773999,11.196 0.076,1.113 0.579001,2.153 1.398,2.91 0.61,0.56 1.218,1.12 1.827,1.679 1.65,1.517 4.179,1.537 5.853,0.045 0.636,-0.563 1.271,-1.129 1.907,-1.694 0.858,-0.764 1.382,-1.836 1.454,-2.98 0.191,-3.011 0.381,-6.022 0.571,-9.032 -0.084,-1.322 -0.167,-2.645 -0.25,-3.968 -0.283,-0.633 -0.661999,-1.129 -1.193999,-1.574 z"
       id="path5" /><path
       style="fill:#201e1d"
       d="m 49.420333,58.189004 c -0.08,1.15 -0.159999,2.3 -0.24,3.45 0.201,3.149 0.401,6.301 0.6,9.455 0.073,1.145 0.597,2.217 1.454,2.98 0.636,0.565 1.270001,1.131 1.907001,1.694 1.671999,1.492 4.201,1.472 5.850999,-0.045 0.61,-0.559 1.221001,-1.119 1.828001,-1.679 0.82,-0.757 1.323,-1.797 1.4,-2.91 0.256,-3.731 0.515999,-7.463 0.773,-11.196 0.098,-1.405 -0.492,-2.771 -1.582,-3.668 -0.222,-0.184 -0.442,-0.365 -0.663,-0.546 -0.797,-0.655 -1.797,-1.007 -2.822,-0.994 -1.215,0.015 -2.429,0.029 -3.644,0.043 -1.001,0.014 -1.963,0.367 -2.733,1.007 -0.297,0.246 -0.595,0.495 -0.895,0.74 -0.562,0.47 -0.953,0.994 -1.234,1.669 z"
       id="path7" /><path
       style="fill:#201e1d"
       d="m 62.494333,75.527004 c 0,0 9.955,1.897 8.355,8.141 -1.558,6.089 -3.115,12.175 -4.674999,18.265996 -0.499001,1.962 -2.266,3.332 -4.29,3.332 -1.948,0 -3.895001,0 -5.845,0 -0.661,0 -1.323,0 -1.985,0 1.713,-6.692996 3.424,-13.385996 5.136,-20.079996 0.136,-0.531 0.23,-1.072 0.273,-1.618 0.04,-0.547 0.034,-1.095 -0.028,-1.641 -0.029,-0.252 -0.07,-0.51 -0.126,-0.763 -0.003,-0.016 -0.006,-0.027 -0.009,-0.04 1.066,-1.866 2.129,-3.728 3.194,-5.597 z"
       id="path9" /><path
       style="fill:#201e1d"
       d="m 17.364333,81.122004 c -0.118,0.544 -0.178,1.099 -0.187,1.65 -0.01,0.813 0.096,1.624 0.298001,2.413 1.711999,6.694 3.423999,13.387 5.134999,20.079996 -0.66,0 -1.323999,0 -1.986,0 -1.948,0 -3.896,0 -5.844999,0 -2.022,0 -3.789,-1.37 -4.289,-3.332 C 8.9313335,95.842004 7.3743335,89.756004 5.8163335,83.667004 c -1.598,-6.243 8.3560005,-8.141 8.3560005,-8.141 1.066,1.87 2.126999,3.732 3.191999,5.596 z"
       id="path11" /><path
       style="fill:#201e1d"
       d="m 38.333333,35.000004 c -24.853999,0 -44.9999995,20.145 -44.9999995,45 C -6.6666665,104.851 13.479334,125 38.333333,125 c 24.854,0 45,-20.149 45,-44.999996 0,-24.855 -20.146,-45 -45,-45 z m 42.216,46.486 c -0.003,0.048 -0.003,0.097 -0.006,0.144 -0.017,0.384 -0.035,0.771 -0.06,1.151 -0.207,3.117 -0.74,6.121 -1.621,9.12 -0.881,2.998 -2.056,5.812 -3.567,8.547996 -0.376,0.677 -0.769999,1.345 -1.182,2.001 -0.203999,0.326 -0.414,0.648 -0.628,0.97 -0.006,0.012 -0.015,0.068 -0.041,0.06 -0.021,-0.011 -0.045,-0.017 -0.067,-0.026 -0.042,-0.019 -0.09,-0.037 -0.133,-0.057 -0.09,-0.035 -0.182,-0.068 -0.271,-0.106 -0.178,-0.071 -0.361,-0.141 -0.541,-0.212 -1.443,-0.564 -2.897,-1.086 -4.364,-1.575 -0.073,0.285 -0.149,0.572 -0.222,0.858 -0.158,0.623 -0.399,1.185 -0.739,1.729 0.997,0.33 1.983,0.677 2.967,1.043 0.491,0.184 0.977,0.365 1.464,0.557 0.063,0.023 0.123,0.047 0.184,0.071 0.025,0.012 0.076,0.015 0.048,0.05 -0.02,0.025 -0.042,0.052 -0.061,0.077 -0.08,0.106 -0.163,0.213 -0.246,0.313 -0.164,0.209 -0.332,0.418 -0.501,0.625 -1.341,1.628 -2.783,3.138 -4.354,4.551 -3.178,2.868 -6.597,5.125 -10.478,6.93 -1.913,0.889 -3.868,1.623 -5.894,2.22 -0.498,0.146 -1.001,0.286 -1.503,0.415 -0.063,0.014 -0.126,0.031 -0.191,0.044 -0.031,0.008 -0.062,0.017 -0.093,0.021 -0.017,0.004 -0.031,0.009 -0.048,0.013 -0.023,0.006 0.02,-0.018 0.026,-0.025 0.103,-0.082 0.202,-0.171 0.303,-0.256 0.196,-0.178 0.396,-0.353 0.588,-0.531 0.77,-0.728 1.486,-1.493 2.165,-2.308 2.665,-3.201 4.702,-7.073 6.213,-10.91 -0.992,0 -1.987,0 -2.978,0 -1.407,3.355 -3.28,6.766 -5.693,9.544 -2.373,2.729 -5.542,5.146 -9.354,5.621 0,-3.117 0,-6.232 0,-9.352 -0.894,0 -1.787,0 -2.68,0 0,3.119 0,6.234 0,9.352 -3.811,-0.476 -6.98,-2.893 -9.35,-5.618 -2.416,-2.779 -4.289,-6.189 -5.696,-9.547 -0.991,0 -1.985,0 -2.979,0 1.51,3.837 3.546,7.709 6.213,10.91 0.678,0.814 1.392,1.58 2.166,2.305 0.193,0.181 0.388,0.356 0.586,0.533 0.1,0.086 0.201,0.172 0.302,0.256 0.01,0.009 0.055,0.034 0.03,0.026 -0.017,-0.004 -0.033,-0.007 -0.048,-0.012 -0.031,-0.006 -0.064,-0.014 -0.095,-0.022 -0.063,-0.013 -0.125,-0.03 -0.189,-0.044 -0.503001,-0.129 -1.004001,-0.267 -1.504001,-0.415 -2.025,-0.594 -3.977,-1.328 -5.891,-2.22 -3.884,-1.802 -7.301999,-4.062 -10.482999,-6.93 -1.5690005,-1.413 -3.0090005,-2.922 -4.3510005,-4.551 -0.171,-0.205 -0.337,-0.414 -0.502,-0.625 -0.083,-0.101 -0.163,-0.207 -0.247,-0.313 -0.02,-0.026 -0.04,-0.053 -0.059,-0.078 -0.028,-0.034 0.022,-0.038 0.046,-0.05 0.062,-0.024 0.122,-0.045 0.182,-0.071 0.486,-0.191 0.975,-0.373 1.464,-0.557 0.984,-0.366 1.973,-0.713 2.968,-1.043 -0.339,-0.545 -0.58,-1.106 -0.74,-1.729 -0.072,-0.286 -0.146,-0.573 -0.221,-0.858 -1.467,0.489 -2.923,1.011 -4.365,1.575 -0.18,0.071 -0.361,0.141 -0.542,0.212 -0.088,0.038 -0.179,0.071 -0.267,0.106 -0.047,0.02 -0.093,0.038 -0.137,0.058 -0.022,0.009 -0.047,0.017 -0.068,0.025 -0.024,0.009 -0.033,-0.048 -0.039,-0.06 -0.215,-0.321 -0.422,-0.644 -0.628,-0.973 -0.413,-0.653 -0.805,-1.321 -1.18,-1.998 -1.511,-2.735996 -2.688,-5.550996 -3.569,-8.550996 -0.881,-2.997 -1.414,-6.004 -1.62,-9.12 -0.024,-0.381 -0.044,-0.768 -0.061,-1.148 -10e-4,-0.049 -0.003,-0.098 -0.004,-0.145 0.004,-0.042 -0.03,-0.104 0.04,-0.104 0.095,0 0.194,0 0.291,0 0.193,0 0.387,0 0.581,0 0.776,0 1.55,0 2.327,0 1.547,0 3.093,0 4.64,0 0.061,-0.382 0.155,-0.755 0.284,-1.119 0.131,-0.37 0.299,-0.73 0.497,-1.071 0.113,-0.196 0.237,-0.389 0.368,-0.571 -1.741,0 -3.481,0 -5.223,0 -0.871,0 -1.744,0 -2.617,0 -0.217,0 -0.436,0 -0.655,0 -0.106,0 -0.216,0 -0.327,0 -0.054,0 -0.109,0 -0.164,0 -0.081,0 -0.039,-0.074 -0.038,-0.121 0.016,-0.433 0.038,-0.86 0.066,-1.292 0.233,-3.52 0.88,-6.876 1.964,-10.231 1.088,-3.354 2.536,-6.454 4.411,-9.438 0.116,-0.184 0.232,-0.364 0.35,-0.547 0.059,-0.09 0.118,-0.184 0.179,-0.272 0.03,-0.046 0.059,-0.09 0.089,-0.136 0.007,-0.013 0.024,-0.07 0.046,-0.062 0.025,0.013 0.05,0.021 0.075,0.033 0.406,0.159 0.811,0.319 1.216,0.477 0.814,0.311 1.631,0.614 2.455,0.909 1.644,0.577 3.2970005,1.11 4.9720005,1.601 0.016,-0.965 0.227999,-1.815 0.669999,-2.679 -2.146999,-0.629 -4.2639995,-1.336 -6.3609995,-2.123 -0.254,-0.097 -0.511,-0.194 -0.767,-0.294 -0.128,-0.05 -0.256,-0.099 -0.383,-0.147 -0.063,-0.023 -0.127,-0.048 -0.191,-0.074 -0.044,-0.018 -0.003,-0.047 0.016,-0.069 0.021,-0.027 0.042,-0.057 0.064,-0.083 0.341,-0.441 0.694,-0.875 1.053,-1.302 0.729,-0.861 1.487,-1.691 2.282,-2.495 3.2090005,-3.24 6.7150005,-5.802 10.7759995,-7.879 2,-1.025 4.049,-1.875 6.186,-2.568 0.528,-0.173 1.06,-0.331 1.596,-0.485 0.268,-0.075 0.535,-0.146 0.801,-0.216 0.136,-0.036 0.271,-0.07 0.403,-0.103 0.034,-0.009 0.067,-0.018 0.1,-0.025 0.023,-0.006 0.109,-0.043 0.073,-0.01 -0.056,0.044 -0.109,0.089 -0.162,0.136 -0.857,0.733 -1.647,1.525 -2.394,2.371 -2.933,3.318 -5.132,7.448 -6.734,11.518 0.989,0.013 1.976,0.023 2.964,0.035 1.406,-3.364 3.278,-6.782 5.695,-9.565 2.372,-2.735 5.547,-5.161 9.365,-5.64 0,3.134 0,6.263 0,9.393 0.893,-0.009 1.786,-0.021 2.68,-0.03 0,-3.12 0,-6.24 0,-9.362 3.817,0.478 6.989,2.902 9.362,5.637 2.419,2.783 4.294,6.204 5.697,9.568 0.989,-0.012 1.976,-0.022 2.965,-0.035 -1.6,-4.069 -3.8,-8.199 -6.731,-11.518 -0.748,-0.846 -1.54,-1.638 -2.396,-2.371 -0.053,-0.047 -0.106,-0.092 -0.161,-0.136 -0.037,-0.033 0.049,0.004 0.073,0.01 0.033,0.008 0.067,0.017 0.101,0.025 0.133,0.032 0.267,0.066 0.402,0.103 0.267,0.069 0.534,0.141 0.801,0.216 0.535,0.154 1.066,0.313 1.595,0.485 2.139,0.694 4.191,1.543 6.191,2.568 4.063,2.079 7.565,4.641 10.776,7.884 0.792,0.801 1.552,1.632 2.278,2.493 0.358,0.427 0.713,0.859 1.056,1.3 0.021,0.028 0.042,0.057 0.063,0.083 0.012,0.014 0.022,0.03 0.032,0.042 0.014,0.018 -0.009,0.021 -0.021,0.026 -0.063,0.026 -0.126,0.051 -0.19,0.077 -0.129,0.047 -0.255,0.096 -0.383,0.146 -0.258,0.098 -0.514,0.195 -0.769,0.293 -2.095,0.786 -4.213,1.493 -6.358,2.122 0.441,0.863 0.654,1.714 0.67,2.679 1.676,-0.49 3.331,-1.023 4.974,-1.601 0.822,-0.295 1.641,-0.599 2.452,-0.909 0.407,-0.157 0.81,-0.317 1.216,-0.477 0.023,-0.012 0.05,-0.021 0.075,-0.033 0.025,-0.009 0.04,0.049 0.046,0.062 0.031,0.046 0.06,0.09 0.089,0.136 0.063,0.089 0.12,0.183 0.18,0.272 0.12,0.183 0.233,0.363 0.351,0.547 1.875,2.984 3.32,6.084 4.41,9.438 1.084,3.355 1.73,6.712 1.963,10.231 0.03,0.432 0.051,0.859 0.068,1.292 0,0.047 0.045,0.121 -0.038,0.121 -0.055,0 -0.11,0 -0.163,0 -0.111,0 -0.22,0 -0.327,0 -0.218,0 -0.44,0 -0.656,0 -0.872,0 -1.744,0 -2.616,0 -1.742,0 -3.481,0 -5.223,0 0.133,0.183 0.254,0.375 0.367,0.571 0.198,0.341 0.367,0.701 0.499,1.071 0.129,0.364 0.222,0.737 0.282,1.119 1.546,0 3.094,0 4.641,0 0.776,0 1.551,0 2.328,0 0.195,0 0.388,0 0.584,0 0.095,0 0.192,0 0.29,0 0.07,-0.001 0.032,0.064 0.032,0.105 z"
       id="path13" /><path
       style="fill:#201e1d"
       d="m 46.888333,55.322004 c -0.32,4.591 -0.637,9.181 -0.954,13.771 -0.096,1.371 -0.71,2.65 -1.722,3.582 -0.749,0.688 -1.5,1.376 -2.249,2.065 -2.028,1.864 -5.14,1.892 -7.198,0.057 -0.781,-0.696 -1.563,-1.392 -2.347,-2.085 -1.054,-0.941 -1.697,-2.258 -1.788,-3.67 -0.283,-4.483 -0.566,-8.97 -0.853,-13.454 -0.108,-1.713 0.609,-3.375 1.929,-4.471 0.367,-0.305 0.735,-0.608 1.103,-0.913 0.946,-0.785 2.135,-1.222 3.363,-1.236 1.49,-0.019 2.984,-0.036 4.478,-0.054 1.266,-0.015 2.498,0.418 3.472,1.22 0.274,0.226 0.547,0.452 0.82,0.674 1.338,1.103 2.064,2.785 1.946,4.514 z"
       id="path15" /></g></svg>