<svg xmlns:dc="http://purl.org/dc/elements/1.1/" xmlns:cc="http://creativecommons.org/ns#" xmlns:rdf="http://www.w3.org/1999/02/22-rdf-syntax-ns#" xmlns:svg="http://www.w3.org/2000/svg" xmlns="http://www.w3.org/2000/svg" xmlns:sodipodi="http://sodipodi.sourceforge.net/DTD/sodipodi-0.dtd" xmlns:inkscape="http://www.inkscape.org/namespaces/inkscape" version="1.1" id="Calque_1" x="0px" y="0px" width="100px" height="100px" viewBox="0 0 100 100" enable-background="new 0 0 100 100" xml:space="preserve" inkscape:version="0.48.2 r9819" sodipodi:docname="empowerment.svg"><metadata id="metadata13"><rdf:RDF><cc:Work rdf:about=""><dc:format>image/svg+xml</dc:format><dc:type rdf:resource="http://purl.org/dc/dcmitype/StillImage"/><dc:title/></cc:Work></rdf:RDF></metadata><defs id="defs11">
	
	
</defs><sodipodi:namedview pagecolor="#ffffff" bordercolor="#666666" borderopacity="1" objecttolerance="10" gridtolerance="10" guidetolerance="10" inkscape:pageopacity="0" inkscape:pageshadow="2" inkscape:window-width="1440" inkscape:window-height="852" id="namedview9" showgrid="false" inkscape:zoom="4.695189" inkscape:cx="78.542494" inkscape:cy="67.002927" inkscape:window-x="0" inkscape:window-y="0" inkscape:window-maximized="1" inkscape:current-layer="Calque_1"/>
<path style="fill:#000000" d="m 68.3125,23.4375 0,5.9375 9.375,4.5 -29.480566,16.843892 c 3.094274,2.501562 2.594025,-1.569881 0.04869,-0.04399 l -0.08058,0.02548 L 18.25,33.875 l 9.28125,-4.46875 0,-5.90625 -16.25,7.8125 c -0.006,0.002 -0.02425,-0.003 -0.03125,0 -0.102,0.05 -0.18525,0.09425 -0.28125,0.15625 -0.016,0.011 -0.0465,0.02025 -0.0625,0.03125 -0.08,0.057 -0.14475,0.1225 -0.21875,0.1875 -0.017,0.015 -0.0465,0.0475 -0.0625,0.0625 -0.083,0.076 -0.176,0.13075 -0.25,0.21875 -0.007,0.009 0.007,0.02225 0,0.03125 -0.062,0.075 -0.1335,0.167 -0.1875,0.25 -0.018,0.028 -0.01425,0.06575 -0.03125,0.09375 -0.017,0.027 -0.0475,0.0345 -0.0625,0.0625 -0.026,0.049 -0.0385,0.10725 -0.0625,0.15625 -0.011,0.023 -0.0515,0.0385 -0.0625,0.0625 C 9.92375,32.728 9.906,32.8325 9.875,32.9375 L 9.84375,33 c -0.026,0.095 -0.0465,0.18625 -0.0625,0.28125 -0.003,0.023 0.003,0.0385 0,0.0625 -0.015,0.114 -0.03125,0.26 -0.03125,0.375 l 0,13.21875 0,30.6875 c 0,0.972 0.527,1.87175 1.375,2.34375 l 35.5625,19.6875 c 0.092,0.052 0.18125,0.11625 0.28125,0.15625 0.018,0.007 0.0445,-0.007 0.0625,0 0.078,0.028 0.13675,0.07075 0.21875,0.09375 0.027,0.008 0.06575,0.02525 0.09375,0.03125 0.076,0.019 0.171,0.01925 0.25,0.03125 0.027,0.004 0.0365,-0.003 0.0625,0 0.103,0.012 0.2065,0.03125 0.3125,0.03125 0.106,0 0.2105,-0.01925 0.3125,-0.03125 0.026,-0.003 0.06675,0.004 0.09375,0 0.079,-0.012 0.14275,-0.01225 0.21875,-0.03125 0.027,-0.006 0.06675,-0.02325 0.09375,-0.03125 0.083,-0.023 0.13975,-0.06575 0.21875,-0.09375 0.019,-0.007 0.0445,0.007 0.0625,0 0.1,-0.04 0.18825,-0.10425 0.28125,-0.15625 10e-4,-0.001 0.02925,0.001 0.03125,0 L 84.8125,79.96875 c 0.849,-0.472 1.375,-1.37175 1.375,-2.34375 l 0,-30.6875 0,-13.21875 c 0,-0.117 -0.01625,-0.259 -0.03125,-0.375 -0.003,-0.022 0.004,-0.0415 0,-0.0625 -0.016,-0.099 -0.0355,-0.18425 -0.0625,-0.28125 -0.006,-0.018 -0.02625,-0.0465 -0.03125,-0.0625 -0.032,-0.107 -0.077,-0.2085 -0.125,-0.3125 -0.009,-0.022 0.011,-0.0405 0,-0.0625 -0.023,-0.051 -0.06575,-0.10625 -0.09375,-0.15625 -0.016,-0.028 -0.0445,-0.0345 -0.0625,-0.0625 C 85.76625,32.31575 85.769,32.278 85.75,32.25 85.694,32.167 85.6255,32.075 85.5625,32 c -0.075,-0.087 -0.167,-0.174 -0.25,-0.25 -0.019,-0.017 -0.0425,-0.0465 -0.0625,-0.0625 -0.07,-0.062 -0.14075,-0.10225 -0.21875,-0.15625 -0.02,-0.014 -0.0425,-0.0495 -0.0625,-0.0625 -0.092,-0.061 -0.18125,-0.10825 -0.28125,-0.15625 -0.009,-0.004 -0.02425,0.003 -0.03125,0 z m 12.53125,14.71875 0,0.03125 -5.03125,2.78125 z M 15.09375,38.25 45.3125,55 l 0,37.75 -30.21875,-16.65625 z m 65.75,0 0,37.8125 -30.1875,16.71875 0,-37.6875 L 65.75,46.625 z" id="path5" inkscape:connector-curvature="0" sodipodi:nodetypes="ccccccccccccccccccccccccccscsccccccccscccccccccscscccccccccccccccccccccccccccccccc"/>
<path inkscape:connector-curvature="0" d="m 63.027137,22.340237 c -1.163046,0 -2.103722,0.950709 -2.103722,2.118491 0,1.164012 0.941209,2.11472 2.103722,2.11472 1.152914,0 2.09359,-0.950708 2.09359,-2.11472 0,-1.168321 -0.940676,-2.118491 -2.09359,-2.118491 z" id="path3071"/><path inkscape:connector-curvature="0" d="m 32.87539,22.340237 c -1.159846,0 -2.100522,0.950709 -2.100522,2.118491 0,1.164012 0.940676,2.11472 2.100522,2.11472 1.156114,0 2.09679,-0.950708 2.09679,-2.11472 0,-1.168321 -0.940676,-2.118491 -2.09679,-2.118491 z" id="path3073"/><path inkscape:connector-curvature="0" d="m 56.781563,18.486232 c -1.718706,0 -3.117988,1.412866 -3.117988,3.148919 0,1.743055 1.399282,3.155921 3.117988,3.155921 1.725105,0 3.12812,-1.412866 3.12812,-3.155921 5.33e-4,-1.736053 -1.402482,-3.148919 -3.12812,-3.148919 z" id="path3075"/><path inkscape:connector-curvature="0" d="m 66.467749,37.654453 h -3.551531 v -6.610251 c 0,-1.136003 -0.329556,-2.191747 -0.864419,-3.110137 0.312492,-0.09157 0.631917,-0.161593 0.975338,-0.161593 1.895749,0 3.440612,1.567457 3.440612,3.48611 v 6.395871 z" id="path3077"/><path inkscape:connector-curvature="0" d="m 39.110299,18.486232 c -1.718706,0 -3.117454,1.412866 -3.117454,3.148919 0,1.743055 1.399281,3.155921 3.117454,3.155921 1.718173,0 3.121188,-1.412866 3.121188,-3.155921 0,-1.736053 -1.402482,-3.148919 -3.121188,-3.148919 z" id="path3079"/><path inkscape:connector-curvature="0" d="m 32.87539,27.772472 c 0.340222,0 0.655913,0.07002 0.972138,0.161593 -0.538062,0.91839 -0.864419,1.974134 -0.864419,3.110137 v 6.610251 h -3.555263 v -6.396409 c 0,-1.918115 1.551795,-3.485572 3.447544,-3.485572 z" id="path3081"/><path inkscape:connector-curvature="0" d="m 47.946464,12.184625 c -2.54153,0 -4.61059,2.093713 -4.61059,4.657124 0,2.573646 2.06906,4.664127 4.61059,4.664127 2.541531,0 4.617523,-2.090481 4.617523,-4.664127 -5.33e-4,-2.56395 -2.076525,-4.657124 -4.617523,-4.657124 z" id="path3083"/><path inkscape:connector-curvature="0" d="M 61.77077,40.116599 H 56.319757 V 30.05902 c 0,-1.388627 -0.357286,-2.675988 -0.940675,-3.822764 0.444208,-0.136815 0.912946,-0.231617 1.402481,-0.231617 2.749503,0 4.988674,2.258 4.988674,5.039024 v 9.072936 z" id="path3085"/><path inkscape:connector-curvature="0" d="m 39.568905,30.05902 v 10.057579 h -5.443547 v -9.072397 c 0,-2.781025 2.235438,-5.039024 4.985474,-5.039024 0.493269,0 0.958274,0.0948 1.402482,0.231617 -0.58339,1.146237 -0.944409,2.433598 -0.944409,3.822225 z" id="path3087"/><path inkscape:connector-curvature="0" d="m 40.711154,43.026898 h 14.47062 V 30.05902 c 0,-4.036606 -3.24597,-7.311567 -7.23531,-7.311567 -3.996271,0 -7.23531,3.274961 -7.23531,7.311567 v 12.967878 z" id="path3089"/><path inkscape:connector-curvature="0" d="m 79.151942,2.5803892 h -16.35102 c -2.60471,0 -4.724233,1.6516781 -4.724233,3.6846561 V 12.30354 c 0,2.035588 2.119523,3.689879 4.724233,3.689879 h 1.671145 v 4.826318 l 6.186485,-4.826318 h 8.49339 c 2.60471,0 4.724233,-1.654291 4.724233,-3.689879 V 6.2650453 c 0,-2.032978 -2.119046,-3.6846561 -4.724233,-3.6846561 z m 3.027753,9.7231508 c 0,1.30694 -1.359956,2.368387 -3.027753,2.368387 h -9.193206 l -3.790669,2.958619 v -2.958619 h -3.367145 c -1.668276,0 -3.027754,-1.061447 -3.027754,-2.368387 V 6.2650453 c 0,-1.3043294 1.359956,-2.3657759 3.027754,-2.3657759 h 16.35102 c 1.667797,0 3.027753,1.0614465 3.027753,2.3657759 V 12.30354 z" id="path3091"/></svg>